<?xml version="1.0" encoding="UTF-8"?>
<svg xmlns="http://www.w3.org/2000/svg" xmlns:xlink="http://www.w3.org/1999/xlink" viewBox="0 0 750 500">
  <defs>
    <style>
      .cls-1, .cls-2 {
        fill: none;
      }

      .cls-3 {
        fill: url(#linear-gradient);
      }

      .cls-4 {
        clip-path: url(#clippath);
      }

      .cls-5 {
        fill: #ebf8f4;
      }

      .cls-6 {
        fill: #fff;
      }

      .cls-7 {
        fill: #e6ac4b;
      }

      .cls-8 {
        fill: #cb521c;
      }

      .cls-9 {
        fill: #de934a;
      }

      .cls-10 {
        fill: #c78c81;
      }

      .cls-11 {
        fill: #d9d9dc;
      }

      .cls-12 {
        fill: #2a4a49;
      }

      .cls-13 {
        fill: #3c529c;
      }

      .cls-14 {
        fill: #282548;
      }

      .cls-15 {
        fill: url(#Degradado_sin_nombre_2-4);
      }

      .cls-16 {
        fill: url(#Degradado_sin_nombre_2-2);
      }

      .cls-17 {
        fill: url(#Degradado_sin_nombre_2-3);
      }

      .cls-18 {
        fill: url(#Degradado_sin_nombre_2-5);
      }

      .cls-19 {
        clip-path: url(#clippath-1);
      }

      .cls-20 {
        fill: url(#Degradado_sin_nombre_11);
      }

      .cls-20, .cls-21 {
        opacity: .78;
      }

      .cls-20, .cls-21, .cls-22 {
        mix-blend-mode: overlay;
      }

      .cls-23 {
        fill: url(#linear-gradient-8);
      }

      .cls-24 {
        fill: url(#linear-gradient-9);
      }

      .cls-25 {
        fill: url(#linear-gradient-4);
      }

      .cls-26 {
        fill: url(#linear-gradient-2);
      }

      .cls-27 {
        fill: url(#linear-gradient-6);
      }

      .cls-28 {
        fill: url(#linear-gradient-7);
      }

      .cls-29 {
        fill: url(#linear-gradient-5);
      }

      .cls-30 {
        fill: url(#Degradado_sin_nombre_30);
      }

      .cls-31 {
        fill: url(#Degradado_sin_nombre_37);
      }

      .cls-32 {
        fill: url(#Degradado_sin_nombre_36);
      }

      .cls-33 {
        fill: url(#Degradado_sin_nombre_35);
      }

      .cls-34 {
        fill: url(#Degradado_sin_nombre_13);
      }

      .cls-35 {
        fill: url(#Degradado_sin_nombre_12);
      }

      .cls-2 {
        stroke: #fff;
        stroke-miterlimit: 10;
      }

      .cls-36 {
        fill: url(#Degradado_sin_nombre_2);
      }

      .cls-21 {
        fill: url(#linear-gradient-3);
      }

      .cls-37 {
        fill: url(#linear-gradient-14);
      }

      .cls-38 {
        fill: url(#linear-gradient-18);
      }

      .cls-39 {
        fill: url(#linear-gradient-22);
      }

      .cls-40 {
        fill: url(#linear-gradient-20);
      }

      .cls-41 {
        fill: url(#linear-gradient-21);
      }

      .cls-42 {
        fill: url(#linear-gradient-23);
      }

      .cls-43 {
        fill: url(#linear-gradient-15);
      }

      .cls-44 {
        fill: url(#linear-gradient-19);
      }

      .cls-45 {
        fill: url(#linear-gradient-16);
      }

      .cls-46 {
        fill: url(#linear-gradient-17);
      }

      .cls-47 {
        fill: url(#linear-gradient-13);
      }

      .cls-48 {
        fill: url(#linear-gradient-12);
      }

      .cls-49 {
        fill: url(#linear-gradient-10);
      }

      .cls-50 {
        fill: url(#linear-gradient-11);
      }

      .cls-51 {
        fill: url(#linear-gradient-27);
      }

      .cls-52 {
        fill: url(#linear-gradient-24);
      }

      .cls-53 {
        fill: url(#linear-gradient-26);
      }

      .cls-54 {
        fill: url(#linear-gradient-35);
      }

      .cls-55 {
        fill: url(#linear-gradient-34);
      }

      .cls-56 {
        fill: url(#linear-gradient-25);
      }

      .cls-57 {
        fill: url(#linear-gradient-28);
      }

      .cls-58 {
        fill: url(#linear-gradient-29);
      }

      .cls-59 {
        fill: url(#linear-gradient-33);
      }

      .cls-60 {
        fill: url(#linear-gradient-30);
      }

      .cls-61 {
        fill: url(#linear-gradient-32);
      }

      .cls-62 {
        fill: url(#linear-gradient-31);
      }

      .cls-63 {
        isolation: isolate;
      }

      .cls-64 {
        fill: url(#Degradado_sin_nombre_35-2);
      }

      .cls-65 {
        fill: url(#Degradado_sin_nombre_12-2);
      }

      .cls-66 {
        fill: url(#Degradado_sin_nombre_12-3);
      }

      .cls-22 {
        fill: #f9fafd;
        opacity: .32;
      }
    </style>
    <linearGradient id="linear-gradient" x1="-1.72" y1="1075.52" x2="749.54" y2="1075.52" gradientUnits="userSpaceOnUse">
      <stop offset="0" stop-color="#201a4a"/>
      <stop offset=".67" stop-color="#020318"/>
    </linearGradient>
    <clipPath id="clippath">
      <circle class="cls-1" cx="89.1" cy="116.39" r="41.9" transform="translate(-37.35 42.25) rotate(-22.18)"/>
    </clipPath>
    <linearGradient id="Degradado_sin_nombre_37" data-name="Degradado sin nombre 37" x1="148.76" y1="99.45" x2="227.42" y2="181.56" gradientTransform="translate(305.72 114.52) rotate(-144.53) scale(1 -1)" gradientUnits="userSpaceOnUse">
      <stop offset="0" stop-color="#70c6f2"/>
      <stop offset=".16" stop-color="#69bbeb"/>
      <stop offset=".44" stop-color="#599eda"/>
      <stop offset=".8" stop-color="#3f70bd"/>
      <stop offset=".85" stop-color="#3b69b9"/>
    </linearGradient>
    <linearGradient id="Degradado_sin_nombre_35" data-name="Degradado sin nombre 35" x1="103.01" y1="55.36" x2="117.71" y2="186.28" gradientUnits="userSpaceOnUse">
      <stop offset=".04" stop-color="#0b66b5"/>
      <stop offset=".34" stop-color="#077dc1"/>
      <stop offset=".72" stop-color="#01a1d5"/>
    </linearGradient>
    <linearGradient id="Degradado_sin_nombre_35-2" data-name="Degradado sin nombre 35" x1="62.13" y1="71.33" x2="108.2" y2="197.82" xlink:href="#Degradado_sin_nombre_35"/>
    <linearGradient id="Degradado_sin_nombre_36" data-name="Degradado sin nombre 36" x1="17.55" y1="113.34" x2="253.48" y2="160.95" gradientUnits="userSpaceOnUse">
      <stop offset=".15" stop-color="#0b66b5"/>
      <stop offset=".4" stop-color="#077dc1"/>
      <stop offset=".72" stop-color="#01a1d5"/>
    </linearGradient>
    <linearGradient id="linear-gradient-2" x1="56.11" y1="46.81" x2="76.41" y2="53.32" gradientUnits="userSpaceOnUse">
      <stop offset="0" stop-color="#cd5113"/>
      <stop offset="1" stop-color="#e7ad4b"/>
    </linearGradient>
    <linearGradient id="Degradado_sin_nombre_2" data-name="Degradado sin nombre 2" x1="30" y1="348.35" x2="283.44" y2="373.81" gradientUnits="userSpaceOnUse">
      <stop offset="0" stop-color="#6c20be"/>
      <stop offset="1" stop-color="#db34a8"/>
    </linearGradient>
    <clipPath id="clippath-1">
      <path class="cls-1" d="M212.33,316.71c4.92,3.33,9.51,7.83,12.31,13.89,2.8,6.07,3.55,13.89,.98,20.11-3.86,9.36-13.79,12.26-22.05,10.22-8.26-2.03-15.59-7.74-23.42-11.59-7.83-3.85-17.17-5.66-24.33-.12-5.51,4.26-8.61,12.01-10.81,19.64-2.28,7.89-3.91,16.1-6.83,23.66-2.92,7.55-7.39,14.59-13.59,17.78-6.2,3.19-14.28,1.51-18.09-5.39-3.34-6.03-2.78-14.18-5.08-20.93-4.26-12.47-17.55-18.42-19.52-31.75-1.25-8.48,2.94-17.07,8.63-21.94,5.69-4.87,12.63-6.77,19.39-8.38,19.43-4.63,38.87-6.69,58.47-9.49,15.68-2.24,29.09-5.74,43.93,4.3Z"/>
    </clipPath>
    <linearGradient id="Degradado_sin_nombre_11" data-name="Degradado sin nombre 11" x1="192.04" y1="421.41" x2="94.26" y2="171.08" gradientUnits="userSpaceOnUse">
      <stop offset=".04" stop-color="#fdfcff" stop-opacity="0"/>
      <stop offset="1" stop-color="#fff"/>
    </linearGradient>
    <linearGradient id="linear-gradient-3" x1="140.44" y1="444.03" x2="42.74" y2="193.91" gradientUnits="userSpaceOnUse">
      <stop offset="0" stop-color="#fdfcff" stop-opacity="0"/>
      <stop offset="1" stop-color="#fff"/>
    </linearGradient>
    <linearGradient id="Degradado_sin_nombre_2-2" data-name="Degradado sin nombre 2" x1="189.67" y1="384.98" x2="208.27" y2="384.98" xlink:href="#Degradado_sin_nombre_2"/>
    <linearGradient id="Degradado_sin_nombre_2-3" data-name="Degradado sin nombre 2" x1="215.01" y1="371.68" x2="222.8" y2="371.68" xlink:href="#Degradado_sin_nombre_2"/>
    <linearGradient id="Degradado_sin_nombre_2-4" data-name="Degradado sin nombre 2" x1="56.48" y1="398" x2="96.06" y2="368.4" xlink:href="#Degradado_sin_nombre_2"/>
    <linearGradient id="Degradado_sin_nombre_2-5" data-name="Degradado sin nombre 2" x1="91.47" y1="455.32" x2="117.27" y2="415.49" xlink:href="#Degradado_sin_nombre_2"/>
    <linearGradient id="linear-gradient-4" x1="28.82" y1="407.99" x2="220.99" y2="259.18" xlink:href="#linear-gradient-2"/>
    <linearGradient id="linear-gradient-5" x1="151.85" y1="511.76" x2="156.7" y2="291.11" gradientUnits="userSpaceOnUse">
      <stop offset="0" stop-color="#3650ae"/>
      <stop offset="1" stop-color="#8fffff"/>
    </linearGradient>
    <linearGradient id="linear-gradient-6" x1="44.25" y1="447.34" x2="247.83" y2="289.7" xlink:href="#linear-gradient-2"/>
    <linearGradient id="linear-gradient-7" x1="33.05" y1="418.32" x2="228.01" y2="267.35" xlink:href="#linear-gradient-2"/>
    <linearGradient id="linear-gradient-8" x1="38.27" y1="466.08" x2="260.25" y2="294.19" xlink:href="#linear-gradient-2"/>
    <linearGradient id="linear-gradient-9" x1="167.26" y1="392.62" x2="209.94" y2="312.43" gradientUnits="userSpaceOnUse">
      <stop offset="0" stop-color="#db8894"/>
      <stop offset="1" stop-color="#ecb7a2"/>
    </linearGradient>
    <linearGradient id="linear-gradient-10" x1="163.49" y1="389.92" x2="205.99" y2="310.06" xlink:href="#linear-gradient-9"/>
    <linearGradient id="linear-gradient-11" x1="168.64" y1="387.75" x2="208.16" y2="313.48" xlink:href="#linear-gradient-9"/>
    <linearGradient id="linear-gradient-12" x1="161.95" y1="388.25" x2="203.71" y2="309.79" xlink:href="#linear-gradient-9"/>
    <linearGradient id="linear-gradient-13" x1="169.73" y1="391.36" x2="210.57" y2="314.63" xlink:href="#linear-gradient-9"/>
    <linearGradient id="linear-gradient-14" x1="167.72" y1="390.84" x2="208.98" y2="313.3" xlink:href="#linear-gradient-9"/>
    <linearGradient id="linear-gradient-15" x1="168.24" y1="381.17" x2="205.96" y2="312.48" xlink:href="#linear-gradient-9"/>
    <linearGradient id="linear-gradient-16" x1="165.53" y1="390.02" x2="207.12" y2="311.89" xlink:href="#linear-gradient-9"/>
    <linearGradient id="linear-gradient-17" x1="162" y1="386.39" x2="202.97" y2="309.42" xlink:href="#linear-gradient-9"/>
    <linearGradient id="linear-gradient-18" x1="164.58" y1="387.65" x2="206.65" y2="311.02" xlink:href="#linear-gradient-9"/>
    <linearGradient id="linear-gradient-19" x1="127.83" y1="511.49" x2="132.69" y2="290.01" xlink:href="#linear-gradient-5"/>
    <linearGradient id="linear-gradient-20" x1="149.7" y1="451.34" x2="170.39" y2="422.57" xlink:href="#linear-gradient-2"/>
    <linearGradient id="linear-gradient-21" x1="137.55" y1="423.93" x2="154.44" y2="423.93" xlink:href="#linear-gradient-9"/>
    <linearGradient id="linear-gradient-22" x1="137.55" y1="419.31" x2="139.75" y2="419.31" xlink:href="#linear-gradient-9"/>
    <linearGradient id="linear-gradient-23" x1="141.29" y1="511.75" x2="146.16" y2="290.43" xlink:href="#linear-gradient-5"/>
    <linearGradient id="linear-gradient-24" x1="176.02" y1="512.32" x2="180.87" y2="291.83" xlink:href="#linear-gradient-5"/>
    <linearGradient id="linear-gradient-25" x1="154.18" y1="443.06" x2="142.23" y2="413.97" xlink:href="#linear-gradient-2"/>
    <linearGradient id="linear-gradient-26" x1="154.12" y1="412.02" x2="171.05" y2="412.02" xlink:href="#linear-gradient-9"/>
    <linearGradient id="linear-gradient-27" x1="168.15" y1="406.89" x2="171.05" y2="406.89" xlink:href="#linear-gradient-9"/>
    <linearGradient id="linear-gradient-28" x1="163.11" y1="512.13" x2="167.96" y2="291.34" xlink:href="#linear-gradient-5"/>
    <linearGradient id="linear-gradient-29" x1="138.49" y1="322.97" x2="172" y2="324.27" xlink:href="#linear-gradient-9"/>
    <linearGradient id="Degradado_sin_nombre_30" data-name="Degradado sin nombre 30" x1="134.87" y1="315.09" x2="174.48" y2="303.14" gradientUnits="userSpaceOnUse">
      <stop offset="0" stop-color="#db8894"/>
      <stop offset=".24" stop-color="#e09798"/>
      <stop offset=".71" stop-color="#e8ae9f"/>
      <stop offset="1" stop-color="#ecb7a2"/>
    </linearGradient>
    <linearGradient id="linear-gradient-30" x1="92.27" y1="361.31" x2="157.1" y2="311.16" xlink:href="#linear-gradient-9"/>
    <linearGradient id="linear-gradient-31" x1="88.33" y1="357.03" x2="153.75" y2="306.42" xlink:href="#linear-gradient-9"/>
    <linearGradient id="linear-gradient-32" x1="94.54" y1="349.84" x2="151.43" y2="305.84" xlink:href="#linear-gradient-9"/>
    <linearGradient id="linear-gradient-33" x1="94.24" y1="354.48" x2="153.63" y2="308.54" xlink:href="#linear-gradient-9"/>
    <linearGradient id="linear-gradient-34" x1="97" y1="357.28" x2="155.64" y2="311.92" xlink:href="#linear-gradient-9"/>
    <linearGradient id="linear-gradient-35" x1="98.46" y1="361.2" x2="157.5" y2="315.53" xlink:href="#linear-gradient-9"/>
    <linearGradient id="Degradado_sin_nombre_13" data-name="Degradado sin nombre 13" x1="435.22" y1="82.39" x2="411.72" y2="98.72" gradientUnits="userSpaceOnUse">
      <stop offset="0" stop-color="#cd5113"/>
      <stop offset=".27" stop-color="#d77529"/>
      <stop offset=".54" stop-color="#df933b"/>
      <stop offset=".77" stop-color="#e5a646"/>
      <stop offset=".93" stop-color="#e7ad4b"/>
    </linearGradient>
    <linearGradient id="Degradado_sin_nombre_12" data-name="Degradado sin nombre 12" x1="259.5" y1="109.5" x2="277.13" y2="98.77" gradientTransform="translate(197.52 -138.87) rotate(50.96)" gradientUnits="userSpaceOnUse">
      <stop offset="0" stop-color="#cd5113"/>
      <stop offset=".45" stop-color="#da8130"/>
      <stop offset=".8" stop-color="#e3a143"/>
      <stop offset="1" stop-color="#e7ad4b"/>
    </linearGradient>
    <linearGradient id="Degradado_sin_nombre_12-2" data-name="Degradado sin nombre 12" x1="557.95" y1="272.09" x2="575.53" y2="261.39" gradientTransform="translate(1137.73) rotate(-180) scale(1 -1)" xlink:href="#Degradado_sin_nombre_12"/>
    <linearGradient id="Degradado_sin_nombre_12-3" data-name="Degradado sin nombre 12" x1="189.64" y1="277.95" x2="207.21" y2="267.25" gradientTransform="matrix(1, 0, 0, 1, 0, 0)" xlink:href="#Degradado_sin_nombre_12"/>
  </defs>
  <g class="cls-63">
    <g id="OBJECTS">
      <rect class="cls-3" x="-1.72" y="-14.25" width="751.26" height="2179.54"/>
      <path class="cls-22" d="M226.21,206.99c37.41-14.16,69.19-42.64,87.34-78.28,6.52-12.8,11.11-28.92,3.23-40.93-4.6-7-12.77-11.09-21.06-12.3-8.29-1.21-16.74,.16-24.87,2.19-15.62,3.89-30.54,10.16-45.99,14.7-15.45,4.54-31.88,7.32-47.63,4.01-15.76-3.31-30.74-13.67-36.07-28.86-3.01-8.59-2.89-18.27-7.41-26.17-6.66-11.65-21.6-16.01-35-15.35-28.43,1.42-53.55,20.66-69.33,44.34C13.65,94.03,5.65,121.91-2.13,149.29V-15.09H213.66c-3.34,8.52-7.02,17.29-7.67,26.42s1.84,18.94,8.64,25.06c8.29,7.47,20.7,7.82,31.79,6.53,19.2-2.23,37.77-8.1,56.76-11.68,18.99-3.57,39.15-4.73,57.18,2.22,18.03,6.95,33.34,23.63,33.83,42.95,.53,21.36-15.99,38.99-32.28,52.82-40.79,34.63-85.68,58.77-135.7,77.76Z"/>
      <path class="cls-22" d="M625.42,243.49c52.52,14.39,112.66,7.11,165.31-20.01,18.9-9.74,38.93-25.03,42.01-45.83,1.79-12.13-2.89-23.79-10.43-32.13s-17.68-13.76-28.1-18.13c-20.02-8.41-41.56-13.41-62.01-20.9-20.45-7.5-40.27-17.89-53.64-34.94-13.37-17.05-19.27-41.83-10.5-64.27,4.95-12.69,14.22-24.07,16.94-37.2,4.02-19.36-7.49-36.99-22.15-47.36-31.09-22.01-75.55-20.14-114.42-5.21-38.87,14.93-73.56,41.31-107.54,67.29l155.15-194.86L821.89-30.23c-11.54,7.31-23.66,14.64-32.96,24.92-9.3,10.28-15.95,23.99-14.61,36.92,1.63,15.77,14.28,26.53,27.1,34.24,22.2,13.35,47.18,21.87,70.43,33.46,23.25,11.59,45.45,27.01,57.76,50.28,12.31,23.27,12.6,55.8-5.13,79.1-19.6,25.76-53.54,32.89-83.64,35.71-75.38,7.06-145.14-1.74-215.42-20.92Z"/>
      <path class="cls-22" d="M-1.66,536.79c47.09-18.82,88.1-58,112.58-108.48,5.71-11.78,10.55-26.47,4.99-38.35-5.67-12.11-19.18-15.19-30.96-16.83-11.78-1.64-25.26-4.39-31.27-16.28-5.5-10.87-2.26-24.53-.17-36.9,2.09-12.37,1.75-27.79-7.51-34.34-7.67-5.42-17.58-1.85-25.69,2.62-7.64,4.21-14.98,9.14-21.96,14.69v233.86Z"/>
      <g>
        <ellipse class="cls-2" cx="740.66" cy="28.38" rx="72.62" ry="233.12" transform="translate(224.04 559.88) rotate(-48.01)"/>
        <ellipse class="cls-2" cx="740.66" cy="28.38" rx="52.43" ry="168.33" transform="translate(224.04 559.88) rotate(-48.01)"/>
      </g>
      <g>
        <g>
          <circle class="cls-2" cx="89.48" cy="116.48" r="51.93"/>
          <g class="cls-4">
            <circle class="cls-31" cx="89.1" cy="116.39" r="41.9" transform="translate(-37.35 42.25) rotate(-22.18)"/>
            <g>
              <path class="cls-33" d="M84.61,70.93c-3.4,6.56-2.29,15.17,2.66,20.65,3.81,4.22,9.58,6.68,12.27,11.68,1.97,3.67,1.92,8.05,1.72,12.21-.2,4.16-.46,8.49,1.18,12.32,1.64,3.83,5.86,6.91,9.86,5.76,3.42-.98,5.41-4.57,6.3-8.02,.89-3.45,1.09-7.13,2.68-10.31,1.19-2.37,3.07-4.31,4.84-6.28s3.49-4.11,4.23-6.66c1.5-5.16-.02-9.67-3.75-13.39-3.15-3.14-7.67-7.22-11.45-9.35,.35,2.3,1.59,4.36,1.47,6.83-.12,2.47-1.68,5.06-4.12,5.52-1.92,.36-3.83-.64-5.37-1.84-4.89-3.78-7.88-9.91-7.86-16.09l-14.68-3.03Z"/>
              <path class="cls-64" d="M77.37,80.15c.99,3.31,.82,6.86,.91,10.33,.09,3.47,.49,7.1,2.41,9.93,2.12,3.12,5.72,4.76,8.5,7.27,2.96,2.67,5.13,7.77,3.52,16.96-1.16,6.61-8.72,9.72-13.93,5.76-13.58-10.34-29.57-31.04-16.68-53.02,3.83-6.53,12.65-5.99,15.26,2.77Z"/>
              <path class="cls-32" d="M136.26,115.48c-2.44-1.68-4.5-1.04-6.38,1.25-1.88,2.29-2.55,5.3-3.28,8.17-2.32,9.15-7.61,17.48-17.44,19.59-6.78,1.46-13.72,1.7-20.54,.26-19.7-4.17-39-25.59-36.6-46.51,.18-1.56,.27-4.36,1.18-5.68-7.07,10.26-9.96,17.87-7.21,30.03,1.13,5,3.55,9.66,7.08,13.37,24.51,25.76,51.64,20.82,58.81,17.74,7.17-3.08,12.12-9.17,16.44-15.67,4.32-6.5,7.27-14.52,7.94-22.56Z"/>
            </g>
          </g>
        </g>
        <path class="cls-26" d="M59.9,48.62c-.92,3.91,1.5,7.84,5.41,8.76,3.91,.92,7.84-1.5,8.76-5.41,.92-3.91-1.5-7.84-5.41-8.76-3.91-.92-7.84,1.5-8.76,5.41Z"/>
      </g>
      <g>
        <g>
          <path class="cls-36" d="M212.33,316.71c4.92,3.33,9.51,7.83,12.31,13.89,2.8,6.07,3.55,13.89,.98,20.11-3.86,9.36-13.79,12.26-22.05,10.22-8.26-2.03-15.59-7.74-23.42-11.59-7.83-3.85-17.17-5.66-24.33-.12-5.51,4.26-8.61,12.01-10.81,19.64-2.28,7.89-3.91,16.1-6.83,23.66-2.92,7.55-7.39,14.59-13.59,17.78-6.2,3.19-14.28,1.51-18.09-5.39-3.34-6.03-2.78-14.18-5.08-20.93-4.26-12.47-17.55-18.42-19.52-31.75-1.25-8.48,2.94-17.07,8.63-21.94,5.69-4.87,12.63-6.77,19.39-8.38,19.43-4.63,38.87-6.69,58.47-9.49,15.68-2.24,29.09-5.74,43.93,4.3Z"/>
          <g class="cls-19">
            <g>
              <path class="cls-20" d="M156.14,271.26c.7-.16,.83,1.21,.14,1.37-5.64,1.34-10.5,5.11-14.39,10.16,2.73-1.13,5.87-.86,8.63-.25,4.94,1.08,9.64,3.53,13.95,6.7,9.52,6.99,17,17.19,25.21,26.23,7.98,8.79,17.06,16.52,27.95,17.62,4.61,.47,9.33-.4,13.47-3.07,4.25-2.74,7.48-7.43,9.41-12.85,4.31-12.11,1.9-25.7-4.34-36-6.87-11.35-17.29-17.95-28.03-21.79-2.62-.94-5.28-1.73-7.94-2.48-1.46-.41-1.17-3.26,.33-2.91,10.81,2.57,21.82,7.37,30.43,16.19,8.1,8.31,14.22,20.54,14.15,33.97-.07,11.94-4.86,23.76-13.66,29.08-8.54,5.17-18.93,3.39-27.3-1.44-10.51-6.06-18.58-16.92-27-26.52-7.43-8.47-15.9-16.83-25.95-19.52-2.23-.6-4.67-1.14-6.95-.67-1.61,.33-3.65,1.22-4.56,3.06-1.45,2.94,2.01,5.37,3.53,6.81,2.39,2.25,4.78,4.49,7.18,6.72,9.68,8.98,19.49,17.84,29.92,25.43,18.35,13.37,39.2,23.23,60.72,22.52,2.51-.08,5.01-.32,7.5-.69,.67-.1,.8,1.18,.13,1.3-20.79,3.66-41.81-3.34-60.38-14.87-10.64-6.61-20.75-14.62-30.43-23.21-4.99-4.43-9.91-8.99-14.82-13.57-2.09-1.95-5.04-3.94-5.87-7.25-.06-.23-.05-.45-.08-.68-1.29,2.67-2.38,5.49-3.23,8.37-3.81,12.98-3.58,27.24-2.95,40.85,.65,14.09,1.82,28.43-.36,42.41-1.9,12.14-6.36,24.5-14.61,31.87-7.91,7.07-19.47,9.46-27.92,2.45-.94-.78,.04-2.89,1.04-2.16,7.82,5.76,17.58,4.35,24.97-1.87,8.48-7.14,12.9-19.78,14.63-32,3.83-27.04-4.11-55.2,3.65-81.63,3.87-13.19,12.41-25.11,23.84-27.66Z"/>
              <path class="cls-21" d="M69.66,338.99c1.84,8.39,4.76,16.55,10.15,22.32,4.46,4.78,10.39,7.68,16.3,7.04,6.1-.66,11.4-5.04,15.19-10.92,3.97-6.16,6.16-13.67,7.15-21.43,1.16-9.15,.78-18.46,.39-27.66-.05-1.08,1.28-1.31,1.34-.21,.92,16.8,1.75,35.26-6.66,49.56-3.75,6.39-9.15,11.44-15.49,12.84-6.14,1.35-12.54-1.07-17.54-5.54-6.6-5.89-10.9-15.63-12.26-25.52-.14-1.03,1.21-1.5,1.43-.47Z"/>
            </g>
          </g>
          <path class="cls-16" d="M206.02,391.53c-2.48,3.88-7.01,5.56-10.71,3.79-3.71-1.77-6.2-6.99-5.54-11.88,1.06-7.74,7.94-10.88,13.44-8.91,5.94,2.14,6.34,11.49,2.81,17Z"/>
          <path class="cls-17" d="M221.91,374.47c-.96,1.5-2.65,2.26-4.13,1.76-1.57-.53-2.76-2.46-2.77-4.5-.01-2.03,1.16-3.99,2.72-4.55,3.59-1.29,6.65,3.43,4.18,7.29Z"/>
          <path class="cls-15" d="M68.43,365.03c2.05-2.46,5.41-1.62,8-.17,7.93,4.44,14.19,13.3,16.74,23.69,.46,1.87,.78,4.01-.03,5.68-.78,1.62-2.43,2.31-3.93,2.12-1.5-.18-2.88-1.09-4.18-2.04-4.29-3.15-24.23-20.13-16.6-29.28Z"/>
          <path class="cls-18" d="M99.92,436.28c-2.17-2.05-4.12-5.2-3.63-8.54,.33-2.22,1.71-4.02,3.32-5.04,1.61-1.02,3.43-1.37,5.22-1.61,5.58-.74,15.81,1.51,14.05,11.49-1.89,10.74-13.79,8.6-18.96,3.7Z"/>
        </g>
        <g>
          <path class="cls-25" d="M163.76,336.66c2.04-5.18,3.63-11.22,1.83-16.49-1.28-3.76-4.1-6.46-7.03-8.52-2.93-2.05-6.11-3.65-8.82-6.1-3.14-2.83-5.52-6.69-8.44-9.84-1.87-2.01-4.46-3.82-6.78-2.64-1.75,.89-2.67,3.15-3.34,5.28-2.53,8.07-3.57,16.79-3.01,25.36,.2,3.03,.71,6.32,2.65,8.29,1.5,1.52,3.54,1.93,5.43,2.55,4.35,1.41,8.39,4.17,11.61,7.92l15.91-5.81Z"/>
          <path class="cls-29" d="M138.12,375.16l-6.54,27.45s-1.1,21.89,20.32,21.4c21.42-.49,24.92-16.84,24.92-16.84l-9.26-32.01h-29.44Z"/>
          <path class="cls-27" d="M154.07,325.84s-10.85,4.12-23.36,11.01c0,0,3.76,33.17,3.76,35.82s-.88,18.78-.88,18.78c0,0,22.92,12.28,39.06,0,0,0-3.67-15.7-3.48-17.9,.18-2.2,5.76-38.48,5.76-38.48-5.32-4.6-20.87-9.23-20.87-9.23Z"/>
          <path class="cls-8" d="M165.05,356.17c-3.38,2.97-7.41,5.05-11.36,6.51-3.99,1.48-8.17,2.42-12.34,2.41-.71,0-.66,1.32,.03,1.36,4.32,.3,8.63-.21,12.76-1.84,2.04-.8,4.01-1.83,5.89-3.09,1.92-1.29,3.69-2.86,5.45-4.47,.42-.39,.01-1.26-.42-.88Z"/>
          <path class="cls-8" d="M163.87,363.73c-2.34,1.46-4.96,2.36-7.52,2.96-2.59,.61-5.2,.83-7.84,.76-.88-.02-.98,1.57-.1,1.7,2.73,.42,5.54,.19,8.21-.6,2.72-.8,5.17-2.21,7.6-3.91,.45-.32,.12-1.21-.35-.92Z"/>
          <path class="cls-8" d="M134.44,392.47c.03,.44,.34,.67,.62,.58,.04,.03,.07,.06,.11,.08,2.36,.92,4.75,1.68,7.18,2.28,4.29,1.06,8.67,1.61,13.05,1.64,4.21,.03,8.52-.3,12.63-1.5,.3,.29,.84,.13,.86-.5,.05-1.28,0-2.57,0-3.85,0-1.28,0-2.57-.01-3.85,0-.11-.02-.2-.05-.28-.01-.2-.11-.38-.25-.5-.4-.35-.92-.52-1.35-.8-.41-.26-.81-.56-1.19-.89-.73-.65-1.37-1.47-1.82-2.45-.99-2.18-.98-4.74-1.13-7.16-.03-.45-.35-.63-.61-.55-.07-.05-.14-.1-.23-.11-1.36-.21-2.72-.38-4.08-.51-2.42-.23-4.84-.31-7.26-.27-1.21,.02-2.42,.07-3.63,.16-1.06,.08-2.15,.12-3.2,.31-.22-.22-.59-.19-.7,.25,0,.02-.01,.04-.02,.06-.04,.08-.07,.18-.08,.28-.57,2.19-1.51,4.2-2.79,5.86-.67,.87-1.42,1.63-2.25,2.25-.84,.64-1.71,1.06-2.63,1.47-.01,0-.02,.02-.03,.02-.27-.06-.56,.12-.55,.56,.02,1.25-.02,2.5-.12,3.74-.05,.62-.13,1.24-.22,1.86-.04,.28-.09,.55-.14,.83-.06,.32-.15,.66-.13,.99Zm1.17-.58c.06-.36,.1-.72,.14-1.04,.09-.63,.16-1.27,.21-1.92,.09-1.08,.11-2.17,.08-3.25,1.97-.6,3.84-2.19,5.23-3.99,1.31-1.7,2.32-3.78,2.82-6.06,.61-.04,1.22-.14,1.83-.2,.66-.06,1.32-.12,1.98-.16,4.75-.32,9.53-.2,14.26,.38-.03,2.56,.16,5.31,1.21,7.55,.54,1.14,1.3,2.08,2.16,2.84,.41,.36,.84,.67,1.28,.95,.33,.21,.68,.43,1.04,.58,0,1.21-.01,2.42-.02,3.62,0,1.1-.04,2.2-.01,3.3-2.27,.37-4.55,.76-6.84,.97-4.3,.41-8.63,.31-12.91-.3-4.22-.6-8.4-1.7-12.46-3.28Z"/>
          <path class="cls-28" d="M148.74,332.61c-5.86-3.1-10.74-5.7-17.68-1.17,0,0-13.16,8.13-19.54,7.66-8.64-.64-13.72,12.15-7.87,20.59,3.99,5.75,15.66,3.82,15.66,3.82l16.79-3.84,12.65-27.05Z"/>
          <path class="cls-8" d="M162.02,329.2c1.35-2.55,1.95-5.75,.96-8.5-.75-2.1-2.34-3.71-4.07-4.91-1.73-1.2-3.63-2.07-5.41-3.16-4.9-3-8.92-7.74-11.3-13.34-.21-.49-.42-1.01-.77-1.39-.35-.38-.9-.6-1.35-.39-.36,.17-.58,.58-.77,.96-2.46,4.96-3.67,10.66-3.45,16.31,.11,2.78,.6,5.67,2.17,7.84,1.21,1.68,2.94,2.78,4.33,4.26,1.53,1.62,2.62,3.66,3.89,5.53,1.27,1.87,2.81,3.65,4.8,4.42,4.46,1.7,9-3.88,10.98-7.63Z"/>
          <path class="cls-8" d="M160.91,332.95c.88,.19,1.89-.07,2.68-.57,.87-.55,1.48-1.42,2.04-2.39,.55-.94,1.08-1.89,1.86-2.54,.7-.59,1.53-.94,2.37-1.03,.47-.05,.94-.02,1.4,.09,.27,.07,.62,.15,.89,.34,.1-.12,.22-.23,.35-.29,.33-.16,.73-.03,.97,.3,0,0,0,.02,.02,.03h0c.42,.42,.4,1.24,.09,1.74-.36,.57-1.08,.51-1.45,0-.19-.27-.3-.59-.29-.94-.25-.08-.5-.21-.74-.27-.4-.09-.81-.11-1.22-.06-.82,.1-1.62,.5-2.27,1.15-.74,.75-1.23,1.83-1.81,2.75-.57,.9-1.26,1.61-2.12,2.03-.94,.46-1.91,.47-2.88,.21-.27-.07-.18-.58,.09-.52Z"/>
          <g>
            <path class="cls-23" d="M171.05,332.52c4.89,1.18,8.07,3.51,10.37,11.35,2.3,7.84,11.63,26.41,7.42,34.16-8.71,16.03-20.99,2.85-15.54-8.4l-4.78-11.61,2.53-25.49Z"/>
            <path class="cls-8" d="M172.92,365.58c.36-1.42,1.08-2.6,2.03-3.48,2.14-1.99,4.87-1.95,7.41-2.06,.27-.01,.28,.5,.01,.53-2.28,.22-4.67,.66-6.58,2.35-.78,.69-1.46,1.65-1.79,2.79-.16,.55-.25,1.14-.24,1.72,0,.63,.16,1.15,.32,1.74,.19,.71-.63,1.13-.94,.52-.59-1.16-.54-2.84-.22-4.1Z"/>
            <path class="cls-8" d="M173.58,368.82c.35-.5,.85-.9,1.28-1.28,.44-.4,.89-.77,1.35-1.12,.89-.68,1.83-1.28,2.79-1.77,1.97-1.01,4.05-1.39,6.16-1.58,.28-.03,.29,.5,.01,.55-2.01,.32-3.97,1.23-5.81,2.26-.91,.51-1.8,1.08-2.66,1.74-.43,.33-.84,.68-1.25,1.04-.42,.38-.8,.85-1.24,1.18-.51,.39-1.02-.46-.64-1.01Z"/>
          </g>
          <g>
            <path class="cls-14" d="M190.25,335.38l-2.08,5.33c-.15,.37-.5,.53-.8,.34l-3.78-2.31c-.3-.18-.42-.63-.27-1l2.08-5.33c.15-.37,.5-.53,.8-.34l3.78,2.31c.3,.18,.42,.63,.27,1Z"/>
            <path class="cls-24" d="M194.05,330.14c-4.13,14.37,.58,28.61-4.7,42.93-2.73,7.41-10.26,7.81-13.58,.16l3.3-12,7.44-27.03,7.52-4.06Z"/>
            <path class="cls-8" d="M183.91,379.46c-.35-.36-.84-.32-1.27-.41-.44-.1-.87-.23-1.29-.4-.85-.35-1.63-.87-2.35-1.53-.7-.64-1.32-1.44-1.84-2.3-.25-.42-.48-.87-.7-1.32-.24-.51-.42-1.08-.72-1.54-.4-.62-1.05,.07-.97,.7,.07,.57,.39,1.19,.64,1.67,.27,.52,.58,1.01,.91,1.48,.63,.89,1.37,1.64,2.16,2.31,.78,.66,1.64,1.2,2.52,1.62,.43,.21,.87,.38,1.32,.51,.45,.13,1.06,.38,1.48,.08,.23-.16,.31-.63,.09-.86Z"/>
            <g>
              <path class="cls-49" d="M186.52,334.2l.55,6.11c9.02-.44,12.29-8.03,15.18-10.76l-8.74-7.71-6.98,12.36Z"/>
              <path class="cls-50" d="M198.13,324.84c-.1,.23-.17,.49-.2,.77,0,.08-.01,.15-.01,.22-.02,.77,.3,1.47,.8,1.86,.19,.15,.41,.26,.64,.3l1.47,.3,2.07,.41c.3,.06,.59,.02,.84-.11,.37-.17,.67-.5,.86-.93,.1-.23,.17-.49,.2-.77,.1-1.02-.42-1.96-1.19-2.23h0s-.09-.03-.13-.04l-3.52-.86s-.07-.01-.1-.02c-.72-.12-1.39,.34-1.72,1.08Z"/>
              <path class="cls-48" d="M205.82,313.48c-.27-.99-1.16-1.47-1.92-1.04l-6.54,3.72-5.21,6.45,3.94,5.94,4.63-9.66,4.49-3.29c.58-.43,.84-1.31,.62-2.11Z"/>
              <polygon class="cls-14" points="192.14 322.61 193.21 321.29 198.45 319.08 200.03 320.29 195.79 328.77 192.14 322.61"/>
              <path class="cls-47" d="M204.97,330.96c-.08,.73-.46,1.39-1.05,1.68l-3.35,1.6c-.86,.41-1.84-.11-2.19-1.18-.1-.31-.14-.63-.13-.94,0-.06,0-.11,.01-.16,0-.04,0-.09,.02-.14,.11-.73,.52-1.36,1.12-1.61l3.39-1.47c.48-.2,1-.12,1.41,.21,.06,.04,.12,.1,.17,.15,.2,.19,.37,.46,.48,.77,.12,.36,.16,.74,.12,1.09Z"/>
              <path class="cls-14" d="M204.2,328.95c-.12,.37-.33,.69-.62,.92l-3.01,2.44c-.75,.61-1.97,.63-2.54-.7,.11-.73,.78-1.15,1.38-1.4l3.39-1.47c.48-.2,1-.12,1.41,.21Z"/>
              <path class="cls-14" d="M202.35,327.78c-.02,.58-.24,1.15-.64,1.53l-1.99,1.84c-.73,.71-1.78,.55-2.36-.34-.25-.4-.38-.86-.38-1.33,0-.04,0-.1,0-.14,.03-.63,.27-1.24,.71-1.63l2.05-1.73c.35-.31,.76-.43,1.16-.37,.41,.05,.79,.31,1.07,.72,.28,.42,.41,.93,.38,1.44Z"/>
              <path class="cls-37" d="M197.72,329.39s0,.09,0,.14c0,.06,0,.11,0,.17h0c0,.41,.1,.83,.3,1.2,.52,.95,1.56,1.2,2.34,.57l3.01-2.44c.15-.12,.27-.26,.38-.43,.2-.3,.32-.67,.36-1.04,.05-.51-.04-1.03-.29-1.48-.15-.25-.32-.45-.53-.6-.16-.11-.33-.19-.5-.23-.39-.1-.81-.02-1.17,.25l-2.89,2.18-.19,.14c-.46,.35-.74,.93-.81,1.55Z"/>
              <path class="cls-14" d="M198.73,327.66l-.19,.14c-.46,.35-.74,.93-.81,1.55,0,.04,0,.09,0,.14,0,.06,0,.11,0,.17h0c.63,.51,1.47,.44,2.06-.21l1.05-1.19,2.28-2.58c.06-.07,.13-.15,.17-.23,.16-.24,.27-.52,.33-.82h0s-.09-.03-.13-.04l-3.52-.86s-.07-.01-.1-.02l-1.93,2.07c-.02,.77,.3,1.47,.8,1.86Z"/>
              <path class="cls-43" d="M196.76,322.21c-.14,.32-.22,.69-.21,1.09,.02,1.16,.78,2.09,1.7,2.09h1.16s2.43,.02,2.43,.02c.36,0,.7-.14,.98-.39,.2-.17,.36-.4,.48-.67,.14-.32,.22-.7,.2-1.09-.03-1.08-.73-1.94-1.59-1.98l-1.16-.05-1.23-.06-1.19-.05c-.67-.04-1.26,.42-1.57,1.1Z"/>
              <path class="cls-14" d="M201.17,324.64c.05,.58-.1,1.18-.45,1.64l-1.74,2.2c-.64,.84-1.69,.89-2.38,.12-.3-.35-.48-.78-.54-1.24-.01-.04-.01-.09-.02-.14-.05-.63,.11-1.27,.5-1.75l1.82-2.1c.31-.37,.7-.57,1.1-.58,.41-.03,.82,.15,1.15,.51,.33,.36,.51,.84,.56,1.35Z"/>
              <path class="cls-45" d="M202.88,324.05c.01,.58-.17,1.17-.55,1.59l-2.68,2.99c-.69,.78-1.74,.72-2.38-.11-.28-.37-.43-.82-.46-1.29,0-.04,0-.1,0-.14-.01-.63,.19-1.26,.61-1.69l2.75-2.89c.33-.34,.73-.5,1.13-.48,.41,.01,.81,.23,1.12,.62,.31,.39,.46,.89,.47,1.4Z"/>
              <g>
                <g>
                  <path class="cls-14" d="M188.7,333.94l4.78-9.79,5.34-2.09-.38,4.18-1.88,1.6s.22,9.39-7.86,6.1Z"/>
                  <path class="cls-14" d="M198.83,322.06l2.61,2.42c.57,.53,.69,1.52,.28,2.24h0c-.37,.64-1.04,.85-1.61,.51l-1.66-1,.38-4.18Z"/>
                </g>
                <g>
                  <path class="cls-46" d="M186.52,334.2l5.62-11.59,6.3-2.49-.44,4.93-2.22,1.9s.29,11.08-9.26,7.24Z"/>
                  <path class="cls-14" d="M199.52,321.16l-.87,3.55,.76,.69,1,.91c.05,.05,.11,.1,.16,.13,.58,.4,1.31,.29,1.79-.3,.26-.31,.41-.71,.45-1.13,.06-.55-.07-1.11-.39-1.55l-1.67-2.25-1.23-.06Z"/>
                  <path class="cls-38" d="M198.44,320.12l3.09,2.85c.67,.62,.82,1.8,.34,2.64h0c-.43,.75-1.23,1.01-1.9,.61l-1.96-1.17,.44-4.93Z"/>
                </g>
              </g>
            </g>
            <polygon class="cls-14" points="186.28 334.08 193.17 338.65 192.48 341.85 185.03 337.8 186.28 334.08"/>
          </g>
          <path class="cls-8" d="M170.45,359.21c.26-1.54,.5-3.08,.74-4.62,.48-3.11,.95-6.22,1.43-9.33,.27-1.78,.55-3.56,.77-5.35,.04-.33,.49-.26,.46,.07-.27,3.16-.51,6.33-.88,9.48-.23,1.92-.5,3.83-.79,5.73,.04-.04,.09-.07,.13-.11,.07-.06,.18-.16,.21-.19,.35-.34,.67-.72,.97-1.13,.56-.79,.99-1.73,1.21-2.77,.13-.6,.85-.36,.74,.24-.21,1.2-.63,2.35-1.22,3.33-.29,.48-.63,.93-1.01,1.31-.21,.2-.42,.4-.64,.57-.2,.16-.42,.34-.65,.43-.11,.68-.22,1.36-.33,2.03-.29,1.73-.47,3.62-1.14,5.2-.16,.37-.59,.19-.6-.2-.05-1.58,.34-3.16,.6-4.69Z"/>
          <g>
            <path class="cls-44" d="M144.57,406.13c-2.34-6.33-18.8-37.75-27.38-27.1-8.58,10.65-3.71,31.13,9.28,43.96,13,12.84,27.07,7.44,18.1-16.86Z"/>
            <path class="cls-13" d="M114.66,388.54c1.03,6.68,3.6,12.79,6.66,18.34,1.61,2.93,3.39,5.7,5.23,8.4,1.77,2.6,3.57,5.19,5.45,7.67,1.88,2.48,3.98,4.65,6.67,5.53,.59,.19,.34,1.22-.23,1.12-2.5-.43-4.6-2.49-6.36-4.64-1.95-2.39-3.72-5.03-5.51-7.61-3.73-5.39-7.3-11.05-9.66-17.58-1.29-3.56-2.2-7.25-2.6-11.12-.03-.28,.31-.41,.35-.12Z"/>
            <path class="cls-13" d="M139.57,395.83c3.16,4.71,5.71,10.17,7.09,16.11,.39,1.68,.7,3.38,.93,5.11,.12,.85-.94,1.12-1.05,.27-.78-5.96-2.45-11.73-4.92-16.92-.7-1.47-1.47-2.91-2.31-4.27-.14-.22,.11-.51,.26-.29Z"/>
            <g>
              <path class="cls-6" d="M169.62,450.7l9.67-18.1c-2.01-1.4-3.84-2.15-3.84-2.15l-11.36,16.75c4.32,3.67,5.53,3.51,5.53,3.51Z"/>
              <path class="cls-40" d="M166.22,446.27c-.68,.41-1.39,.73-2.13,.93-.79-.67-1.8-1.59-3.05-2.71-1.16-1.04-2.52-2.28-4.08-3.67-1.68-1.51-3.6-3.21-5.74-5.08,.59-3.64,1.67-7.55,3.21-10.76h0c4.55,2.51,12.4,3.19,17.91,4.47,1.42,.32,2.53,.66,3.1,1,.47,1.16-3.06,12.13-9.23,15.82Z"/>
              <path class="cls-9" d="M146.07,418.65c-.63-.61-1.3-1.27-2.02-2.01,.72,.74,1.39,1.4,2.02,2.01Z"/>
              <path class="cls-9" d="M139.75,412.1h0c.23,.26,.46,.5,.68,.74-.22-.25-.45-.49-.68-.74Z"/>
              <path class="cls-41" d="M154.44,424.98c-1.54,3.21-2.62,7.12-3.21,10.76-3.66-3.19-8.79-5.26-13.68-9.22l2.19-14.41c.23,.25,.46,.49,.68,.73,.45,.48,.89,.94,1.3,1.39,.41,.44,.81,.86,1.2,1.26h0c.38,.4,.76,.79,1.11,1.15h0c.72,.74,1.39,1.4,2.02,2.01,1.11,1.07,2.09,1.95,3.02,2.72,.26,.22,.52,.42,.77,.63,.13,.1,.26,.2,.39,.29,.25,.2,.5,.38,.75,.55,.12,.09,.25,.18,.38,.27,.24,.17,.49,.34,.74,.5,.75,.48,1.51,.93,2.32,1.37Z"/>
              <polygon class="cls-39" points="137.55 426.52 139.75 412.11 139.75 412.1 139.74 412.1 137.55 426.52"/>
              <g>
                <path class="cls-6" d="M161.1,444.55c-1.2-1.08-2.6-2.35-4.19-3.78,1.55-.21,4,1.19,4.19,3.78Z"/>
                <path class="cls-6" d="M175.45,430.45c.93,2.92-2.6,13.56-9.23,15.82-.75-8.43,3.43-17.9,9.23-15.82Z"/>
                <path class="cls-6" d="M155.71,420.12c-.61-.11-1.14,.37-1.41,1.11-.59,1.63,.03,4.03,.61,5.58,.57,1.54,1.37,2.85,2.36,3.85-.9-.19-1.81-.17-2.7,.11-1.29,.41-2.64,1.31-3.49,2.76-.77,1.3-.99,3.63,.22,4.71,1.21,1.08,2.76-.07,3.78-.94,1.19-1.03,2.38-2.56,3.08-4.37-.3,1.24-.5,2.54-.61,3.85-.02,.21,.19,.25,.23,.05,.22-1.44,.57-2.82,.98-4.16,.2-.66,.43-1.31,.68-1.93,.24-.59,.6-1.17,.77-1.81,.08-.31-.19-.66-.38-.43-.32,.38-.54,.98-.74,1.52,.32-3-.44-6.45-1.92-8.66-.39-.58-.89-1.14-1.46-1.24Zm-.11,15.62c-.88,.99-2.13,2.19-3.34,2.09-.6-.05-1.09-.57-1.23-1.43-.14-.91,.13-1.78,.55-2.42,.78-1.22,1.95-1.98,3.07-2.36,1.09-.37,2.25-.36,3.38-.03,0,0-.01,.01-.02,.02-.71,1.54-1.38,2.98-2.41,4.13Zm1.33-13.59c.69,1.2,1.19,2.64,1.44,4.14,.25,1.51,.23,3.05,.07,4.55-.01-.02-.03-.04-.04-.05-1.03-.84-1.92-2.06-2.57-3.48-.62-1.33-1.12-3.06-1.12-4.65,0-.83,.3-1.85,.99-1.73,.5,.08,.93,.68,1.24,1.22Z"/>
                <path class="cls-6" d="M161.41,430.17c-1.13,2.41-1.63,5.46-1.54,8.4,0,.23,.29,.25,.29,.01,.01-1.42,.16-2.83,.43-4.18,.28-1.37,.7-2.6,1.2-3.81,.05-.11,.07-.29,0-.41-.03-.04-.06-.08-.1-.11-.09-.06-.22-.03-.27,.09Z"/>
                <path class="cls-6" d="M164.16,430.88c-1.33,2.24-2.26,5.07-2.81,7.92-.06,.33,.28,.57,.36,.23,.32-1.38,.72-2.72,1.19-4,.48-1.31,1.07-2.5,1.67-3.69,.19-.38-.21-.82-.42-.46Z"/>
                <path class="cls-6" d="M166.55,431.64s-.05,0-.08,0c-.09,0-.15,.11-.19,.2-.26,.67-.57,1.29-.82,1.96-.25,.67-.48,1.37-.68,2.07-.4,1.39-.7,2.83-.9,4.31-.04,.29,.31,.44,.36,.15,.26-1.43,.58-2.84,.99-4.19,.2-.65,.41-1.29,.64-1.92,.26-.69,.51-1.42,.84-2.03,.05-.1,.06-.23,.03-.35,0-.03-.02-.06-.03-.08-.03-.1-.09-.13-.16-.13Z"/>
              </g>
              <polygon class="cls-42" points="136.83 427.75 143.83 432.04 149.62 419.93 138.8 407.36 136.83 427.75"/>
            </g>
          </g>
          <g>
            <path class="cls-52" d="M179.71,377.21c-4.86,3.42-28.57,26.46-19.41,36.32,9.16,9.86,25.08,2.16,34.27-15.08,9.19-17.24,3.78-34.37-14.86-21.25Z"/>
            <g>
              <path class="cls-6" d="M140.24,440.62l-10.55-17.31c1.94-1.56,3.72-2.45,3.72-2.45l12.17,15.83c-4.13,4-5.34,3.93-5.34,3.93Z"/>
              <path class="cls-56" d="M154.12,413.77c1.69,3.09,2.97,6.9,3.74,10.49-2.04,2.03-3.87,3.87-5.47,5.51-1.48,1.51-2.78,2.85-3.89,3.98-1.19,1.21-2.16,2.21-2.91,2.94-.75-.15-1.47-.41-2.17-.77-6.35-3.2-10.41-13.88-10-15.07,.55-.38,1.64-.8,3.04-1.24,5.44-1.7,13.24-2.99,17.66-5.85h0Z"/>
              <path class="cls-9" d="M162.16,406.8c.6-.66,1.23-1.37,1.91-2.16-.68,.79-1.31,1.51-1.91,2.16Z"/>
              <path class="cls-9" d="M168.15,399.78h0c-.22,.28-.43,.53-.64,.79,.21-.27,.42-.53,.64-.79Z"/>
              <path class="cls-53" d="M171.05,413.99c-4.68,4.33-9.7,6.8-13.19,10.27-.77-3.59-2.04-7.4-3.74-10.49,.79-.5,1.52-1.01,2.25-1.55,.24-.18,.48-.37,.71-.56,.13-.1,.25-.2,.37-.3,.24-.2,.48-.39,.72-.61,.13-.1,.25-.21,.38-.32,.24-.22,.49-.45,.74-.68,.89-.84,1.83-1.8,2.88-2.94,.6-.65,1.23-1.37,1.91-2.16,0,0,0,0,0,0,.34-.39,.69-.8,1.05-1.23h0c.37-.43,.75-.88,1.13-1.35,.39-.47,.81-.97,1.23-1.49,.21-.26,.42-.52,.64-.79l2.9,14.21Z"/>
              <polygon class="cls-51" points="171.05 413.99 168.15 399.78 168.15 399.78 168.15 399.78 171.05 413.99"/>
              <g>
                <path class="cls-6" d="M148.44,433.82c1.14-1.17,2.48-2.54,4-4.09-1.55-.09-3.94,1.5-4,4.09Z"/>
                <path class="cls-6" d="M133.41,420.86c-.78,2.99,3.27,13.33,10,15.07,.33-8.47-4.31-17.59-10-15.07Z"/>
                <path class="cls-6" d="M151.21,410.37c-1.37,2.33-1.95,5.83-1.48,8.8-.23-.52-.48-1.1-.81-1.46-.2-.22-.46,.15-.36,.46,.2,.62,.59,1.17,.86,1.75,.28,.6,.54,1.23,.78,1.87,.48,1.31,.89,2.66,1.19,4.08,.04,.2,.25,.14,.22-.07-.18-1.3-.44-2.58-.8-3.8,.79,1.75,2.05,3.19,3.29,4.12,1.06,.8,2.67,1.82,3.82,.65,1.16-1.17,.82-3.49,0-4.72-.93-1.37-2.32-2.17-3.62-2.48-.9-.21-1.81-.16-2.7,.1,.93-1.07,1.66-2.44,2.16-4.02,.5-1.59,1-4.04,.33-5.62-.31-.72-.86-1.16-1.46-1-.56,.14-1.03,.74-1.39,1.35Zm-.34,10.3s-.01-.01-.02-.02c1.1-.42,2.26-.51,3.37-.23,1.14,.29,2.34,.96,3.18,2.11,.44,.61,.76,1.45,.67,2.38-.09,.87-.56,1.43-1.16,1.53-1.2,.19-2.51-.91-3.43-1.83-1.08-1.07-1.83-2.46-2.61-3.94Zm1.79-10.83c.68-.17,1.03,.83,1.07,1.65,.08,1.59-.34,3.35-.89,4.73-.58,1.46-1.41,2.75-2.39,3.67-.02,.02-.03,.04-.04,.06-.24-1.49-.33-3.02-.16-4.55,.17-1.51,.6-2.99,1.23-4.24,.28-.56,.68-1.19,1.18-1.31Z"/>
                <path class="cls-6" d="M147.42,419.49c1.25,2.32,1.9,5.32,1.96,8.26,0,.23-.27,.27-.29,.03-.08-1.41-.3-2.81-.64-4.14-.34-1.34-.83-2.54-1.38-3.71-.05-.11-.09-.29-.01-.41,.03-.05,.05-.09,.09-.11,.09-.06,.22-.04,.28,.07Z"/>
                <path class="cls-6" d="M144.71,420.42c1.44,2.13,2.51,4.89,3.2,7.69,.08,.33-.25,.59-.35,.26-.39-1.35-.86-2.65-1.39-3.9-.54-1.27-1.19-2.41-1.85-3.55-.21-.36,.16-.83,.39-.5Z"/>
                <path class="cls-6" d="M142.36,421.36s.05,0,.08,0c.09,0,.16,.09,.2,.19,.29,.65,.63,1.24,.91,1.89,.28,.65,.54,1.33,.78,2.01,.47,1.36,.84,2.77,1.12,4.24,.05,.29-.28,.47-.35,.18-.33-1.4-.72-2.79-1.19-4.1-.23-.64-.47-1.26-.74-1.86-.29-.67-.58-1.37-.94-1.96-.06-.09-.07-.23-.04-.35,0-.03,.01-.06,.02-.09,.02-.1,.09-.14,.15-.15Z"/>
              </g>
            </g>
            <path class="cls-57" d="M167.89,397.69c-.27,.2-11.9,13.16-11.9,13.16l6.32,11.03,12.29-7.53-6.71-16.66Z"/>
            <path class="cls-13" d="M156.23,410.65c1.37-1.68,2.87-3.18,4.41-4.62-.06-.28-.12-.56-.17-.84-.43-2.71,.03-5.57,1.17-7.92,.1-.22,.37-.03,.27,.19-1.04,2.29-1.28,5.03-.7,7.55,.26,1.11,.66,2.17,1.2,3.11,.26,.45,.55,.88,.86,1.27,.34,.43,.81,.78,1.08,1.28,.23,.43-.16,1.04-.54,.88-.5-.2-.91-.79-1.25-1.27-.36-.49-.69-1.02-.96-1.59-.27-.55-.5-1.13-.69-1.73-1.37,1.41-2.66,2.94-3.91,4.51,1.56,3.08,3.26,6.06,5.06,8.93,1.64-1.69,3.65-3,5.74-3.51-.34-.29-.67-.62-.95-.99-.65-.85-1.07-1.85-1.38-2.95-.06-.2,.21-.34,.28-.14,.34,.96,.93,1.78,1.59,2.43,.24,.23,.5,.43,.77,.62,.05-.04,.11-.08,.18-.11,5.2-1.55,10.11-4.44,14.44-8.36,4.3-3.89,8.06-8.7,10.97-14.26,1.65-3.15,3.09-6.52,4.13-10.06,.08-.28,.44-.17,.36,.12-.88,3.22-1.95,6.34-3.32,9.28-1.37,2.95-2.99,5.72-4.79,8.29-3.59,5.12-7.97,9.32-12.84,12.34-2.42,1.5-4.96,2.71-7.56,3.59,.15,.15,.23,.39,.18,.64-.07,.33-.34,.52-.6,.44-.21-.06-.42-.16-.63-.28-.03,.16-.12,.31-.29,.36-1.12,.34-2.18,.74-3.21,1.39-1.02,.64-1.95,1.44-2.8,2.39-.17,.19-.49,.25-.65,0-2.03-3.18-3.82-6.56-5.4-10.11-.18-.22-.25-.59-.02-.87Z"/>
          </g>
          <path class="cls-8" d="M133.87,348.98c-.09-.47,.06-.99,.35-1.3,.22-.24,.55-.31,.83-.22,.05,0,.1,.02,.16,.04,.72-.86,1.81-1.35,2.72-1.64,1.27-.41,2.6-.52,3.84-1.04,1.98-.81,3.53-2.82,4.22-5.26,.4-1.39,.56-2.9,.34-4.37-.04-.26,.27-.29,.32-.05,.51,2.62-.02,5.34-1.3,7.49-.63,1.06-1.44,1.95-2.38,2.56-1.17,.76-2.5,.99-3.77,1.28-.71,.17-1.42,.36-2.1,.7-.48,.24-.86,.57-1.24,.94,.05,.12,.09,.24,.11,.37,.08,.46-.06,.94-.33,1.25-.25,.29-.65,.39-.98,.28-.18-.06-.35-.15-.48-.31-.17-.2-.27-.43-.32-.71Z"/>
          <path class="cls-8" d="M134.26,356.18c0-1.25-.05-2.5-.14-3.74-.08-1.21-.2-2.43-.41-3.63-.21-1.22-.47-2.42-.74-3.62-.09-.42-.59-.25-.52,.17,.38,2.37,.54,4.82,.68,7.23,.05,.87,.08,1.75,.09,2.62-.05-.21-.1-.42-.16-.63-.25-.9-.55-1.76-.89-2.61-.36-.87-.81-1.64-1.24-2.45-.15-.29-.5-.05-.37,.27,.33,.83,.57,1.72,.83,2.58,.27,.85,.5,1.72,.73,2.6,.22,.85,.42,1.72,.58,2.59,.08,.46,.16,.92,.22,1.39,.06,.46,.11,.91,.38,1.27,.15,.2,.45,.15,.55-.09,.02-.04,.02-.08,.04-.12,.05-.05,.1-.12,.12-.2,.3-1.16,.26-2.41,.26-3.62Z"/>
          <path class="cls-8" d="M122.72,356.38c-3.11,1.65-6.71,1.98-9.92,.56-2.89-1.28-5.48-4.37-5.64-8.39-.08-2.07,.49-4.26,1.7-5.7,.2-.24-.07-.73-.31-.51-1.34,1.24-2.18,3.1-2.35,5.18-.18,2.13,.37,4.29,1.33,6.03,2.09,3.8,5.87,5.53,9.44,5.55,2.15,.01,4.24-.59,6.14-1.85,.47-.31,.07-1.12-.4-.87Z"/>
          <g>
            <g>
              <path class="cls-6" d="M174.85,313.21l-8.76,4.02c-.51,.23-1.07-.09-1.25-.73l-3.53-12.07c-.19-.63,.07-1.33,.58-1.57l8.76-4.02c.51-.23,1.07,.09,1.25,.73l3.53,12.07c.19,.63-.07,1.33-.58,1.57Z"/>
              <g>
                <path class="cls-11" d="M170.61,314.73c1.22-.76,1.79-2.55,1.32-4.15l-2.15-7.35c-.25-.84-.74-1.51-1.39-1.89-.65-.38-1.38-.41-2.05-.11l-2.46,1.13c-.09,.04-.19,.09-.27,.15-1.22,.76-1.79,2.55-1.32,4.15l2.15,7.35c.25,.84,.74,1.51,1.39,1.89,.65,.38,1.38,.41,2.05,.11l2.46-1.13c.09-.04,.19-.09,.27-.15h0Z"/>
                <path class="cls-14" d="M163.75,302.85c.08-.05,.16-.09,.24-.13l2.46-1.13c1.23-.56,2.59,.23,3.04,1.77l2.15,7.35c.42,1.42-.09,3.01-1.17,3.68-.08,.05-.16,.09-.24,.13l-2.46,1.13c-.59,.27-1.24,.24-1.81-.09-.57-.33-1.01-.93-1.23-1.67l-2.15-7.35c-.42-1.42,.09-3.01,1.17-3.68m-.27-.69c-1.34,.84-2,2.82-1.47,4.63l2.15,7.35c.57,1.94,2.28,2.93,3.83,2.22l2.46-1.13c.11-.05,.21-.1,.3-.16,1.34-.84,2-2.82,1.47-4.63l-2.15-7.35c-.57-1.94-2.28-2.93-3.83-2.22l-2.46,1.13c-.11,.05-.21,.1-.3,.16h0Z"/>
              </g>
            </g>
            <g>
              <path class="cls-58" d="M161.14,315.54l-.59,5.47-.68,6.29-.29,3.3c-.32,3.64-2.86,6.34-5.78,6.16h0c-2.95-.18-5.26-3.23-5.26-6.92v-19.66s12.61,5.36,12.61,5.36Z"/>
              <path class="cls-14" d="M160.68,319.89l-.69,6.27c-5.22,1.23-8.44-5.61-9.09-11.97,2.51-.53,8.87,5,9.78,5.7Z"/>
            </g>
            <g>
              <g>
                <g>
                  <path class="cls-30" d="M162.36,293.48c-1.31-1.2-2.91-1.69-4.6-1.64-4.3,.1-9.17,3.64-11.13,7.64-2.87,5.84-1.68,12.59,1.53,17.52,1.47,2.27,3.37,4.16,5.49,5.38,3.72,2.15,8.44,2.42,11.64-.79,2.31-2.31,3.48-6.11,3.54-9.82,.11-6.27-2.32-14.46-6.47-18.29Z"/>
                  <path class="cls-14" d="M148.24,310.52c4.7-.42-1.19-9.11-1.19-9.11,0,0,10.72,1.9,7.78-6.73l-2.82-1.99s-14.29,5.74-6.05,22.15l2.43-.72-.15-3.6Z"/>
                  <path class="cls-12" d="M164.35,304.75c.29,.7,.16,1.52-.28,1.83-.44,.32-1.03,0-1.31-.69-.29-.7-.16-1.52,.28-1.83,.44-.32,1.03,0,1.31,.69Z"/>
                  <path class="cls-12" d="M157.4,308.49c.29,.7,.16,1.52-.28,1.83-.44,.32-1.03,0-1.31-.69-.29-.7-.16-1.52,.27-1.83,.44-.32,1.03,0,1.31,.69Z"/>
                  <path class="cls-14" d="M163.39,308.52c-1-1.54-2.07-3-3.14-4.46-.1-.14-.29,.03-.19,.18,.8,1.27,1.6,2.52,2.44,3.75,.41,.59,.92,1.2,1.13,1.96,.17,.63-.04,1.24-.33,1.75-.07,.13,0,.34,.14,.31,.49-.1,.76-.76,.76-1.34-.01-.83-.41-1.55-.81-2.16Z"/>
                  <path class="cls-12" d="M150.31,317.2l-3.43-3.18,.26-.66c.32-.94,.68-1.89,1.09-2.84,1.99,2.73,2.08,6.68,2.08,6.68Z"/>
                  <path class="cls-14" d="M154.82,294.68c6.84,2.39,7.54-1.2,7.54-1.2l2.73,3.5c3.71-5.43-3.29-18.42-9.28-8.41-2.76-7.4-12.2,.3-11.82,10.45-6.74,.78-9.5,14.1,2.99,17.58,0,0-5.64-15.07,.57-19.55,2.69-1.94,7.27-2.37,7.27-2.37Z"/>
                  <path class="cls-10" d="M145.41,312.93c-1.08-.15-2.3,.38-2.8,1.59-.42,1.01-.27,2.25,.06,3.31,.43,1.37,1.17,2.6,2.17,3.36,1,.76,2.28,1,3.37,.49,1.1-.51,1.96-1.82,2.04-3.29,.14-2.81-2.89-5.2-4.84-5.47Z"/>
                  <path class="cls-12" d="M148.7,317.87c-.55-.53-1.21-.9-1.9-.99-.32-.05-.63-.06-.95-.02-.32,.04-.63,.17-.94,.25-.2,.05-.17,.48,.04,.46,.14-.01,.27-.02,.42,.01,.14,.03,.28,.08,.42,.12,.14,.04,.28,.09,.43,.14,.07,.02,.14,.05,.2,.08,.07,.03,.16,.06,.22,.11-.02,0-.03-.02-.05-.03,.02,.01,.05,.03,.07,.04,.06,.03,.12,.07,.18,.1,.04,.02,.07,.04,.11,.06,0,0,0,0,0,0,.14,.05,.28,.17,.4,.26,.26,.19,.51,.39,.74,.63,.11,.11,.31,.13,.44,.09,.14-.04,.28-.17,.35-.32,.17-.37,.07-.75-.18-1Z"/>
                </g>
                <path class="cls-12" d="M164.07,296.33c2.32,1.99-3.75,4.61-3.99,2.28-.18-1.74,3.02-3.12,3.99-2.28Z"/>
                <path class="cls-12" d="M150.89,305.53c-.5-1.46,2.21-3.31,3.1-3.2,2.51,.32-2.15,6.01-3.1,3.2Z"/>
              </g>
              <path class="cls-6" d="M157.5,314.39c.08-.54,3.82-.8,4.23-.24,.26,.36-.46,2.34-2.06,2.4-1.32,.05-2.27-1.52-2.18-2.15Z"/>
            </g>
            <g>
              <path class="cls-6" d="M153.82,313.8l14.94-6.54c2.93-1.29,4.43-5.49,3.34-9.37h0c-1.09-3.89-4.35-5.99-7.29-4.71l-14.94,6.54c-2.93,1.29-4.43,5.49-3.34,9.37h0c1.09,3.89,4.35,5.99,7.29,4.71Z"/>
              <path class="cls-14" d="M153.29,299.08c.16-.1,1.06-.54,1.72-.78l10.88-4.58c1.99-.91,4.67,.94,5.64,4.43,.9,3.22-.06,6.68-2.25,8.04-.16,.1-.32,.19-.49,.26l-11.46,5.01c-1.19,.52-2.5,.37-3.68-.43-1.2-.82-2.12-2.2-2.6-3.9-.9-3.22,.06-6.68,2.25-8.04h0m-.27-.69c-2.43,1.51-3.57,5.36-2.55,8.98,1.09,3.89,4.25,6.04,7.06,4.8l11.47-5.01c.19-.09,.38-.18,.56-.3,2.43-1.51,3.57-5.36,2.55-8.98h0c-1.09-3.89-4.25-6.04-7.06-4.8l-11.47,5.01c-.19,.09-.38,.18-.56,.3h0Z"/>
              <path class="cls-11" d="M168.04,304.7l-4.77,2.09-1.59,.7-.68,.3-2.79,1.22-.15,.07c-.21,.09-.42,.16-.62,.2-1.79,.38-3.59-.9-4.21-3.11-.69-2.48,.34-5.19,2.32-6.06l5.05-2.21,2.78-1.22,.68-.3,1.46-.64s.08-.03,.13-.05c.17-.07,.33-.12,.5-.16,1.79-.38,3.59,.9,4.21,3.11,.69,2.47-.34,5.18-2.32,6.05Z"/>
              <g>
                <polygon class="cls-6" points="163.63 295.8 160.88 308.6 157.67 310 160.42 297.2 163.63 295.8"/>
                <path class="cls-6" d="M166.24,294.66l-2.75,12.79-1.84,.8,2.75-12.8,1.69-.74s.1-.04,.15-.05Z"/>
              </g>
              <path class="cls-7" d="M166.85,301.37l-8.29,3.62c-.51,.22-1.06-.11-1.24-.75h0c-.18-.63,.09-1.33,.6-1.55l8.29-3.62c.51-.22,1.06,.11,1.24,.75h0c.18,.63-.09,1.33-.6,1.55Z"/>
            </g>
            <g>
              <path class="cls-6" d="M153.3,321.76l-8.56,4.65c-.49,.27-1.07-.02-1.28-.63l-4.09-11.8c-.21-.62,.01-1.34,.51-1.6l8.56-4.65c.49-.27,1.07,.02,1.28,.63l4.09,11.8c.21,.62-.01,1.34-.51,1.6Z"/>
              <g>
                <path class="cls-6" d="M148.99,323.67c1.28-.79,1.83-2.7,1.26-4.34l-2.49-7.18c-.29-.82-.81-1.45-1.47-1.78-.67-.33-1.39-.31-2.05,.04l-2.4,1.3s-.09,.05-.13,.07c-1.28,.79-1.83,2.7-1.26,4.34l2.49,7.18c.28,.82,.81,1.45,1.47,1.78,.67,.33,1.39,.31,2.05-.04l2.4-1.3s.09-.05,.13-.07Z"/>
                <path class="cls-14" d="M141.85,312.14s.07-.05,.11-.07l2.4-1.3c1.2-.65,2.6,.04,3.12,1.54l2.49,7.18c.5,1.45,.01,3.14-1.12,3.84-.04,.02-.07,.04-.11,.07l-2.4,1.3c-.58,.32-1.23,.33-1.82,.04-.59-.29-1.05-.85-1.31-1.58l-2.49-7.18c-.5-1.45-.01-3.14,1.12-3.84m-.27-.69c-1.41,.88-2.04,3-1.41,4.83l2.49,7.18c.66,1.89,2.41,2.76,3.92,1.94l2.4-1.3s.1-.05,.14-.08c1.41-.88,2.04-3,1.41-4.83l-2.49-7.18c-.66-1.89-2.41-2.76-3.93-1.94l-2.4,1.3s-.1,.05-.14,.08h0Z"/>
              </g>
              <path class="cls-11" d="M142.23,314.31l3.26-1.77c.19-.1,.41,0,.49,.24l2.69,7.77c.08,.24,0,.51-.19,.61l-3.26,1.77c-.19,.1-.41,0-.49-.24l-2.69-7.77c-.08-.24,0-.51,.19-.61Z"/>
            </g>
          </g>
          <g>
            <g>
              <path class="cls-60" d="M144.45,313.86c1.4,9.74,2.09,15.15-4.38,18.52l-3.84-13.4,8.23-5.12Z"/>
              <path class="cls-62" d="M144.68,301.89l-5.38,1.63c-.49,.15-.9,.57-1.1,1.15l-2.41,10.02c-.27,1.13-.22,2.35,.15,3.44l4.37,12.89c.21-1.77,3.29-2.53,3.95-7.05,1.01-4.76-2.85-13.49-2.85-13.49v-3.83s3.99-2.41,3.99-2.41c.44-.26,.68-.89,.53-1.51-.15-.65-.72-1-1.25-.84Z"/>
              <path class="cls-61" d="M141.14,309.23c2.44-1.1,3.83-1.26,4.23-1.11,.3,.11,2.4,1.61,3.46,2.37,.36,.26,.52,.78,.41,1.27h0c-.13,.56-.58,.9-1.04,.77l-2.72-.94-3.77,1.18-.57-3.55Z"/>
              <path class="cls-59" d="M141.58,312.57c3.05-.79,5.6,.27,5.87,.59,.18,.22,1.13,1.79,1.73,2.78,.27,.46,.2,1.1-.16,1.45h0c-.32,.31-.77,.29-1.06-.05l-1.17-1.31c-.17-.2-.41-.28-.64-.21l-2.53,.68-2.02-3.94Z"/>
              <path class="cls-55" d="M144.04,316.13c1.81,.36,3.33,1.13,3.56,1.51,.15,.25,.89,1.98,1.36,3.08,.21,.5,.06,1.13-.34,1.4h0c-.35,.24-.79,.13-1.05-.25l-.99-1.52c-.15-.23-.37-.35-.61-.34l-2.59,.18,.65-4.06Z"/>
              <path class="cls-14" d="M140.45,309.35c-.36-.02-.67,.04-1.01,.22-.34,.18-.64,.41-.93,.7-.56,.56-1.06,1.14-1.47,1.88-.07,.13,.1,.28,.18,.16,.42-.65,.92-1.25,1.51-1.64,.28-.19,.58-.36,.87-.53,.31-.19,.6-.37,.88-.6,.07-.05,.03-.17-.04-.17Z"/>
            </g>
            <path class="cls-54" d="M143.3,330.04c-5.49,8.42-25.05,32.91-33.27,26.17-.14-.12-.28-.24-.41-.36-4.54-4.26-3.12-13.29,2.3-15.42,5.78-2.27,19.1-8.27,26.57-15.76l4.81,5.36Z"/>
          </g>
        </g>
      </g>
      <g>
        <path class="cls-5" d="M107.52,64.63c-2.33,0-2.33,3.44,0,3.44s2.33-3.44,0-3.44Z"/>
        <path class="cls-5" d="M125.39,245.32c-2.33,0-2.33,3.44,0,3.44s2.33-3.44,0-3.44Z"/>
        <path class="cls-5" d="M627.92,58.25c-2.33,0-2.33,3.44,0,3.44s2.33-3.44,0-3.44Z"/>
        <path class="cls-5" d="M648.89,257.67c-2.33,0-2.33,3.44,0,3.44s2.33-3.44,0-3.44Z"/>
        <path class="cls-5" d="M230.35,406.97c-2.33,0-2.33,3.44,0,3.44s2.33-3.44,0-3.44Z"/>
        <path class="cls-5" d="M371.86,91.1c-2.33,0-2.33,3.44,0,3.44s2.33-3.44,0-3.44Z"/>
        <path class="cls-5" d="M585.79,402.13c-2.33,0-2.33,3.44,0,3.44s2.33-3.44,0-3.44Z"/>
        <polygon class="cls-34" points="418.89 97.76 416.85 104.07 416.14 97.32 409.79 95.41 415.51 95.15 414.28 87.84 418.31 93.97 423.84 89.49 420.2 95.61 424.82 98.72 418.89 97.76"/>
        <polygon class="cls-35" points="288.18 139.41 281.75 141.86 286.81 137.1 284.37 131.2 288.19 135.26 293.38 129.75 290.91 136.58 298.05 137.85 290.77 139.02 291.14 144.39 288.18 139.41"/>
        <polygon class="cls-65" points="565.82 267.43 567.86 273.74 568.57 266.99 574.92 265.08 569.2 264.82 570.43 257.51 566.4 263.64 560.87 259.16 564.51 265.28 559.89 268.38 565.82 267.43"/>
        <polygon class="cls-66" points="203.59 273.29 201.55 279.59 200.85 272.85 194.49 270.94 200.22 270.68 198.98 263.37 203.01 269.5 208.54 265.02 204.91 271.14 209.52 274.24 203.59 273.29"/>
      </g>
    </g>
  </g>
</svg>