<?xml version="1.0" encoding="UTF-8"?>
<svg xmlns="http://www.w3.org/2000/svg" xmlns:xlink="http://www.w3.org/1999/xlink" viewBox="0 0 750 500">
  <defs>
    <style>
      .cls-1 {
        fill: url(#linear-gradient);
      }

      .cls-2 {
        fill: #ebf8f4;
      }

      .cls-3 {
        fill: url(#linear-gradient-3);
      }

      .cls-4 {
        fill: url(#linear-gradient-5);
      }

      .cls-5 {
        fill: url(#Degradado_sin_nombre_13);
      }

      .cls-6 {
        fill: url(#Degradado_sin_nombre_12);
      }

      .cls-7 {
        fill: url(#linear-gradient-4);
      }

      .cls-7, .cls-8 {
        opacity: .78;
      }

      .cls-7, .cls-8, .cls-9 {
        mix-blend-mode: overlay;
      }

      .cls-8 {
        fill: url(#linear-gradient-2);
      }

      .cls-10 {
        isolation: isolate;
      }

      .cls-11 {
        fill: url(#Degradado_sin_nombre_12-2);
      }

      .cls-12 {
        fill: url(#Degradado_sin_nombre_12-3);
      }

      .cls-9 {
        fill: #f9fafd;
        opacity: .32;
      }
    </style>
    <linearGradient id="linear-gradient" x1="-2.15" y1="591.16" x2="749.11" y2="591.16" gradientUnits="userSpaceOnUse">
      <stop offset="0" stop-color="#201a4a"/>
      <stop offset=".67" stop-color="#020318"/>
    </linearGradient>
    <linearGradient id="Degradado_sin_nombre_13" data-name="Degradado sin nombre 13" x1="372.21" y1="60.12" x2="348.72" y2="76.44" gradientUnits="userSpaceOnUse">
      <stop offset="0" stop-color="#cd5113"/>
      <stop offset=".27" stop-color="#d77529"/>
      <stop offset=".54" stop-color="#df933b"/>
      <stop offset=".77" stop-color="#e5a646"/>
      <stop offset=".93" stop-color="#e7ad4b"/>
    </linearGradient>
    <linearGradient id="Degradado_sin_nombre_12" data-name="Degradado sin nombre 12" x1="202.52" y1="144.41" x2="220.14" y2="133.68" gradientTransform="translate(197.52 -138.87) rotate(50.96)" gradientUnits="userSpaceOnUse">
      <stop offset="0" stop-color="#cd5113"/>
      <stop offset=".45" stop-color="#da8130"/>
      <stop offset=".8" stop-color="#e3a143"/>
      <stop offset="1" stop-color="#e7ad4b"/>
    </linearGradient>
    <linearGradient id="Degradado_sin_nombre_12-2" data-name="Degradado sin nombre 12" x1="620.96" y1="249.82" x2="638.53" y2="239.12" gradientTransform="translate(1137.73) rotate(-180) scale(1 -1)" xlink:href="#Degradado_sin_nombre_12"/>
    <linearGradient id="Degradado_sin_nombre_12-3" data-name="Degradado sin nombre 12" x1="126.63" y1="255.67" x2="144.21" y2="244.98" gradientTransform="matrix(1, 0, 0, 1, 0, 0)" xlink:href="#Degradado_sin_nombre_12"/>
    <linearGradient id="linear-gradient-2" x1="560.94" y1="631.33" x2="682.32" y2="630.27" gradientTransform="translate(1309.04 677.42) rotate(-180)" gradientUnits="userSpaceOnUse">
      <stop offset="0" stop-color="#fdfcff" stop-opacity="0"/>
      <stop offset="1" stop-color="#fff"/>
    </linearGradient>
    <linearGradient id="linear-gradient-3" x1="561.61" y1="631.14" x2="638.54" y2="630.47" gradientTransform="translate(1309.04 677.42) rotate(-180)" gradientUnits="userSpaceOnUse">
      <stop offset="0" stop-color="#cd5113"/>
      <stop offset="1" stop-color="#e7ad4b"/>
    </linearGradient>
    <linearGradient id="linear-gradient-4" x1="560.94" y1="613.19" x2="682.32" y2="612.12" xlink:href="#linear-gradient-2"/>
    <linearGradient id="linear-gradient-5" x1="561.27" y1="613.1" x2="660.9" y2="612.22" gradientTransform="translate(1309.04 677.42) rotate(-180)" gradientUnits="userSpaceOnUse">
      <stop offset="0" stop-color="#3650ae"/>
      <stop offset="1" stop-color="#8fffff"/>
    </linearGradient>
  </defs>
  <g class="cls-10">
    <g id="OBJECTS">
      <rect class="cls-1" x="-2.15" y="-498.61" width="751.26" height="2179.54"/>
      <path class="cls-9" d="M-2.09,52.43C44.99,33.61,86.01-5.57,110.48-56.05c5.71-11.78,10.55-26.47,4.99-38.35-5.67-12.11-19.18-15.19-30.96-16.83-11.78-1.64-25.26-4.39-31.27-16.28-5.5-10.87-2.26-24.53-.17-36.9,2.09-12.37,1.75-27.79-7.51-34.34-7.67-5.42-17.58-1.85-25.69,2.62-7.64,4.21-14.98,9.14-21.96,14.69V52.43Z"/>
      <path class="cls-9" d="M20.83,839.03c-5.87-25.88-6.83-52.87-2.82-79.11,1.69-11.05,4.39-22.3,10.88-31.4,6.49-9.11,17.5-15.7,28.58-14.2,11.14,1.51,19.58,10.35,28.34,17.39s21.03,12.78,30.88,7.36c5.88-3.24,9.29-9.88,10.14-16.53,.85-6.66-.51-13.39-2.2-19.88-8.98-34.45-27.15-65.72-45.99-95.92-18.84-30.21-38.69-60.14-51.59-93.32-12.91-33.18-18.45-70.52-7.76-104.48H-2.09s0,433.75,0,433.75l22.92-3.65Z"/>
      <path class="cls-9" d="M749.21,48.53c-47.09,16.19-88.1,49.89-112.58,93.31-5.71,10.13-10.55,22.77-4.99,32.98,5.67,10.42,19.18,13.06,30.96,14.47,11.78,1.41,25.26,3.77,31.27,14,5.5,9.35,2.26,21.1,.17,31.74-2.09,10.64-1.75,23.9,7.51,29.54,7.67,4.67,17.58,1.59,25.69-2.25,7.64-3.62,14.98-7.86,21.96-12.64V48.53Z"/>
      <g>
        <path class="cls-2" d="M44.51,42.35c-2.33,0-2.33,3.44,0,3.44s2.33-3.44,0-3.44Z"/>
        <path class="cls-2" d="M62.39,223.05c-2.33,0-2.33,3.44,0,3.44s2.33-3.44,0-3.44Z"/>
        <path class="cls-2" d="M564.92,35.98c-2.33,0-2.33,3.44,0,3.44s2.33-3.44,0-3.44Z"/>
        <path class="cls-2" d="M585.88,235.4c-2.33,0-2.33,3.44,0,3.44s2.33-3.44,0-3.44Z"/>
        <path class="cls-2" d="M167.34,384.7c-2.33,0-2.33,3.44,0,3.44s2.33-3.44,0-3.44Z"/>
        <path class="cls-2" d="M308.86,68.83c-2.33,0-2.33,3.44,0,3.44s2.33-3.44,0-3.44Z"/>
        <path class="cls-2" d="M522.79,379.85c-2.33,0-2.33,3.44,0,3.44s2.33-3.44,0-3.44Z"/>
        <polygon class="cls-5" points="355.89 75.49 353.84 81.79 353.14 75.05 346.78 73.14 352.51 72.88 351.28 65.56 355.3 71.7 360.83 67.22 357.2 73.34 361.81 76.44 355.89 75.49"/>
        <polygon class="cls-6" points="225.18 117.13 218.74 119.59 223.81 114.82 221.36 108.92 225.18 112.99 230.37 107.47 227.91 114.31 235.05 115.58 227.76 116.74 228.13 122.11 225.18 117.13"/>
        <polygon class="cls-11" points="502.81 245.16 504.86 251.46 505.56 244.72 511.91 242.81 506.19 242.55 507.42 235.23 503.39 241.36 497.86 236.88 501.5 243 496.88 246.11 502.81 245.16"/>
        <polygon class="cls-12" points="140.59 251.02 138.54 257.32 137.84 250.58 131.48 248.67 137.21 248.41 135.98 241.09 140 247.22 145.54 242.74 141.9 248.86 146.52 251.97 140.59 251.02"/>
      </g>
      <g>
        <path class="cls-8" d="M636.13,41.92h106.14c2.21,0,4,2.1,4,4.69h0c0,2.59-1.79,4.69-4,4.69h-106.14c-2.21,0-4-2.1-4-4.69h0c0-2.59,1.79-4.69,4-4.69Z"/>
        <path class="cls-3" d="M677.93,41.92h64.33c2.21,0,4,2.1,4,4.69h0c0,2.59-1.79,4.69-4,4.69h-64.33c-2.21,0-4-2.1-4-4.69h0c0-2.59,1.79-4.69,4-4.69Z"/>
        <path class="cls-7" d="M636.13,60.06h106.14c2.21,0,4,2.1,4,4.69h0c0,2.59-1.79,4.69-4,4.69h-106.14c-2.21,0-4-2.1-4-4.69h0c0-2.59,1.79-4.69,4-4.69Z"/>
        <path class="cls-4" d="M656.58,60.06h85.69c2.21,0,4,2.1,4,4.69h0c0,2.59-1.79,4.69-4,4.69h-85.69c-2.21,0-4-2.1-4-4.69h0c0-2.59,1.79-4.69,4-4.69Z"/>
      </g>
    </g>
  </g>
</svg>