<?xml version="1.0" encoding="UTF-8"?>
<svg xmlns="http://www.w3.org/2000/svg" xmlns:xlink="http://www.w3.org/1999/xlink" viewBox="0 0 750 500">
  <defs>
    <style>
      .cls-1 {
        fill: url(#linear-gradient);
      }

      .cls-2 {
        fill: #ebf8f4;
      }

      .cls-3 {
        fill: #ff2585;
      }

      .cls-4 {
        fill: #fff;
      }

      .cls-5 {
        fill: #b30957;
      }

      .cls-6 {
        fill: url(#linear-gradient-3);
      }

      .cls-7 {
        fill: url(#linear-gradient-5);
      }

      .cls-8 {
        fill: url(#Degradado_sin_nombre_13);
      }

      .cls-9 {
        fill: url(#Degradado_sin_nombre_12);
      }

      .cls-10 {
        opacity: .5;
      }

      .cls-11 {
        fill: url(#linear-gradient-4);
      }

      .cls-11, .cls-12 {
        opacity: .78;
      }

      .cls-11, .cls-12, .cls-13 {
        mix-blend-mode: overlay;
      }

      .cls-12 {
        fill: url(#linear-gradient-2);
      }

      .cls-14 {
        isolation: isolate;
      }

      .cls-15 {
        fill: url(#Degradado_sin_nombre_12-2);
      }

      .cls-16 {
        fill: url(#Degradado_sin_nombre_12-3);
      }

      .cls-13 {
        fill: #f9fafd;
        opacity: .32;
      }
    </style>
    <linearGradient id="linear-gradient" x1="1.91" y1="100.66" x2="753.17" y2="100.66" gradientUnits="userSpaceOnUse">
      <stop offset="0" stop-color="#201a4a"/>
      <stop offset=".67" stop-color="#020318"/>
    </linearGradient>
    <linearGradient id="Degradado_sin_nombre_13" data-name="Degradado sin nombre 13" x1="447.81" y1="201.23" x2="424.46" y2="217.44" gradientUnits="userSpaceOnUse">
      <stop offset="0" stop-color="#cd5113"/>
      <stop offset=".27" stop-color="#d77529"/>
      <stop offset=".54" stop-color="#df933b"/>
      <stop offset=".77" stop-color="#e5a646"/>
      <stop offset=".93" stop-color="#e7ad4b"/>
    </linearGradient>
    <linearGradient id="Degradado_sin_nombre_12" data-name="Degradado sin nombre 12" x1="360.14" y1="173.56" x2="377.66" y2="162.9" gradientTransform="translate(197.52 -138.87) rotate(50.96)" gradientUnits="userSpaceOnUse">
      <stop offset="0" stop-color="#cd5113"/>
      <stop offset=".45" stop-color="#da8130"/>
      <stop offset=".8" stop-color="#e3a143"/>
      <stop offset="1" stop-color="#e7ad4b"/>
    </linearGradient>
    <linearGradient id="Degradado_sin_nombre_12-2" data-name="Degradado sin nombre 12" x1="546.3" y1="389.69" x2="563.76" y2="379.06" gradientTransform="translate(1137.73) rotate(-180) scale(1 -1)" xlink:href="#Degradado_sin_nombre_12"/>
    <linearGradient id="Degradado_sin_nombre_12-3" data-name="Degradado sin nombre 12" x1="203.82" y1="395.51" x2="221.28" y2="384.88" gradientTransform="matrix(1, 0, 0, 1, 0, 0)" xlink:href="#Degradado_sin_nombre_12"/>
    <linearGradient id="linear-gradient-2" x1="2336.27" y1="-2370" x2="2456.86" y2="-2371.06" gradientTransform="translate(-2333.82 2694.61)" gradientUnits="userSpaceOnUse">
      <stop offset="0" stop-color="#fdfcff" stop-opacity="0"/>
      <stop offset="1" stop-color="#fff"/>
    </linearGradient>
    <linearGradient id="linear-gradient-3" x1="2336.94" y1="-2370.19" x2="2413.36" y2="-2370.86" gradientTransform="translate(-2333.82 2694.61)" gradientUnits="userSpaceOnUse">
      <stop offset="0" stop-color="#cd5113"/>
      <stop offset="1" stop-color="#e7ad4b"/>
    </linearGradient>
    <linearGradient id="linear-gradient-4" x1="2336.27" y1="-2388.02" x2="2456.86" y2="-2389.08" xlink:href="#linear-gradient-2"/>
    <linearGradient id="linear-gradient-5" x1="2336.6" y1="-2388.12" x2="2435.58" y2="-2388.99" gradientTransform="translate(-2333.82 2694.61)" gradientUnits="userSpaceOnUse">
      <stop offset="0" stop-color="#3650ae"/>
      <stop offset="1" stop-color="#8fffff"/>
    </linearGradient>
  </defs>
  <g class="cls-14">
    <g id="OBJECTS">
      <rect class="cls-1" x="1.91" y="-989.11" width="751.26" height="2179.54"/>
      <path class="cls-13" d="M24.89,348.53c-5.87-25.88-6.83-52.87-2.82-79.11,1.69-11.05,4.39-22.3,10.88-31.4,6.49-9.11,17.5-15.7,28.58-14.2,11.14,1.51,19.58,10.35,28.34,17.39s21.03,12.78,30.88,7.36c5.88-3.24,9.29-9.88,10.14-16.53,.85-6.66-.51-13.39-2.2-19.88-8.98-34.45-27.15-65.72-45.99-95.92C63.86,86.02,44.01,56.09,31.1,22.91,18.2-10.27,12.66-47.6,23.34-81.56H1.97s0,433.75,0,433.75l22.92-3.65Z"/>
      <path class="cls-13" d="M518.83,382.16c14.07,37.17,42.36,68.74,77.77,86.78,12.71,6.48,28.74,11.04,40.66,3.21,6.96-4.57,11.02-12.68,12.22-20.92,1.2-8.23-.16-16.63-2.17-24.71-3.86-15.52-10.1-30.35-14.6-45.69-4.51-15.35-7.27-31.67-3.99-47.32,3.29-15.65,13.58-30.54,28.68-35.83,8.53-2.99,18.15-2.87,26-7.36,11.57-6.62,15.91-21.46,15.25-34.77-1.41-28.24-20.52-53.2-44.06-68.88-23.53-15.68-51.23-23.63-78.43-31.35h163.31v214.39c-8.46-3.32-17.18-6.97-26.24-7.62-9.07-.65-18.82,1.83-24.9,8.59-7.42,8.24-7.77,20.57-6.49,31.58,2.22,19.07,8.05,37.52,11.6,56.39,3.55,18.87,4.7,38.9-2.2,56.81-6.91,17.92-23.48,33.13-42.67,33.61-21.22,.53-38.73-15.89-52.47-32.07-34.41-40.52-58.39-85.12-77.25-134.82Z"/>
      <g>
        <path class="cls-2" d="M122.23,183.58c-2.31,0-2.32,3.42,0,3.42s2.32-3.42,0-3.42Z"/>
        <path class="cls-2" d="M139.99,363.1c-2.31,0-2.32,3.42,0,3.42s2.32-3.42,0-3.42Z"/>
        <path class="cls-2" d="M639.26,177.24c-2.31,0-2.32,3.42,0,3.42s2.32-3.42,0-3.42Z"/>
        <path class="cls-2" d="M660.09,375.37c-2.31,0-2.32,3.42,0,3.42s2.32-3.42,0-3.42Z"/>
        <path class="cls-2" d="M384.86,209.88c-2.31,0-2.32,3.42,0,3.42s2.32-3.42,0-3.42Z"/>
        <polygon class="cls-8" points="431.59 216.5 429.55 222.76 428.86 216.06 422.54 214.16 428.23 213.9 427.01 206.64 431.01 212.73 436.5 208.28 432.89 214.36 437.48 217.44 431.59 216.5"/>
        <polygon class="cls-9" points="301.73 257.87 295.34 260.31 300.37 255.58 297.94 249.71 301.73 253.75 306.89 248.27 304.44 255.07 311.53 256.33 304.29 257.48 304.67 262.82 301.73 257.87"/>
        <polygon class="cls-15" points="577.56 385.07 579.59 391.33 580.29 384.63 586.6 382.73 580.91 382.47 582.14 375.2 578.14 381.3 572.64 376.84 576.26 382.92 571.67 386.01 577.56 385.07"/>
        <polygon class="cls-16" points="217.69 390.89 215.65 397.15 214.96 390.45 208.64 388.55 214.33 388.29 213.11 381.03 217.11 387.12 222.6 382.67 218.99 388.75 223.58 391.83 217.69 390.89"/>
      </g>
      <g>
        <path class="cls-12" d="M113.69,328.76H8.24c-2.2,0-3.98-2.09-3.98-4.66h0c0-2.57,1.78-4.66,3.98-4.66H113.69c2.2,0,3.98,2.09,3.98,4.66h0c0,2.57-1.78,4.66-3.98,4.66Z"/>
        <path class="cls-6" d="M72.16,328.76H8.24c-2.2,0-3.98-2.09-3.98-4.66h0c0-2.57,1.78-4.66,3.98-4.66h63.92c2.2,0,3.98,2.09,3.98,4.66h0c0,2.57-1.78,4.66-3.98,4.66Z"/>
        <path class="cls-11" d="M113.69,310.73H8.24c-2.2,0-3.98-2.09-3.98-4.66h0c0-2.57,1.78-4.66,3.98-4.66H113.69c2.2,0,3.98,2.09,3.98,4.66h0c0,2.57-1.78,4.66-3.98,4.66Z"/>
        <path class="cls-7" d="M93.38,310.73H8.24c-2.2,0-3.98-2.09-3.98-4.66h0c0-2.57,1.78-4.66,3.98-4.66H93.38c2.2,0,3.98,2.09,3.98,4.66h0c0,2.57-1.78,4.66-3.98,4.66Z"/>
      </g>
      <g class="cls-10">
        <circle class="cls-3" cx="641.4" cy="75.43" r="59.97" transform="translate(24.37 266.09) rotate(-23.88)"/>
        <path class="cls-4" d="M585.89,98.57c-20.56-50.42,28.4-100.61,79.41-81.18,32.18,12.36,48.02,50.38,34.14,81.93-22.14,49.89-92.21,49.35-113.55-.75h0Zm.33-.14c8.88,21.94,31.66,37.04,55.32,36.73,42.38-.11,71.27-43.56,54.89-82.67-16.25-39.17-67.44-49.23-97.35-19.21-16.88,16.58-22.19,43.39-12.86,65.15h0Z"/>
        <g>
          <path class="cls-5" d="M685.28,56.71c2.43-.63,5.15,1.74,6.07,5.28,.92,3.55-.32,6.93-2.75,7.56-2.43,.63-5.15-1.74-6.07-5.28-.92-3.55,.32-6.93,2.75-7.56Z"/>
          <path class="cls-5" d="M666.2,59.37c2.24-1.13,5.4,.6,7.05,3.87,1.65,3.27,1.17,6.84-1.08,7.97-2.24,1.13-5.4-.6-7.05-3.87-1.65-3.27-1.17-6.84,1.08-7.97Z"/>
          <path class="cls-5" d="M665.43,38.77c5.24-3,13.53,2.71,14.59,8.46,1.61,7.25-6.18,12.55-12.35,8.24-4.89-3.19-7.02-13.01-2.24-16.7h0Zm.26,.4c-4.16,3.57-.3,10.65,3.82,12.6,3.44,1.79,6.7-.39,6.36-4.25-.22-4.55-5.29-10.83-10.18-8.35h0Z"/>
          <path class="cls-5" d="M618.26,50.87c3.62,.4,6.17,4.26,5.69,8.62-.48,4.36-3.8,7.58-7.43,7.18-3.62-.4-6.17-4.26-5.69-8.62,.48-4.36,3.8-7.58,7.43-7.18Z"/>
          <path class="cls-5" d="M645.69,76.22c8.47,.9,12.42,12.33,6.71,18.63-6.22,7.19-17.99,3.04-18.58-6.36-.57-6.62,5.33-13.04,11.87-12.26h0Zm-.05,.47c-7.12-.72-11.21,8.46-7.14,13.87,2.44,3.67,7.91,4.27,11.09,1.22,5.14-4.39,3.15-14.24-3.96-15.08h0Z"/>
          <path class="cls-5" d="M608.05,40.02c2.68,1.66,3.03,5.3,2.69,8.34-.49,4.6-5.47,8.59-10.27,6.11-4.71-2.52-4.32-8.86-.78-11.91,2.29-2.01,5.48-3.8,8.37-2.53h0Zm-.22,.42c-4.51-1.84-9.21,7.21-5.15,9.81,4.48,1.82,9.22-7.09,5.15-9.81h0Z"/>
          <path class="cls-5" d="M601.78,96.11c2.95-.56,5.59,1.7,7.33,4.07,2.7,3.6,1.62,9.71-3.43,11.03-5.01,1.26-8.93-3.49-8.32-8,.37-2.91,1.57-6.17,4.42-7.11h0Zm.12,.46c-4.36,1.61-1.95,10.78,2.59,10.04,4.33-1.55,2-10.74-2.59-10.04h0Z"/>
          <path class="cls-5" d="M592.74,79.95c2.03-.53,4.3,1.45,5.07,4.41,.77,2.96-.26,5.79-2.3,6.32-2.03,.53-4.3-1.45-5.07-4.41-.77-2.96,.26-5.79,2.3-6.32Z"/>
          <path class="cls-5" d="M670.03,108.97c1.49,1.48,.95,4.44-1.21,6.61-2.16,2.17-5.11,2.73-6.6,1.25-1.49-1.48-.95-4.44,1.21-6.61s5.11-2.73,6.6-1.25Z"/>
          <path class="cls-5" d="M647.8,127.42c2.09,.16,3.72,1.25,3.63,2.44-.09,1.19-1.86,2.03-3.96,1.87-2.09-.16-3.72-1.25-3.63-2.44,.09-1.19,1.86-2.03,3.96-1.87Z"/>
          <path class="cls-5" d="M681.25,103.47c1.19,.61,1.45,2.51,.56,4.24-.88,1.74-2.56,2.66-3.76,2.05-1.19-.61-1.45-2.51-.56-4.24,.88-1.74,2.56-2.66,3.76-2.05Z"/>
          <path class="cls-5" d="M651.01,20.47c-.24,.96,1.7,2.28,4.33,2.93,2.63,.66,4.96,.41,5.2-.56,.24-.96-1.7-2.28-4.33-2.93-2.63-.66-4.96-.41-5.2,.56Z"/>
          <path class="cls-5" d="M621.9,27.69c.51,1.98,4.34,2.72,8.56,1.64,4.22-1.08,7.23-3.56,6.73-5.54-.51-1.98-4.34-2.72-8.56-1.64-4.22,1.08-7.23,3.56-6.73,5.54Z"/>
          <path class="cls-5" d="M617.72,100.38c2.57-1.63,6.58,.09,8.95,3.83s2.21,8.1-.36,9.73c-2.57,1.63-6.58-.08-8.95-3.83-2.37-3.74-2.21-8.1,.36-9.73Z"/>
        </g>
      </g>
    </g>
  </g>
</svg>