<?xml version="1.0" encoding="UTF-8"?>
<svg xmlns="http://www.w3.org/2000/svg" xmlns:xlink="http://www.w3.org/1999/xlink" viewBox="0 0 750 500">
  <defs>
    <style>
      .cls-1 {
        fill: url(#linear-gradient);
      }

      .cls-2 {
        fill: #ecc62f;
      }

      .cls-3 {
        fill: #ebf8f4;
      }

      .cls-4 {
        fill: #eac42e;
      }

      .cls-5 {
        fill: #e7e8f7;
      }

      .cls-6 {
        fill: #e8c950;
      }

      .cls-7 {
        fill: #fff;
      }

      .cls-8 {
        fill: #fdfbf4;
      }

      .cls-9 {
        fill: #323e70;
      }

      .cls-10 {
        fill: #cda862;
      }

      .cls-11 {
        fill: #b33030;
      }

      .cls-12 {
        fill: #da0076;
      }

      .cls-13 {
        fill: #cd117b;
      }

      .cls-14 {
        fill: #363dde;
      }

      .cls-15 {
        fill: #3741d7;
      }

      .cls-16 {
        fill: url(#linear-gradient-8);
      }

      .cls-17 {
        fill: url(#linear-gradient-3);
      }

      .cls-18 {
        fill: url(#linear-gradient-4);
      }

      .cls-19 {
        fill: url(#linear-gradient-2);
      }

      .cls-20 {
        fill: url(#linear-gradient-6);
      }

      .cls-21 {
        fill: url(#linear-gradient-5);
      }

      .cls-22 {
        fill: url(#Degradado_sin_nombre_13);
      }

      .cls-23 {
        fill: url(#Degradado_sin_nombre_12);
      }

      .cls-24 {
        fill: none;
        stroke: #fff;
        stroke-miterlimit: 10;
      }

      .cls-25 {
        opacity: .5;
      }

      .cls-26 {
        fill: url(#Degradado_sin_nombre_2);
      }

      .cls-27 {
        fill: url(#linear-gradient-7);
      }

      .cls-27, .cls-28 {
        opacity: .78;
      }

      .cls-27, .cls-28, .cls-29 {
        mix-blend-mode: overlay;
      }

      .cls-28 {
        fill: url(#linear-gradient-9);
      }

      .cls-30 {
        fill: url(#linear-gradient-10);
      }

      .cls-31 {
        isolation: isolate;
      }

      .cls-32 {
        fill: url(#Degradado_sin_nombre_12-2);
      }

      .cls-33 {
        fill: url(#Degradado_sin_nombre_12-3);
      }

      .cls-29 {
        fill: #f9fafd;
        opacity: .32;
      }
    </style>
    <linearGradient id="linear-gradient" x1="-2.15" y1="-589.56" x2="749.11" y2="-589.56" gradientUnits="userSpaceOnUse">
      <stop offset="0" stop-color="#201a4a"/>
      <stop offset=".67" stop-color="#020318"/>
    </linearGradient>
    <linearGradient id="Degradado_sin_nombre_13" data-name="Degradado sin nombre 13" x1="-50.24" y1="5118.47" x2="-73.59" y2="5134.69" gradientTransform="translate(-3862.44 3343.82) rotate(-127.36)" gradientUnits="userSpaceOnUse">
      <stop offset="0" stop-color="#cd5113"/>
      <stop offset=".27" stop-color="#d77529"/>
      <stop offset=".54" stop-color="#df933b"/>
      <stop offset=".77" stop-color="#e5a646"/>
      <stop offset=".93" stop-color="#e7ad4b"/>
    </linearGradient>
    <linearGradient id="Degradado_sin_nombre_12" data-name="Degradado sin nombre 12" x1="3865.71" y1="3657.12" x2="3883.22" y2="3646.46" gradientTransform="translate(-4092.42 3270.9) rotate(-76.4)" gradientUnits="userSpaceOnUse">
      <stop offset="0" stop-color="#cd5113"/>
      <stop offset=".45" stop-color="#da8130"/>
      <stop offset=".8" stop-color="#e3a143"/>
      <stop offset="1" stop-color="#e7ad4b"/>
    </linearGradient>
    <linearGradient id="Degradado_sin_nombre_12-2" data-name="Degradado sin nombre 12" x1="1045.08" y1="5306.89" x2="1062.54" y2="5296.26" gradientTransform="translate(-4553.2 2438.94) rotate(52.64) scale(1 -1)" xlink:href="#Degradado_sin_nombre_12"/>
    <linearGradient id="Degradado_sin_nombre_12-3" data-name="Degradado sin nombre 12" x1="-294.24" y1="5312.77" x2="-276.78" y2="5302.14" gradientTransform="translate(-3862.44 3343.82) rotate(-127.36)" xlink:href="#Degradado_sin_nombre_12"/>
    <linearGradient id="linear-gradient-2" x1="7.14" y1="569.02" x2="7.14" y2="408.06" gradientUnits="userSpaceOnUse">
      <stop offset="0" stop-color="#3650ae"/>
      <stop offset="1" stop-color="#8fffff"/>
    </linearGradient>
    <linearGradient id="linear-gradient-3" x1="38.42" y1="569.02" x2="38.42" y2="408.06" gradientUnits="userSpaceOnUse">
      <stop offset="0" stop-color="#cd5113"/>
      <stop offset="1" stop-color="#e7ad4b"/>
    </linearGradient>
    <linearGradient id="Degradado_sin_nombre_2" data-name="Degradado sin nombre 2" x1="69.71" y1="569.02" x2="69.71" y2="408.06" gradientUnits="userSpaceOnUse">
      <stop offset="0" stop-color="#6c20be"/>
      <stop offset="1" stop-color="#db34a8"/>
    </linearGradient>
    <linearGradient id="linear-gradient-4" x1="101" y1="569.02" x2="101" y2="408.06" gradientUnits="userSpaceOnUse">
      <stop offset="0" stop-color="#51149f"/>
      <stop offset="1" stop-color="#8725f9"/>
    </linearGradient>
    <linearGradient id="linear-gradient-5" x1="132.28" y1="569.02" x2="132.28" y2="408.06" xlink:href="#linear-gradient-2"/>
    <linearGradient id="linear-gradient-6" x1="163.57" y1="569.02" x2="163.57" y2="408.06" xlink:href="#linear-gradient-3"/>
    <linearGradient id="linear-gradient-7" x1="555.66" y1="629.55" x2="676.25" y2="628.49" gradientTransform="translate(1309.04 677.42) rotate(-180)" gradientUnits="userSpaceOnUse">
      <stop offset="0" stop-color="#fdfcff" stop-opacity="0"/>
      <stop offset="1" stop-color="#fff"/>
    </linearGradient>
    <linearGradient id="linear-gradient-8" x1="556.32" y1="629.36" x2="632.75" y2="628.69" gradientTransform="translate(1309.04 677.42) rotate(-180)" xlink:href="#linear-gradient-3"/>
    <linearGradient id="linear-gradient-9" x1="555.66" y1="611.52" x2="676.25" y2="610.46" xlink:href="#linear-gradient-7"/>
    <linearGradient id="linear-gradient-10" x1="555.98" y1="611.43" x2="654.97" y2="610.56" gradientTransform="translate(1309.04 677.42) rotate(-180)" xlink:href="#linear-gradient-2"/>
  </defs>
  <g class="cls-31">
    <g id="OBJECTS">
      <rect class="cls-1" x="-2.15" y="-1679.32" width="751.26" height="2179.54"/>
      <path class="cls-29" d="M517.47,295.9c-37.17,14.07-68.74,42.36-86.78,77.77-6.48,12.71-11.04,28.74-3.21,40.66,4.57,6.96,12.68,11.02,20.92,12.22,8.23,1.2,16.63-.16,24.71-2.17,15.52-3.86,30.35-10.1,45.69-14.6,15.35-4.51,31.67-7.27,47.32-3.99,15.65,3.29,30.54,13.58,35.83,28.68,2.99,8.53,2.87,18.15,7.36,26,6.62,11.57,21.46,15.91,34.77,15.25,28.24-1.41,53.2-20.52,68.88-44.06,15.68-23.53,23.63-51.23,31.35-78.43v163.31h-214.39c3.32-8.46,6.97-17.18,7.62-26.24,.65-9.07-1.83-18.82-8.59-24.9-8.24-7.42-20.57-7.77-31.58-6.49-19.07,2.22-37.52,8.05-56.39,11.6-18.87,3.55-38.9,4.7-56.81-2.2-17.92-6.91-33.13-23.48-33.61-42.67-.53-21.22,15.89-38.73,32.07-52.47,40.52-34.41,85.12-58.39,134.82-77.25Z"/>
      <g>
        <ellipse class="cls-24" cx="22.19" cy="471.52" rx="90.26" ry="270.74" transform="translate(-343.11 172.55) rotate(-48.01)"/>
        <ellipse class="cls-24" cx="22.19" cy="471.52" rx="65.18" ry="195.49" transform="translate(-343.11 172.55) rotate(-48.01)"/>
      </g>
      <g>
        <path class="cls-3" d="M551.67,424.3c1.4,1.84,4.12-.23,2.72-2.07-1.4-1.84-4.12,.23-2.72,2.07Z"/>
        <path class="cls-3" d="M100.97,140.24c1.4,1.84,4.12-.23,2.72-2.07-1.4-1.84-4.12,.23-2.72,2.07Z"/>
        <path class="cls-3" d="M245.81,3.46c1.4,1.84,4.12-.23,2.72-2.07-1.4-1.84-4.12,.23-2.72,2.07Z"/>
        <path class="cls-3" d="M616.04,243.96c1.4,1.84,4.12-.23,2.72-2.07-1.4-1.84-4.12,.23-2.72,2.07Z"/>
        <path class="cls-3" d="M281.29,322.64c1.4,1.84,4.12-.23,2.72-2.07-1.4-1.84-4.12,.23-2.72,2.07Z"/>
        <polygon class="cls-22" points="258.2 281.49 264.41 279.3 259.5 283.92 261.83 290.09 258.17 285.73 253.14 291.11 255.55 284.24 248.68 282.57 255.7 281.75 255.37 276.23 258.2 281.49"/>
        <polygon class="cls-23" points="369.88 359.6 375.7 363.2 368.88 362.07 365.7 367.56 366.61 362.09 359.12 361.32 366.01 359.15 362.7 352.74 368.02 357.79 372.03 354.26 369.88 359.6"/>
        <polygon class="cls-32" points="303.6 63.17 307.34 57.76 301.6 61.27 296.26 57.4 299.5 62.08 292.98 65.52 300.25 65 300.05 72.07 302.69 65.51 307.93 67.28 303.6 63.17"/>
        <polygon class="cls-33" points="526.61 345.68 532.82 343.5 527.91 348.12 530.24 354.29 526.58 349.92 521.55 355.31 523.96 348.43 517.09 346.76 524.11 345.94 523.78 340.42 526.61 345.68"/>
      </g>
      <g>
        <rect class="cls-19" x="-2.09" y="417.01" width="18.46" height="83.09"/>
        <rect class="cls-17" x="29.19" y="349.92" width="18.46" height="150.18"/>
        <rect class="cls-26" x="60.48" y="448.87" width="18.46" height="51.23"/>
        <rect class="cls-18" x="91.77" y="394.42" width="18.46" height="105.68"/>
        <rect class="cls-21" x="123.05" y="430.11" width="18.46" height="69.99"/>
        <rect class="cls-20" x="154.34" y="465.11" width="18.46" height="34.99"/>
      </g>
      <g>
        <path class="cls-27" d="M642.14,43.73h105.45c2.2,0,3.98,2.09,3.98,4.66h0c0,2.57-1.78,4.66-3.98,4.66h-105.45c-2.2,0-3.98-2.09-3.98-4.66h0c0-2.57,1.78-4.66,3.98-4.66Z"/>
        <path class="cls-16" d="M683.67,43.73h63.92c2.2,0,3.98,2.09,3.98,4.66h0c0,2.57-1.78,4.66-3.98,4.66h-63.92c-2.2,0-3.98-2.09-3.98-4.66h0c0-2.57,1.78-4.66,3.98-4.66Z"/>
        <path class="cls-28" d="M642.14,61.75h105.45c2.2,0,3.98,2.09,3.98,4.66h0c0,2.57-1.78,4.66-3.98,4.66h-105.45c-2.2,0-3.98-2.09-3.98-4.66h0c0-2.57,1.78-4.66,3.98-4.66Z"/>
        <path class="cls-30" d="M662.46,61.75h85.13c2.2,0,3.98,2.09,3.98,4.66h0c0,2.57-1.78,4.66-3.98,4.66h-85.13c-2.2,0-3.98-2.09-3.98-4.66h0c0-2.57,1.78-4.66,3.98-4.66Z"/>
      </g>
      <g>
        <g class="cls-25">
          <path class="cls-14" d="M690.72,434.75l-1.51-1.51-1.51,1.51-1.61-1.61,1.51-1.51-1.51-1.51,1.61-1.61,1.51,1.51,1.51-1.51,1.61,1.61-1.51,1.51,1.51,1.51-1.61,1.61Zm-4.34-1.61l1.32,1.32,1.51-1.51,1.51,1.51,1.32-1.32-1.51-1.51,1.51-1.51-1.32-1.32-1.51,1.51-1.51-1.51-1.32,1.32,1.51,1.51-1.51,1.51Z"/>
        </g>
        <g class="cls-25">
          <path class="cls-12" d="M699.14,438.12l-1.51-1.51-1.51,1.51-1.61-1.61,1.51-1.51-1.51-1.51,1.61-1.61,1.51,1.51,1.51-1.51,1.61,1.61-1.51,1.51,1.51,1.51-1.61,1.61Zm-1.51-1.8l1.51,1.51,1.32-1.32-1.51-1.51,1.51-1.51-1.32-1.32-1.51,1.51-1.51-1.51-1.32,1.32,1.51,1.51-1.51,1.51,1.32,1.32,1.51-1.51Z"/>
        </g>
        <path class="cls-10" d="M707.22,426.73c-1.78,.33-2.05,.59-2.38,2.38-.33-1.78-.59-2.05-2.38-2.38,1.78-.33,2.05-.59,2.38-2.38,.33,1.78,.59,2.05,2.38,2.38Z"/>
        <path class="cls-10" d="M573.86,477.25c-1.78,.33-2.05,.59-2.38,2.38-.33-1.78-.59-2.05-2.38-2.38,1.78-.33,2.05-.59,2.38-2.38,.33,1.78,.59,2.05,2.38,2.38Z"/>
        <path class="cls-7" d="M592.66,436.05l-1.58-1.58,1.58-1.58,1.58,1.58-1.58,1.58Zm-1-1.58l1,1,1-1-1-1-1,1Z"/>
        <path class="cls-7" d="M593.68,429.81l-1.58-1.58,1.58-1.58,1.58,1.58-1.58,1.58Zm-1-1.58l1,1,1-1-1-1-1,1Z"/>
        <path class="cls-7" d="M594.8,424.31l-1.58-1.58,1.58-1.58,1.58,1.58-1.58,1.58Zm-1-1.58l1,1,1-1-1-1-1,1Z"/>
        <polygon class="cls-5" points="692.87 471.31 692.78 470.54 692.02 470.45 690.02 472.45 688.02 470.45 687.25 470.54 687.16 471.31 689.16 473.31 687.16 475.31 687.25 476.08 688.02 476.17 690.02 474.17 692.02 476.17 692.78 476.08 692.87 475.31 690.88 473.31 692.87 471.31"/>
        <path class="cls-5" d="M693.5,466.77l-1.96-1.96-1.96,1.96-.9-.11-.11-.9,1.96-1.96-1.96-1.96,.11-.9,.9-.11,1.96,1.96,1.96-1.96,.9,.11,.11,.9-1.96,1.96,1.96,1.96-.11,.9-.9,.11Zm-4.64-.29l.64,.08,2.04-2.04,2.04,2.04,.64-.08,.08-.64-2.04-2.04,2.04-2.04-.08-.64-.64-.08-2.04,2.04-2.04-2.04-.64,.08-.08,.64,2.04,2.04-2.04,2.04,.08,.64Z"/>
        <g>
          <polygon class="cls-5" points="695.73 453.73 695.64 452.97 694.87 452.88 692.87 454.87 690.88 452.88 690.11 452.97 690.02 453.73 692.02 455.73 690.02 457.73 690.11 458.5 690.88 458.59 692.87 456.59 694.87 458.59 695.64 458.5 695.73 457.73 693.73 455.73 695.73 453.73"/>
          <rect class="cls-6" x="695.42" y="455.42" width=".63" height=".63" transform="translate(526.03 -358.48) rotate(45)"/>
          <rect class="cls-6" x="689.7" y="455.42" width=".63" height=".63" transform="translate(524.35 -354.43) rotate(45)"/>
          <rect class="cls-6" x="692.56" y="458.28" width=".63" height=".63" transform="translate(1507.08 292.93) rotate(135)"/>
          <rect class="cls-6" x="692.56" y="452.56" width=".63" height=".63" transform="translate(1503.04 283.17) rotate(135)"/>
        </g>
        <path class="cls-2" d="M586.93,475.93c-.34,0-.68-.08-.98-.24-.15-.08-.21-.26-.13-.41,.08-.15,.26-.21,.41-.13,.31,.16,.66,.21,1,.14,.16-.03,.33,.08,.36,.24,.03,.17-.08,.33-.24,.36-.14,.03-.27,.04-.41,.04Zm1.46-.56c-.11,0-.21-.05-.26-.15-.08-.15-.04-.33,.11-.42l1.07-.62c.15-.08,.33-.04,.42,.11,.08,.15,.04,.33-.11,.42l-1.07,.62s-.1,.04-.15,.04Zm-3.15-.51c-.11,0-.21-.05-.26-.15l-.62-1.07c-.08-.15-.04-.33,.11-.42,.15-.08,.33-.04,.42,.11l.62,1.07c.08,.15,.04,.33-.11,.42-.05,.03-.1,.04-.15,.04Zm5.28-.73c-.11,0-.21-.05-.26-.15-.08-.15-.04-.33,.11-.42l.2-.12c.24-.14,.44-.34,.58-.59,.08-.15,.27-.2,.41-.12,.15,.08,.2,.27,.12,.41-.19,.34-.47,.62-.8,.82l-.2,.12s-.1,.04-.15,.04Zm-13.49-.82c-.12,0-.25-.01-.37-.03-.17-.03-.28-.19-.25-.35,.03-.17,.19-.28,.35-.25,.09,.02,.18,.02,.27,.02h0c.25,0,.51-.06,.73-.18,.15-.08,.33-.02,.41,.12,.08,.15,.02,.33-.12,.41-.31,.17-.67,.26-1.02,.26h0Zm6.97-.58c-.11,0-.21-.05-.26-.15l-.45-.77c-.05-.08-.1-.16-.17-.23-.11-.13-.1-.32,.03-.43,.13-.11,.32-.1,.43,.03,.09,.1,.16,.21,.23,.32l.45,.77c.08,.15,.04,.33-.11,.42-.05,.03-.1,.04-.15,.04Zm-8.34-.03c-.08,0-.17-.03-.23-.1-.1-.11-.19-.23-.27-.36l-.43-.73c-.08-.15-.04-.33,.11-.42,.15-.08,.33-.04,.42,.11l.43,.73c.05,.09,.12,.18,.19,.26,.11,.12,.1,.32-.02,.43-.06,.05-.13,.08-.2,.08Zm3.32-.23c-.11,0-.21-.05-.26-.15-.08-.15-.04-.33,.11-.42l1.07-.62c.15-.08,.33-.04,.42,.11,.08,.15,.04,.33-.11,.42l-1.07,.62s-.1,.04-.15,.04Zm12.65-.36c-.15,0-.28-.11-.3-.26-.03-.19-.09-.37-.19-.54l-.28-.47c-.08-.15-.04-.33,.11-.42,.15-.08,.33-.04,.42,.11l.28,.47c.14,.23,.22,.48,.27,.75,.03,.17-.09,.32-.25,.35-.02,0-.03,0-.05,0Zm-10.52-.88c-.11,0-.22-.06-.27-.17-.08-.15-.02-.33,.13-.41,.3-.15,.64-.23,.97-.23h0c.14,0,.28,.01,.42,.04,.17,.03,.27,.19,.24,.36-.03,.17-.19,.27-.36,.24-.1-.02-.2-.03-.3-.03h0c-.24,0-.48,.06-.7,.17-.04,.02-.09,.03-.14,.03Zm-6.73-.64c-.11,0-.21-.05-.26-.15l-.85-1.46c-.08-.15-.04-.33,.11-.42,.15-.08,.33-.04,.42,.11h0s.22,.38,.22,.38c0,0,0,0,0,0l.63,1.08c.08,.15,.04,.33-.11,.42-.05,.03-.1,.04-.15,.04Zm16.12-.66c-.11,0-.21-.05-.26-.15l-.62-1.07c-.08-.15-.04-.33,.11-.42,.15-.08,.33-.04,.42,.11l.62,1.07c.08,.15,.04,.33-.11,.42-.05,.03-.1,.04-.15,.04Zm-16.97-1.61s-.03,0-.04,0c-.17-.02-.28-.18-.26-.35,.07-.48,.3-.92,.65-1.25,.12-.12,.31-.11,.43,.01,.12,.12,.11,.31-.01,.43-.25,.24-.41,.56-.46,.9-.02,.15-.15,.26-.3,.26Zm15.86-.58c-.15,0-.28-.11-.3-.26-.01-.1-.02-.2-.02-.3,0-.38,.1-.76,.29-1.09,.08-.15,.27-.2,.42-.11,.15,.08,.2,.27,.11,.42-.14,.24-.21,.51-.21,.78,0,.07,0,.14,.01,.21,.02,.17-.09,.32-.26,.34-.01,0-.03,0-.04,0Zm-14.27-1.16c-.11,0-.21-.05-.26-.15-.08-.15-.04-.33,.11-.42l1.07-.62c.15-.08,.33-.04,.42,.11,.08,.15,.04,.33-.11,.42l-1.07,.62s-.1,.04-.15,.04Zm15.4-.84c-.11,0-.21-.05-.26-.15-.08-.15-.04-.33,.11-.42l1.07-.62c.15-.08,.33-.04,.42,.11,.08,.15,.04,.33-.11,.42l-1.07,.62s-.1,.04-.15,.04Zm-13.27-.4c-.11,0-.21-.05-.26-.15-.08-.15-.04-.33,.11-.42l.23-.13c.24-.14,.43-.33,.57-.57,.08-.15,.27-.2,.42-.11,.15,.08,.2,.27,.11,.42-.19,.33-.46,.6-.79,.79l-.23,.13s-.1,.04-.15,.04Zm15.4-.84c-.11,0-.21-.05-.26-.15-.08-.15-.04-.33,.11-.42l.68-.4c.11-.06,.21-.14,.3-.22,.12-.12,.31-.11,.43,0,.12,.12,.11,.31,0,.43-.12,.12-.26,.22-.41,.31l-.68,.4s-.1,.04-.15,.04Zm-14.27-1.16c-.15,0-.28-.11-.3-.26-.03-.2-.09-.38-.19-.56l-.26-.45c-.08-.15-.04-.33,.11-.42,.15-.08,.33-.04,.42,.11l.26,.45c.14,.24,.23,.51,.27,.78,.02,.17-.09,.32-.26,.34-.01,0-.03,0-.04,0Zm15.86-.58s-.03,0-.04,0c-.17-.02-.28-.18-.26-.34,.01-.07,.02-.15,.02-.22,0-.27-.07-.54-.21-.77-.08-.15-.03-.33,.11-.42,.15-.08,.33-.03,.42,.11,.19,.33,.29,.7,.29,1.08,0,.1,0,.2-.02,.31-.02,.15-.15,.26-.3,.26Zm-16.98-1.61c-.11,0-.21-.05-.26-.15l-.62-1.07c-.08-.15-.04-.33,.11-.42,.15-.08,.33-.04,.42,.11l.62,1.07c.08,.15,.04,.33-.11,.42-.05,.03-.1,.04-.15,.04Zm16.13-.65c-.11,0-.21-.05-.26-.15l-.62-1.07c-.08-.15-.04-.33,.11-.42,.15-.08,.33-.04,.42,.11l.62,1.07c.08,.15,.04,.33-.11,.42-.05,.03-.1,.04-.15,.04Zm-7.92-.48s-.04,0-.06,0c-.47-.09-.91-.34-1.22-.7-.11-.13-.1-.32,.03-.43,.13-.11,.32-.1,.43,.03,.23,.26,.54,.44,.88,.5,.17,.03,.27,.19,.24,.36-.03,.15-.16,.25-.3,.25Zm1.2-.17c-.11,0-.22-.06-.27-.17-.08-.15-.02-.33,.13-.41,.02-.01,.05-.03,.07-.04l.98-.57c.15-.08,.33-.04,.42,.11,.08,.15,.04,.33-.11,.42l-.98,.57s-.07,.04-.1,.06c-.04,.02-.09,.03-.14,.03Zm-10.53-.88c-.15,0-.28-.11-.3-.26-.02-.11-.03-.22-.03-.33,0-.37,.1-.73,.28-1.06,.08-.15,.27-.2,.41-.12,.15,.08,.2,.27,.12,.42-.13,.23-.2,.49-.2,.76,0,.08,0,.16,.02,.24,.03,.17-.09,.32-.25,.35-.02,0-.03,0-.05,0Zm12.66-.36c-.11,0-.21-.05-.26-.15-.08-.15-.04-.33,.11-.42l1-.58s.05-.03,.07-.04c.15-.08,.33-.02,.41,.13,.08,.15,.02,.33-.13,.41-.02,0-.04,.02-.05,.03l-1,.58s-.1,.04-.15,.04Zm3.32-.22c-.08,0-.17-.03-.23-.1-.23-.26-.54-.43-.88-.49-.17-.03-.28-.19-.25-.35,.03-.17,.19-.28,.35-.25,.47,.08,.91,.33,1.23,.68,.11,.13,.1,.32-.02,.43-.06,.05-.13,.08-.2,.08Zm-8.34-.03c-.11,0-.21-.05-.26-.15l-.62-1.07c-.08-.15-.04-.33,.11-.42,.15-.08,.33-.04,.42,.11l.62,1.07c.08,.15,.04,.33-.11,.42-.05,.03-.1,.04-.15,.04Zm-6.52-1.41c-.11,0-.21-.05-.26-.15-.08-.15-.04-.33,.11-.42l1.07-.62c.15-.08,.33-.04,.42,.11,.08,.15,.04,.33-.11,.42l-1.07,.62s-.1,.04-.15,.04Zm5.28-.72c-.11,0-.21-.05-.26-.15l-.09-.15c-.15-.26-.37-.46-.63-.6-.15-.08-.21-.26-.13-.41,.08-.15,.26-.21,.41-.13,.37,.19,.67,.48,.88,.84l.09,.15c.08,.15,.04,.33-.11,.42-.05,.03-.1,.04-.15,.04Zm-3.15-.52c-.11,0-.21-.05-.26-.15-.08-.15-.04-.33,.11-.42l.52-.3c.21-.12,.44-.21,.68-.26,.16-.03,.33,.08,.36,.24,.03,.17-.08,.33-.24,.36-.17,.03-.34,.09-.49,.18l-.52,.3s-.1,.04-.15,.04Z"/>
        <path class="cls-2" d="M587.29,417.77c-.05,0-.1-.02-.14-.06-.08-.08-.08-.21,0-.29l.52-.52-.52-.52c-.08-.08-.08-.21,0-.29,.08-.08,.21-.08,.29,0l.67,.67c.08,.08,.08,.21,0,.29l-.67,.67s-.09,.06-.14,.06Z"/>
        <path class="cls-2" d="M588.47,417.77c-.05,0-.1-.02-.14-.06-.08-.08-.08-.21,0-.29l.52-.52-.52-.52c-.08-.08-.08-.21,0-.29,.08-.08,.21-.08,.29,0l.67,.67c.08,.08,.08,.21,0,.29l-.67,.67s-.09,.06-.14,.06Z"/>
        <path class="cls-2" d="M589.64,417.77c-.05,0-.1-.02-.14-.06-.08-.08-.08-.21,0-.29l.52-.52-.52-.52c-.08-.08-.08-.21,0-.29,.08-.08,.21-.08,.29,0l.67,.67c.08,.08,.08,.21,0,.29l-.67,.67s-.09,.06-.14,.06Z"/>
        <path class="cls-2" d="M590.82,417.77c-.05,0-.1-.02-.14-.06-.08-.08-.08-.21,0-.29l.52-.52-.52-.52c-.08-.08-.08-.21,0-.29,.08-.08,.21-.08,.29,0l.67,.67c.08,.08,.08,.21,0,.29l-.67,.67s-.09,.06-.14,.06Z"/>
        <path class="cls-2" d="M591.99,417.77c-.05,0-.1-.02-.14-.06-.08-.08-.08-.21,0-.29l.52-.52-.52-.52c-.08-.08-.08-.21,0-.29,.08-.08,.21-.08,.29,0l.67,.67s.06,.09,.06,.14-.02,.11-.06,.14l-.67,.67s-.09,.06-.14,.06Z"/>
        <g>
          <path class="cls-13" d="M679.85,444.39c-.55,0-1-.45-1-1s.45-1,1-1,1,.45,1,1-.45,1-1,1Zm0-1.86c-.48,0-.86,.39-.86,.86s.39,.86,.86,.86,.86-.39,.86-.86-.39-.86-.86-.86Z"/>
          <circle class="cls-13" cx="679.85" cy="443.4" r=".64"/>
        </g>
        <g class="cls-25">
          <rect class="cls-9" x="641.19" y="450.12" width="1.08" height="1.08"/>
        </g>
        <g class="cls-25">
          <rect class="cls-11" x="638.83" y="451.74" width="1.08" height="1.08"/>
        </g>
        <g class="cls-25">
          <rect class="cls-8" x="639.65" y="448.21" width="1.08" height="1.08"/>
        </g>
        <polygon class="cls-7" points="600.77 437.74 598.54 434.84 599.2 429.68 602.07 427.47 602.39 424.97 602.6 425 602.26 427.58 599.4 429.79 598.75 434.78 600.93 437.61 600.77 437.74"/>
        <polygon class="cls-7" points="647.69 479.8 641.42 479.8 642.25 474.38 642.45 474.41 641.65 479.59 647.6 479.59 652.84 474.36 652.84 470.49 651.11 468.76 651.11 465.97 656.32 465.97 656.32 466.17 651.31 466.17 651.31 468.68 653.04 470.41 653.04 474.44 647.69 479.8"/>
        <path class="cls-7" d="M657.89,466.07c0,.43-.35,.79-.79,.79s-.79-.35-.79-.79,.35-.79,.79-.79,.79,.35,.79,.79Z"/>
        <circle class="cls-7" cx="652.38" cy="410.86" r="1.11"/>
        <path class="cls-7" d="M702.54,467.75c-.33,0-.59-.27-.59-.59s.27-.59,.59-.59,.59,.27,.59,.59-.27,.59-.59,.59Zm0-.98c-.21,0-.39,.17-.39,.39s.17,.39,.39,.39,.39-.17,.39-.39-.17-.39-.39-.39Z"/>
        <path class="cls-7" d="M702.75,465.39c-.33,0-.59-.27-.59-.59s.27-.59,.59-.59,.59,.27,.59,.59-.27,.59-.59,.59Zm0-.98c-.21,0-.39,.17-.39,.39s.17,.39,.39,.39,.39-.17,.39-.39-.17-.39-.39-.39Z"/>
        <path class="cls-7" d="M666.55,418.08c0,.43-.35,.79-.79,.79s-.79-.35-.79-.79,.35-.79,.79-.79,.79,.35,.79,.79Z"/>
        <rect class="cls-13" x="684.77" y="425.14" width="1.87" height="1.87" transform="translate(261.5 -260.79) rotate(26.44)"/>
        <rect class="cls-15" x="687.29" y="422.35" width="1.51" height="1.51" transform="translate(-91.75 212.52) rotate(-16.48)"/>
        <polygon class="cls-7" points="635.36 471.46 635.17 471.39 636.95 466.85 632.87 448.75 630.13 447.13 620.71 455.76 622.25 459.75 622.06 459.82 620.47 455.71 630.1 446.87 633.05 448.62 633.06 448.67 637.16 466.87 635.36 471.46"/>
        <polygon class="cls-7" points="624.08 462.68 623.24 460.66 622.45 460.56 621.96 461.19 622.8 463.21 623.59 463.31 624.08 462.68"/>
        <rect class="cls-7" x="622.24" y="459.69" width=".1" height=".89" transform="translate(-122.41 249.44) rotate(-20.68)"/>
        <polygon class="cls-7" points="648.59 430.27 647.54 427.49 647.55 427.46 649.26 417.67 651.57 415.68 652.28 411.57 652.48 411.61 651.76 415.79 649.45 417.78 647.75 427.47 648.78 430.2 648.59 430.27"/>
        <polygon class="cls-13" points="585.44 448.7 585.24 448.68 585.63 444.91 588.44 443.21 700.86 443.21 702.08 442.03 703.51 431.9 701.82 430.21 701.97 430.06 703.73 431.83 703.72 431.88 702.27 442.13 700.94 443.41 588.5 443.41 585.82 445.03 585.44 448.7"/>
        <polygon class="cls-7" points="624.35 440.23 620.16 440.23 619.46 439.53 619.46 437.32 619.66 437.32 619.66 439.44 620.24 440.03 624.18 440.03 626.36 428.24 626.03 427.52 626.37 424.38 627.33 423.95 628.7 416.66 624.15 416.66 623.53 418.3 623.34 418.23 624 416.46 628.95 416.46 627.51 424.1 626.56 424.52 626.23 427.49 626.57 428.22 626.56 428.25 624.35 440.23"/>
        <polygon class="cls-7" points="642.97 438.61 642.87 438.43 645.1 437.26 646.32 430.15 644.82 426.77 645 426.69 646.53 430.12 646.53 430.15 645.28 437.39 642.97 438.61"/>
        <polygon class="cls-7" points="660.41 422.54 660.27 422.39 661.08 421.65 665.12 421.65 665.66 421.35 665.66 418.08 665.87 418.08 665.87 421.47 665.18 421.85 661.16 421.85 660.41 422.54"/>
        <polygon class="cls-7" points="677.29 433.81 677.14 433.67 678.19 432.62 682.56 432.62 683.66 431.52 683.66 429.8 683.03 429.17 683.03 426.64 682.31 426.64 682.31 426.43 683.23 426.43 683.23 429.09 683.86 429.72 683.86 431.61 682.65 432.82 678.28 432.82 677.29 433.81"/>
        <polygon class="cls-15" points="664.91 473.82 662.99 471.9 663 471.85 668.32 441.73 598.19 441.73 596.26 439.8 596.26 439.75 598.55 423.59 600.42 421.72 603.51 421.72 603.51 421.92 600.51 421.92 598.74 423.68 596.47 439.72 598.27 441.52 668.57 441.52 668.55 441.64 663.21 471.83 665.05 473.68 664.91 473.82"/>
        <path class="cls-4" d="M683.38,481.15c-.2,0-.4-.06-.57-.18-.05-.03-.06-.09-.03-.14,.03-.05,.09-.06,.14-.03,.2,.14,.46,.18,.69,.11,.05-.02,.11,.01,.13,.07,.02,.05-.01,.11-.07,.13-.1,.03-.2,.04-.3,.04Zm.85-.56s-.03,0-.04,0c-.05-.02-.08-.08-.05-.13,.03-.07,.05-.14,.06-.22l.07-.55c0-.06,.06-.09,.11-.09,.06,0,.1,.06,.09,.11l-.07,.55c-.01,.09-.04,.19-.07,.27-.02,.04-.05,.06-.09,.06Zm-2.02-.08s-.04,0-.06-.02l-.65-.49s-.05-.1-.02-.14c.03-.04,.1-.05,.14-.02l.65,.49s.05,.1,.02,.14c-.02,.03-.05,.04-.08,.04Zm-1.3-.98s-.04,0-.06-.02l-.65-.49s-.05-.1-.02-.14c.03-.04,.1-.05,.14-.02l.65,.49s.05,.1,.02,.14c-.02,.03-.05,.04-.08,.04Zm3.55-.55s0,0-.01,0c-.06,0-.1-.06-.09-.11l.1-.81c0-.06,.06-.1,.11-.09,.06,0,.1,.06,.09,.11l-.1,.81c0,.05-.05,.09-.1,.09Zm-4.85-.43s-.04,0-.06-.02l-.65-.49s-.05-.1-.02-.14c.03-.04,.1-.05,.14-.02l.65,.49s.05,.1,.02,.14c-.02,.03-.05,.04-.08,.04Zm-1.3-.98s-.04,0-.06-.02l-.65-.49s-.05-.1-.02-.14c.03-.04,.1-.05,.14-.02l.65,.49s.05,.1,.02,.14c-.02,.03-.05,.04-.08,.04Zm6.34-.21s0,0-.01,0c-.06,0-.1-.06-.09-.11l.1-.81c0-.06,.06-.09,.11-.09,.06,0,.1,.06,.09,.11l-.1,.81c0,.05-.05,.09-.1,.09Zm-7.64-.77s-.05,0-.07-.03c-.19-.19-.3-.45-.3-.72,0-.03,0-.07,0-.1,0-.06,.06-.1,.11-.09,.06,0,.1,.05,.09,.11,0,.03,0,.05,0,.08,0,.22,.09,.43,.24,.58,.04,.04,.04,.1,0,.14-.02,.02-.05,.03-.07,.03Zm7.83-.84s0,0-.01,0c-.06,0-.1-.06-.09-.11l.1-.81c0-.06,.06-.09,.11-.09,.06,0,.1,.06,.09,.11l-.1,.81c0,.05-.05,.09-.1,.09Zm-7.7-.57s-.06-.02-.08-.05c-.03-.05-.02-.11,.03-.14,.05-.04,.11-.07,.17-.09l.59-.25c.05-.02,.11,0,.13,.05,.02,.05,0,.11-.05,.13l-.59,.25s-.09,.05-.14,.07c-.02,.01-.04,.02-.06,.02Zm1.49-.65s-.08-.02-.09-.06c-.02-.05,0-.11,.05-.13l.75-.32c.05-.02,.11,0,.13,.05,.02,.05,0,.11-.05,.13l-.75,.32s-.03,0-.04,0Zm6.41-.39s0,0-.01,0c-.06,0-.1-.06-.09-.11l.1-.81c0-.06,.06-.09,.11-.09,.06,0,.1,.06,.09,.11l-.1,.81c0,.05-.05,.09-.1,.09Zm-4.91-.25s-.08-.02-.09-.06c-.02-.05,0-.11,.05-.13l.75-.32c.05-.02,.11,0,.13,.05,.02,.05,0,.11-.05,.13l-.75,.32s-.03,0-.04,0Zm1.5-.64s-.08-.02-.09-.06c-.02-.05,0-.11,.05-.13l.75-.32c.05-.02,.11,0,.13,.05s0,.11-.05,.13l-.75,.32s-.03,0-.04,0Zm1.5-.64s-.08-.02-.09-.06c-.02-.05,0-.11,.05-.13l.75-.32c.05-.02,.11,0,.13,.05,.02,.05,0,.11-.05,.13l-.75,.32s-.03,0-.04,0Zm1.83-.05s-.06-.01-.08-.04c-.15-.19-.39-.31-.63-.31-.06,0-.1-.05-.1-.1,0-.06,.05-.1,.1-.1h0c.3,0,.59,.14,.78,.39,.04,.04,.03,.11-.02,.14-.02,.02-.04,.02-.06,.02Z"/>
        <rect class="cls-7" x="566.23" y="465.77" width="7.91" height=".2" transform="translate(48.8 985.77) rotate(-84.17)"/>
        <rect class="cls-7" x="569.94" y="459.23" width="1.87" height=".2" transform="translate(56.04 980.69) rotate(-84.18)"/>
        <polygon class="cls-7" points="573.26 436.84 573.06 436.82 574.16 425.98 574.19 425.95 581.73 418.41 592.6 418.41 592.6 418.62 581.81 418.62 574.36 426.07 573.26 436.84"/>
        <polygon class="cls-7" points="694.07 486.43 683.21 486.43 683.21 486.23 693.99 486.23 701.44 478.78 702.44 469.01 702.64 469.03 701.64 478.87 701.61 478.89 694.07 486.43"/>
        <polygon class="cls-7" points="696.91 448.69 693.84 447.13 690.77 448.69 690.77 446.87 693.84 445.31 696.91 446.87 696.91 448.69"/>
        <polygon class="cls-7" points="696.13 450.52 693.84 449.36 691.54 450.52 691.54 449.16 693.84 448 696.13 449.16 696.13 450.52"/>
        <path class="cls-7" d="M659.9,477.02h-3.89c-.11,0-.2-.09-.2-.2v-3.89c0-.11,.09-.2,.2-.2h3.89c.11,0,.2,.09,.2,.2v3.89c0,.11-.09,.2-.2,.2Zm-3.68-.41h3.48v-3.48h-3.48v3.48Z"/>
        <polygon class="cls-13" points="577.03 433.48 575.79 435.63 578.28 435.63 577.03 433.48"/>
        <polygon class="cls-15" points="577.03 432.03 575.79 434.18 578.28 434.18 577.03 432.03"/>
        <g>
          <polygon class="cls-7" points="706.03 477.05 706.22 476.31 703.66 476.86 703.47 477.6 706.03 477.05"/>
          <polygon class="cls-7" points="706.14 475.59 706.33 474.85 703.77 475.41 703.58 476.14 706.14 475.59"/>
          <polygon class="cls-7" points="706.25 474.13 706.44 473.39 703.88 473.95 703.69 474.69 706.25 474.13"/>
          <polygon class="cls-7" points="706.36 472.67 706.55 471.94 703.99 472.49 703.8 473.23 706.36 472.67"/>
          <polygon class="cls-7" points="706.47 471.22 706.66 470.48 704.1 471.03 703.91 471.77 706.47 471.22"/>
          <polygon class="cls-7" points="706.58 469.76 706.77 469.02 704.21 469.57 704.02 470.31 706.58 469.76"/>
        </g>
        <path class="cls-7" d="M656.85,477.88c-.11,0-.2-.09-.2-.2v-.86c0-.11,.09-.2,.2-.2s.2,.09,.2,.2v.86c0,.11-.09,.2-.2,.2Z"/>
        <path class="cls-7" d="M657.95,477.88c-.11,0-.2-.09-.2-.2v-.86c0-.11,.09-.2,.2-.2s.2,.09,.2,.2v.86c0,.11-.09,.2-.2,.2Z"/>
        <path class="cls-7" d="M659.12,477.88c-.11,0-.2-.09-.2-.2v-.86c0-.11,.09-.2,.2-.2s.2,.09,.2,.2v.86c0,.11-.09,.2-.2,.2Z"/>
        <path class="cls-7" d="M655.88,474h-.86c-.11,0-.2-.09-.2-.2s.09-.2,.2-.2h.86c.11,0,.2,.09,.2,.2s-.09,.2-.2,.2Z"/>
        <path class="cls-7" d="M655.88,475.1h-.86c-.11,0-.2-.09-.2-.2s.09-.2,.2-.2h.86c.11,0,.2,.09,.2,.2s-.09,.2-.2,.2Z"/>
        <path class="cls-7" d="M655.88,476.27h-.86c-.11,0-.2-.09-.2-.2s.09-.2,.2-.2h.86c.11,0,.2,.09,.2,.2s-.09,.2-.2,.2Z"/>
        <path class="cls-7" d="M660.75,474h-.86c-.11,0-.2-.09-.2-.2s.09-.2,.2-.2h.86c.11,0,.2,.09,.2,.2s-.09,.2-.2,.2Z"/>
        <path class="cls-7" d="M660.75,475.1h-.86c-.11,0-.2-.09-.2-.2s.09-.2,.2-.2h.86c.11,0,.2,.09,.2,.2s-.09,.2-.2,.2Z"/>
        <path class="cls-7" d="M660.75,476.27h-.86c-.11,0-.2-.09-.2-.2s.09-.2,.2-.2h.86c.11,0,.2,.09,.2,.2s-.09,.2-.2,.2Z"/>
        <path class="cls-7" d="M659.09,473.13c-.11,0-.2-.09-.2-.2v-.86c0-.11,.09-.2,.2-.2s.2,.09,.2,.2v.86c0,.11-.09,.2-.2,.2Z"/>
        <path class="cls-7" d="M657.98,473.13c-.11,0-.2-.09-.2-.2v-.86c0-.11,.09-.2,.2-.2s.2,.09,.2,.2v.86c0,.11-.09,.2-.2,.2Z"/>
        <path class="cls-7" d="M656.81,473.13c-.11,0-.2-.09-.2-.2v-.86c0-.11,.09-.2,.2-.2s.2,.09,.2,.2v.86c0,.11-.09,.2-.2,.2Z"/>
        <path class="cls-7" d="M688.09,488h-4.94l-.51-.89,.51-.89h4.94l.51,.89-.51,.89Zm-4.82-.2h4.7l.39-.68-.39-.68h-4.7l-.39,.68,.39,.68Z"/>
        <path class="cls-7" d="M699.52,479.16c-.12,0-.24-.04-.34-.11-.13-.09-.22-.23-.24-.38-.03-.16,0-.31,.1-.44,.09-.13,.23-.22,.38-.24,.32-.06,.63,.16,.69,.48h0c.06,.32-.16,.63-.48,.69-.03,0-.07,0-.1,0Zm0-.98s-.04,0-.07,0c-.1,.02-.19,.07-.25,.16s-.08,.19-.06,.29c.02,.1,.07,.19,.16,.25,.09,.06,.19,.08,.29,.06,.21-.04,.35-.24,.32-.45-.03-.19-.2-.32-.38-.32Z"/>
        <polygon class="cls-7" points="696.32 481.84 695.25 481.84 695.25 481.64 696.23 481.64 699.13 478.74 699.27 478.89 696.32 481.84"/>
        <g>
          <path class="cls-7" d="M627.02,418.02l-3.67,20.79h-5.07l2.22-12.47-6.87,12.47h-4.09l-2.49-12.53-2.19,12.53h-5.06l3.67-20.79h5.98l3.32,14.39,8.29-14.39h5.95Z"/>
          <path class="cls-7" d="M629.22,426.05c.87-1.28,1.92-2.27,3.14-2.96,1.22-.69,2.52-1.04,3.88-1.04,1.17,0,2.14,.24,2.93,.71,.79,.47,1.36,1.1,1.72,1.87l.41-2.34h5.06l-2.93,16.53h-5.07l.44-2.34c-.63,.77-1.43,1.39-2.4,1.87-.97,.47-2.03,.71-3.2,.71s-2.2-.27-3.1-.8c-.9-.53-1.59-1.29-2.09-2.27-.49-.98-.74-2.13-.74-3.45,0-.63,.06-1.3,.18-2.01,.3-1.7,.88-3.19,1.75-4.47Zm10.72,3.52c0-.97-.28-1.73-.84-2.28-.56-.55-1.28-.83-2.15-.83-1.01,0-1.92,.36-2.75,1.08-.83,.72-1.35,1.71-1.57,2.98-.06,.36-.09,.68-.09,.98,0,.97,.28,1.73,.84,2.3,.56,.56,1.27,.84,2.12,.84,1.01,0,1.93-.37,2.75-1.1,.83-.73,1.36-1.73,1.6-2.99,.06-.36,.09-.68,.09-.98Z"/>
          <path class="cls-7" d="M658,430.58l5.48,8.23h-6.28l-3.82-6.9-1.21,6.9h-5.06l3.88-21.92h5.06l-2.13,12.08,6.16-6.69h6.25l-8.32,8.29Z"/>
          <path class="cls-7" d="M680.8,423.78c1.25,1.16,1.88,2.73,1.88,4.72,0,.65-.05,1.23-.15,1.75-.08,.45-.2,.94-.36,1.45h-11.46c-.02,.12-.03,.31-.03,.56,0,.87,.24,1.53,.71,1.98,.47,.45,1.11,.68,1.9,.68,1.26,0,2.23-.53,2.9-1.6h5.39c-.71,1.68-1.87,3.05-3.47,4.12-1.6,1.07-3.4,1.6-5.39,1.6-2.13,0-3.84-.59-5.11-1.78-1.27-1.18-1.91-2.79-1.91-4.83,0-.61,.06-1.24,.18-1.9,.3-1.72,.91-3.22,1.84-4.5,.93-1.28,2.08-2.27,3.47-2.96,1.38-.69,2.89-1.04,4.53-1.04,2.13,0,3.83,.58,5.08,1.73Zm-3.18,4.78c0-.79-.25-1.4-.74-1.82-.49-.42-1.15-.64-1.96-.64-.87,0-1.63,.26-2.3,.78-.66,.52-1.14,1.27-1.44,2.24h6.37c.04-.28,.06-.46,.06-.56Z"/>
        </g>
        <g>
          <path class="cls-7" d="M690.21,428.91l-2.42,13.71h-3.34l2.42-13.71h3.34Z"/>
          <path class="cls-7" d="M702.5,428.91l-.45,2.64h-3.65l-1.95,11.07h-3.34l1.95-11.07h-3.63l.47-2.64h10.61Z"/>
        </g>
        <g>
          <path class="cls-7" d="M583.9,474.29c-2.11-1.46-3.16-3.53-3.16-6.22,0-.27,.03-.66,.09-1.19h7.88c-.09,1.12,.18,2.01,.8,2.65,.62,.65,1.56,.97,2.83,.97,1.15,0,2.06-.25,2.72-.75,.66-.5,1-1.21,1-2.12s-.42-1.71-1.26-2.3c-.84-.59-2.15-1.25-3.92-1.99-1.71-.71-3.1-1.38-4.18-2.01-1.08-.63-2.01-1.5-2.81-2.59-.8-1.09-1.19-2.46-1.19-4.11-.03-2.04,.47-3.8,1.5-5.31,1.03-1.5,2.46-2.65,4.29-3.45,1.83-.8,3.92-1.19,6.28-1.19,2.12,0,4.01,.33,5.66,1,1.65,.66,2.93,1.62,3.85,2.88,.91,1.25,1.37,2.74,1.37,4.45,0,.44-.02,.77-.04,.97h-8.05c.03-.12,.04-.29,.04-.53,0-.83-.29-1.5-.86-2.01-.58-.52-1.36-.77-2.37-.77-1.06,0-1.92,.26-2.59,.77-.66,.52-1,1.22-1,2.1s.41,1.63,1.24,2.23c.83,.6,2.11,1.31,3.85,2.1,1.74,.8,3.16,1.53,4.27,2.21,1.11,.68,2.06,1.59,2.85,2.72,.8,1.14,1.19,2.53,1.19,4.18,0,1.83-.49,3.47-1.46,4.91-.97,1.45-2.37,2.57-4.2,3.38-1.83,.81-3.97,1.22-6.42,1.22-3.36,0-6.1-.73-8.21-2.19Z"/>
          <path class="cls-7" d="M627.59,470.68h-11.59l-2.83,5.49h-7.92l16.72-31.06h8.76l5.75,31.06h-8.01l-.88-5.49Zm-.88-5.75l-1.81-11.5-5.93,11.5h7.74Z"/>
          <path class="cls-7" d="M665.6,445.11l-1.06,5.97h-12.65l-1.15,6.68h9.47l-1.06,5.75h-9.47l-2.21,12.65h-7.57l5.49-31.06h20.22Z"/>
          <path class="cls-7" d="M676.08,451.08l-1.11,6.46h10.13l-1.02,5.71h-10.13l-1.24,6.95h11.46l-1.06,5.97h-19.02l5.49-31.06h19.02l-1.06,5.97h-11.46Z"/>
        </g>
      </g>
    </g>
  </g>
</svg>