<?xml version="1.0" encoding="UTF-8"?>
<svg id="Layer_1" data-name="Layer 1" xmlns="http://www.w3.org/2000/svg" xmlns:xlink="http://www.w3.org/1999/xlink" viewBox="0 0 1366 768">
  <defs>
    <style>
      .cls-1, .cls-2, .cls-3 {
        fill: none;
      }

      .cls-4 {
        fill: url(#linear-gradient-9);
      }

      .cls-4, .cls-5, .cls-6, .cls-7, .cls-8, .cls-9 {
        isolation: isolate;
      }

      .cls-4, .cls-5, .cls-8, .cls-9 {
        opacity: .78;
      }

      .cls-5 {
        fill: url(#linear-gradient-8);
      }

      .cls-10 {
        fill: url(#linear-gradient);
      }

      .cls-11 {
        clip-path: url(#clippath);
      }

      .cls-12 {
        fill: #f8ad41;
      }

      .cls-13 {
        fill: #f49343;
      }

      .cls-14 {
        fill: #014947;
      }

      .cls-15 {
        fill: #fff;
      }

      .cls-16 {
        fill: #e5f7f3;
      }

      .cls-17 {
        fill: #e8510e;
      }

      .cls-18 {
        fill: #d9d9dc;
      }

      .cls-19 {
        fill: #d98c81;
      }

      .cls-20 {
        fill: #252048;
      }

      .cls-21 {
        fill: #2c519f;
      }

      .cls-6 {
        opacity: .32;
      }

      .cls-6, .cls-7 {
        fill: #f8f9fc;
      }

      .cls-7 {
        opacity: .22;
      }

      .cls-22 {
        clip-path: url(#clippath-1);
      }

      .cls-8 {
        fill: url(#linear-gradient-47);
      }

      .cls-9 {
        fill: url(#linear-gradient-49);
      }

      .cls-23 {
        fill: url(#linear-gradient-3);
      }

      .cls-24 {
        fill: url(#linear-gradient-4);
      }

      .cls-25 {
        fill: url(#linear-gradient-2);
      }

      .cls-26 {
        fill: url(#linear-gradient-6);
      }

      .cls-27 {
        fill: url(#linear-gradient-7);
      }

      .cls-28 {
        fill: url(#linear-gradient-5);
      }

      .cls-2 {
        stroke-miterlimit: 10;
      }

      .cls-2, .cls-3 {
        stroke: #fff;
      }

      .cls-29 {
        fill: url(#linear-gradient-53);
      }

      .cls-30 {
        fill: url(#linear-gradient-54);
      }

      .cls-31 {
        fill: url(#linear-gradient-51);
      }

      .cls-32 {
        fill: url(#linear-gradient-52);
      }

      .cls-33 {
        fill: url(#linear-gradient-50);
      }

      .cls-34 {
        fill: url(#linear-gradient-41);
      }

      .cls-35 {
        fill: url(#linear-gradient-40);
      }

      .cls-36 {
        fill: url(#linear-gradient-43);
      }

      .cls-37 {
        fill: url(#linear-gradient-42);
      }

      .cls-38 {
        fill: url(#linear-gradient-45);
      }

      .cls-39 {
        fill: url(#linear-gradient-46);
      }

      .cls-40 {
        fill: url(#linear-gradient-44);
      }

      .cls-41 {
        fill: url(#linear-gradient-48);
      }

      .cls-42 {
        fill: url(#linear-gradient-14);
      }

      .cls-43 {
        fill: url(#linear-gradient-18);
      }

      .cls-44 {
        fill: url(#linear-gradient-22);
      }

      .cls-45 {
        fill: url(#linear-gradient-20);
      }

      .cls-46 {
        fill: url(#linear-gradient-21);
      }

      .cls-47 {
        fill: url(#linear-gradient-23);
      }

      .cls-48 {
        fill: url(#linear-gradient-15);
      }

      .cls-49 {
        fill: url(#linear-gradient-19);
      }

      .cls-50 {
        fill: url(#linear-gradient-16);
      }

      .cls-51 {
        fill: url(#linear-gradient-17);
      }

      .cls-52 {
        fill: url(#linear-gradient-13);
      }

      .cls-53 {
        fill: url(#linear-gradient-12);
      }

      .cls-54 {
        fill: url(#linear-gradient-10);
      }

      .cls-55 {
        fill: url(#linear-gradient-11);
      }

      .cls-56 {
        fill: url(#linear-gradient-27);
      }

      .cls-57 {
        fill: url(#linear-gradient-24);
      }

      .cls-58 {
        fill: url(#linear-gradient-26);
      }

      .cls-59 {
        fill: url(#linear-gradient-38);
      }

      .cls-60 {
        fill: url(#linear-gradient-35);
      }

      .cls-61 {
        fill: url(#linear-gradient-37);
      }

      .cls-62 {
        fill: url(#linear-gradient-34);
      }

      .cls-63 {
        fill: url(#linear-gradient-39);
      }

      .cls-64 {
        fill: url(#linear-gradient-36);
      }

      .cls-65 {
        fill: url(#linear-gradient-25);
      }

      .cls-66 {
        fill: url(#linear-gradient-28);
      }

      .cls-67 {
        fill: url(#linear-gradient-29);
      }

      .cls-68 {
        fill: url(#linear-gradient-33);
      }

      .cls-69 {
        fill: url(#linear-gradient-30);
      }

      .cls-70 {
        fill: url(#linear-gradient-32);
      }

      .cls-71 {
        fill: url(#linear-gradient-31);
      }

      .cls-3 {
        stroke-miterlimit: 10;
        stroke-width: 1px;
      }
    </style>
    <linearGradient id="linear-gradient" x1="0" y1="-715.5" x2="1366" y2="-715.5" gradientTransform="translate(0 768) scale(1 -1)" gradientUnits="userSpaceOnUse">
      <stop offset="0" stop-color="#1c134a"/>
      <stop offset=".63" stop-color="#010114"/>
      <stop offset=".67" stop-color="#001"/>
    </linearGradient>
    <clipPath id="clippath">
      <circle class="cls-1" cx="140.77" cy="170.05" r="57"/>
    </clipPath>
    <linearGradient id="linear-gradient-2" x1="717.35" y1="563.59" x2="824.35" y2="451.88" gradientTransform="translate(753.32 854.93) rotate(-166.72)" gradientUnits="userSpaceOnUse">
      <stop offset="0" stop-color="#02c6f3"/>
      <stop offset=".16" stop-color="#01bbec"/>
      <stop offset=".44" stop-color="#019edb"/>
      <stop offset=".8" stop-color="#0070c0"/>
      <stop offset=".85" stop-color="#0069bc"/>
    </linearGradient>
    <linearGradient id="linear-gradient-3" x1="159.69" y1="680.96" x2="179.69" y2="502.86" gradientTransform="translate(0 768) scale(1 -1)" gradientUnits="userSpaceOnUse">
      <stop offset=".04" stop-color="#0066b8"/>
      <stop offset=".34" stop-color="#007dc4"/>
      <stop offset=".72" stop-color="#00a1d7"/>
    </linearGradient>
    <linearGradient id="linear-gradient-4" x1="104.08" y1="659.24" x2="166.75" y2="487.16" gradientTransform="translate(0 768) scale(1 -1)" gradientUnits="userSpaceOnUse">
      <stop offset=".04" stop-color="#0066b8"/>
      <stop offset=".34" stop-color="#007dc4"/>
      <stop offset=".72" stop-color="#00a1d7"/>
    </linearGradient>
    <linearGradient id="linear-gradient-5" x1="43.43" y1="602.09" x2="364.38" y2="537.33" gradientTransform="translate(0 768) scale(1 -1)" gradientUnits="userSpaceOnUse">
      <stop offset=".15" stop-color="#0066b8"/>
      <stop offset=".4" stop-color="#007dc4"/>
      <stop offset=".72" stop-color="#00a1d7"/>
    </linearGradient>
    <linearGradient id="linear-gradient-6" x1="95.88" y1="692.59" x2="123.5" y2="683.74" gradientTransform="translate(0 768) scale(1 -1)" gradientUnits="userSpaceOnUse">
      <stop offset="0" stop-color="#ea5000"/>
      <stop offset="1" stop-color="#f9ae41"/>
    </linearGradient>
    <linearGradient id="linear-gradient-7" x1="-17.87" y1="180.73" x2="326.91" y2="146.09" gradientTransform="translate(0 768) scale(1 -1)" gradientUnits="userSpaceOnUse">
      <stop offset="0" stop-color="#7e1ac2"/>
      <stop offset="1" stop-color="#fd31ac"/>
    </linearGradient>
    <clipPath id="clippath-1">
      <path class="cls-1" d="M230.17,544.23c6.7,4.53,12.94,10.65,16.74,18.9s4.83,18.89,1.34,27.36c-5.26,12.73-18.76,16.67-30,13.91-11.23-2.76-21.21-10.53-31.86-15.77-10.65-5.24-23.35-7.7-33.09-.17-7.49,5.79-11.71,16.34-14.7,26.71-3.1,10.73-5.32,21.91-9.29,32.18-3.97,10.27-10.05,19.85-18.49,24.19-8.43,4.34-19.42,2.05-24.61-7.34-4.54-8.21-3.78-19.3-6.91-28.47-5.79-16.96-23.88-25.05-26.55-43.19-1.7-11.54,4-23.22,11.74-29.85,7.73-6.63,17.18-9.2,26.38-11.4,26.43-6.3,52.88-9.11,79.55-12.91,21.33-3.04,39.58-7.81,59.76,5.84h-.01Z"/>
    </clipPath>
    <linearGradient id="linear-gradient-8" x1="202.57" y1="81.32" x2="69.54" y2="421.87" gradientTransform="translate(0 768) scale(1 -1)" gradientUnits="userSpaceOnUse">
      <stop offset=".04" stop-color="#fcfbff" stop-opacity="0"/>
      <stop offset="1" stop-color="#fff"/>
    </linearGradient>
    <linearGradient id="linear-gradient-9" x1="132.37" y1="50.56" x2="-.55" y2="390.81" gradientTransform="translate(0 768) scale(1 -1)" gradientUnits="userSpaceOnUse">
      <stop offset="0" stop-color="#fcfbff" stop-opacity="0"/>
      <stop offset="1" stop-color="#fff"/>
    </linearGradient>
    <linearGradient id="linear-gradient-10" x1="199.34" y1="130.88" x2="224.65" y2="130.88" gradientTransform="translate(0 768) scale(1 -1)" gradientUnits="userSpaceOnUse">
      <stop offset="0" stop-color="#7e1ac2"/>
      <stop offset="1" stop-color="#fd31ac"/>
    </linearGradient>
    <linearGradient id="linear-gradient-11" x1="233.82" y1="148.99" x2="244.43" y2="148.99" gradientTransform="translate(0 768) scale(1 -1)" gradientUnits="userSpaceOnUse">
      <stop offset="0" stop-color="#7e1ac2"/>
      <stop offset="1" stop-color="#fd31ac"/>
    </linearGradient>
    <linearGradient id="linear-gradient-12" x1="18.16" y1="113.18" x2="72.01" y2="153.44" gradientTransform="translate(0 768) scale(1 -1)" gradientUnits="userSpaceOnUse">
      <stop offset="0" stop-color="#7e1ac2"/>
      <stop offset="1" stop-color="#fd31ac"/>
    </linearGradient>
    <linearGradient id="linear-gradient-13" x1="65.77" y1="35.19" x2="100.87" y2="89.39" gradientTransform="translate(0 768) scale(1 -1)" gradientUnits="userSpaceOnUse">
      <stop offset="0" stop-color="#7e1ac2"/>
      <stop offset="1" stop-color="#fd31ac"/>
    </linearGradient>
    <linearGradient id="linear-gradient-14" x1="-19.47" y1="99.58" x2="241.95" y2="302.02" gradientTransform="translate(0 768) scale(1 -1)" gradientUnits="userSpaceOnUse">
      <stop offset="0" stop-color="#ea5000"/>
      <stop offset="1" stop-color="#f9ae41"/>
    </linearGradient>
    <linearGradient id="linear-gradient-15" x1="147.9" y1="-41.58" x2="154.5" y2="258.58" gradientTransform="translate(0 768) scale(1 -1)" gradientUnits="userSpaceOnUse">
      <stop offset="0" stop-color="#214fb1"/>
      <stop offset="1" stop-color="aqua"/>
    </linearGradient>
    <linearGradient id="linear-gradient-16" x1="1.52" y1="46.05" x2="278.47" y2="260.5" gradientTransform="translate(0 768) scale(1 -1)" gradientUnits="userSpaceOnUse">
      <stop offset="0" stop-color="#ea5000"/>
      <stop offset="1" stop-color="#f9ae41"/>
    </linearGradient>
    <linearGradient id="linear-gradient-17" x1="-13.71" y1="85.53" x2="251.51" y2="290.91" gradientTransform="translate(0 768) scale(1 -1)" gradientUnits="userSpaceOnUse">
      <stop offset="0" stop-color="#ea5000"/>
      <stop offset="1" stop-color="#f9ae41"/>
    </linearGradient>
    <linearGradient id="linear-gradient-18" x1="-6.62" y1="20.56" x2="295.36" y2="254.4" gradientTransform="translate(0 768) scale(1 -1)" gradientUnits="userSpaceOnUse">
      <stop offset="0" stop-color="#ea5000"/>
      <stop offset="1" stop-color="#f9ae41"/>
    </linearGradient>
    <linearGradient id="linear-gradient-19" x1="168.85" y1="120.49" x2="226.92" y2="229.59" gradientTransform="translate(0 768) scale(1 -1)" gradientUnits="userSpaceOnUse">
      <stop offset="0" stop-color="#f38895"/>
      <stop offset="1" stop-color="#fdb7a2"/>
    </linearGradient>
    <linearGradient id="linear-gradient-20" x1="163.73" y1="124.17" x2="221.55" y2="232.8" gradientTransform="translate(0 768) scale(1 -1)" gradientUnits="userSpaceOnUse">
      <stop offset="0" stop-color="#f38895"/>
      <stop offset="1" stop-color="#fdb7a2"/>
    </linearGradient>
    <linearGradient id="linear-gradient-21" x1="170.74" y1="127.12" x2="224.51" y2="228.15" gradientTransform="translate(0 768) scale(1 -1)" gradientUnits="userSpaceOnUse">
      <stop offset="0" stop-color="#f38895"/>
      <stop offset="1" stop-color="#fdb7a2"/>
    </linearGradient>
    <linearGradient id="linear-gradient-22" x1="161.64" y1="126.44" x2="218.44" y2="233.18" gradientTransform="translate(0 768) scale(1 -1)" gradientUnits="userSpaceOnUse">
      <stop offset="0" stop-color="#f38895"/>
      <stop offset="1" stop-color="#fdb7a2"/>
    </linearGradient>
    <linearGradient id="linear-gradient-23" x1="172.22" y1="122.21" x2="227.77" y2="226.59" gradientTransform="translate(0 768) scale(1 -1)" gradientUnits="userSpaceOnUse">
      <stop offset="0" stop-color="#f38895"/>
      <stop offset="1" stop-color="#fdb7a2"/>
    </linearGradient>
    <linearGradient id="linear-gradient-24" x1="169.49" y1="122.92" x2="225.63" y2="228.4" gradientTransform="translate(0 768) scale(1 -1)" gradientUnits="userSpaceOnUse">
      <stop offset="0" stop-color="#f38895"/>
      <stop offset="1" stop-color="#fdb7a2"/>
    </linearGradient>
    <linearGradient id="linear-gradient-25" x1="170.19" y1="136.07" x2="221.51" y2="229.52" gradientTransform="translate(0 768) scale(1 -1)" gradientUnits="userSpaceOnUse">
      <stop offset="0" stop-color="#f38895"/>
      <stop offset="1" stop-color="#fdb7a2"/>
    </linearGradient>
    <linearGradient id="linear-gradient-26" x1="166.51" y1="124.03" x2="223.08" y2="230.33" gradientTransform="translate(0 768) scale(1 -1)" gradientUnits="userSpaceOnUse">
      <stop offset="0" stop-color="#f38895"/>
      <stop offset="1" stop-color="#fdb7a2"/>
    </linearGradient>
    <linearGradient id="linear-gradient-27" x1="161.7" y1="128.96" x2="217.43" y2="233.68" gradientTransform="translate(0 768) scale(1 -1)" gradientUnits="userSpaceOnUse">
      <stop offset="0" stop-color="#f38895"/>
      <stop offset="1" stop-color="#fdb7a2"/>
    </linearGradient>
    <linearGradient id="linear-gradient-28" x1="165.22" y1="127.25" x2="222.46" y2="231.5" gradientTransform="translate(0 768) scale(1 -1)" gradientUnits="userSpaceOnUse">
      <stop offset="0" stop-color="#f38895"/>
      <stop offset="1" stop-color="#fdb7a2"/>
    </linearGradient>
    <linearGradient id="linear-gradient-29" x1="115.21" y1="-41.22" x2="121.84" y2="260.09" gradientTransform="translate(0 768) scale(1 -1)" gradientUnits="userSpaceOnUse">
      <stop offset="0" stop-color="#214fb1"/>
      <stop offset="1" stop-color="aqua"/>
    </linearGradient>
    <linearGradient id="linear-gradient-30" x1="144.96" y1="40.62" x2="173.11" y2="79.75" gradientTransform="translate(0 768) scale(1 -1)" gradientUnits="userSpaceOnUse">
      <stop offset="0" stop-color="#ea5000"/>
      <stop offset="1" stop-color="#f9ae41"/>
    </linearGradient>
    <linearGradient id="linear-gradient-31" x1="128.43" y1="77.9" x2="151.41" y2="77.9" gradientTransform="translate(0 768) scale(1 -1)" gradientUnits="userSpaceOnUse">
      <stop offset="0" stop-color="#f38895"/>
      <stop offset="1" stop-color="#fdb7a2"/>
    </linearGradient>
    <linearGradient id="linear-gradient-32" x1="128.45" y1="84.18" x2="131.43" y2="84.18" gradientTransform="translate(0 768) scale(1 -1)" gradientUnits="userSpaceOnUse">
      <stop offset="0" stop-color="#f38895"/>
      <stop offset="1" stop-color="#fdb7a2"/>
    </linearGradient>
    <linearGradient id="linear-gradient-33" x1="133.54" y1="-41.57" x2="140.16" y2="259.51" gradientTransform="translate(0 768) scale(1 -1)" gradientUnits="userSpaceOnUse">
      <stop offset="0" stop-color="#214fb1"/>
      <stop offset="1" stop-color="aqua"/>
    </linearGradient>
    <linearGradient id="linear-gradient-34" x1="180.78" y1="-42.34" x2="187.37" y2="257.61" gradientTransform="translate(0 768) scale(1 -1)" gradientUnits="userSpaceOnUse">
      <stop offset="0" stop-color="#214fb1"/>
      <stop offset="1" stop-color="aqua"/>
    </linearGradient>
    <linearGradient id="linear-gradient-35" x1="151.06" y1="51.87" x2="134.81" y2="91.45" gradientTransform="translate(0 768) scale(1 -1)" gradientUnits="userSpaceOnUse">
      <stop offset="0" stop-color="#ea5000"/>
      <stop offset="1" stop-color="#f9ae41"/>
    </linearGradient>
    <linearGradient id="linear-gradient-36" x1="150.99" y1="94.11" x2="174.02" y2="94.11" gradientTransform="translate(0 768) scale(1 -1)" gradientUnits="userSpaceOnUse">
      <stop offset="0" stop-color="#f38895"/>
      <stop offset="1" stop-color="#fdb7a2"/>
    </linearGradient>
    <linearGradient id="linear-gradient-37" x1="170.07" y1="101.09" x2="174.02" y2="101.09" gradientTransform="translate(0 768) scale(1 -1)" gradientUnits="userSpaceOnUse">
      <stop offset="0" stop-color="#f38895"/>
      <stop offset="1" stop-color="#fdb7a2"/>
    </linearGradient>
    <linearGradient id="linear-gradient-38" x1="163.21" y1="-42.08" x2="169.81" y2="258.28" gradientTransform="translate(0 768) scale(1 -1)" gradientUnits="userSpaceOnUse">
      <stop offset="0" stop-color="#214fb1"/>
      <stop offset="1" stop-color="aqua"/>
    </linearGradient>
    <linearGradient id="linear-gradient-39" x1="129.72" y1="215.25" x2="175.31" y2="213.47" gradientTransform="translate(0 768) scale(1 -1)" gradientUnits="userSpaceOnUse">
      <stop offset="0" stop-color="#f38895"/>
      <stop offset="1" stop-color="#fdb7a2"/>
    </linearGradient>
    <linearGradient id="linear-gradient-40" x1="124.8" y1="225.96" x2="178.68" y2="242.22" gradientTransform="translate(0 768) scale(1 -1)" gradientUnits="userSpaceOnUse">
      <stop offset="0" stop-color="#f38895"/>
      <stop offset=".24" stop-color="#f69799"/>
      <stop offset=".71" stop-color="#fbae9f"/>
      <stop offset="1" stop-color="#fdb7a2"/>
    </linearGradient>
    <linearGradient id="linear-gradient-41" x1="66.84" y1="163.08" x2="155.04" y2="231.3" gradientTransform="translate(0 768) scale(1 -1)" gradientUnits="userSpaceOnUse">
      <stop offset="0" stop-color="#f38895"/>
      <stop offset="1" stop-color="#fdb7a2"/>
    </linearGradient>
    <linearGradient id="linear-gradient-42" x1="61.48" y1="168.9" x2="150.48" y2="237.75" gradientTransform="translate(0 768) scale(1 -1)" gradientUnits="userSpaceOnUse">
      <stop offset="0" stop-color="#f38895"/>
      <stop offset="1" stop-color="#fdb7a2"/>
    </linearGradient>
    <linearGradient id="linear-gradient-43" x1="69.93" y1="178.69" x2="147.32" y2="238.55" gradientTransform="translate(0 768) scale(1 -1)" gradientUnits="userSpaceOnUse">
      <stop offset="0" stop-color="#f38895"/>
      <stop offset="1" stop-color="#fdb7a2"/>
    </linearGradient>
    <linearGradient id="linear-gradient-44" x1="69.52" y1="172.38" x2="150.32" y2="234.88" gradientTransform="translate(0 768) scale(1 -1)" gradientUnits="userSpaceOnUse">
      <stop offset="0" stop-color="#f38895"/>
      <stop offset="1" stop-color="#fdb7a2"/>
    </linearGradient>
    <linearGradient id="linear-gradient-45" x1="73.28" y1="168.58" x2="153.05" y2="230.28" gradientTransform="translate(0 768) scale(1 -1)" gradientUnits="userSpaceOnUse">
      <stop offset="0" stop-color="#f38895"/>
      <stop offset="1" stop-color="#fdb7a2"/>
    </linearGradient>
    <linearGradient id="linear-gradient-46" x1="75.26" y1="163.24" x2="155.58" y2="225.37" gradientTransform="translate(0 768) scale(1 -1)" gradientUnits="userSpaceOnUse">
      <stop offset="0" stop-color="#f38895"/>
      <stop offset="1" stop-color="#fdb7a2"/>
    </linearGradient>
    <linearGradient id="linear-gradient-47" x1="556.51" y1="473.22" x2="863.73" y2="475.92" gradientTransform="translate(1927.04 179.42) rotate(-180) scale(1 -1)" gradientUnits="userSpaceOnUse">
      <stop offset="0" stop-color="#fcfbff" stop-opacity="0"/>
      <stop offset="1" stop-color="#fff"/>
    </linearGradient>
    <linearGradient id="linear-gradient-48" x1="558.2" y1="473.7" x2="752.91" y2="475.41" gradientTransform="translate(1927.04 179.42) rotate(-180) scale(1 -1)" gradientUnits="userSpaceOnUse">
      <stop offset="0" stop-color="#ea5000"/>
      <stop offset="1" stop-color="#f9ae41"/>
    </linearGradient>
    <linearGradient id="linear-gradient-49" x1="556.51" y1="542.62" x2="863.73" y2="545.32" gradientTransform="translate(1927.04 179.42) rotate(-180) scale(1 -1)" gradientUnits="userSpaceOnUse">
      <stop offset="0" stop-color="#fcfbff" stop-opacity="0"/>
      <stop offset="1" stop-color="#fff"/>
    </linearGradient>
    <linearGradient id="linear-gradient-50" x1="557.34" y1="542.85" x2="809.52" y2="545.07" gradientTransform="translate(1927.04 179.42) rotate(-180) scale(1 -1)" gradientUnits="userSpaceOnUse">
      <stop offset="0" stop-color="#214fb1"/>
      <stop offset="1" stop-color="aqua"/>
    </linearGradient>
    <linearGradient id="linear-gradient-51" x1="817.45" y1="615.98" x2="775.77" y2="587.03" gradientTransform="translate(0 768) scale(1 -1)" gradientUnits="userSpaceOnUse">
      <stop offset="0" stop-color="#ea5000"/>
      <stop offset=".27" stop-color="#f0761a"/>
      <stop offset=".54" stop-color="#f4942f"/>
      <stop offset=".77" stop-color="#f7a73c"/>
      <stop offset=".93" stop-color="#f9ae41"/>
    </linearGradient>
    <linearGradient id="linear-gradient-52" x1="514.59" y1="501.79" x2="545.89" y2="520.84" gradientTransform="translate(-179.74 154.84) rotate(50.96) scale(1 -1)" gradientUnits="userSpaceOnUse">
      <stop offset="0" stop-color="#ea5000"/>
      <stop offset="0" stop-color="#ea5000"/>
      <stop offset=".46" stop-color="#f28223"/>
      <stop offset=".81" stop-color="#f7a238"/>
      <stop offset="1" stop-color="#f9ae41"/>
    </linearGradient>
    <linearGradient id="linear-gradient-53" x1="680.89" y1="283.21" x2="712.08" y2="302.19" gradientTransform="translate(1755.73 768) rotate(-180)" gradientUnits="userSpaceOnUse">
      <stop offset="0" stop-color="#ea5000"/>
      <stop offset="0" stop-color="#ea5000"/>
      <stop offset=".46" stop-color="#f28223"/>
      <stop offset=".81" stop-color="#f7a238"/>
      <stop offset="1" stop-color="#f9ae41"/>
    </linearGradient>
    <linearGradient id="linear-gradient-54" x1="380.47" y1="272.94" x2="411.66" y2="291.93" gradientTransform="translate(0 768) scale(1 -1)" gradientUnits="userSpaceOnUse">
      <stop offset="0" stop-color="#ea5000"/>
      <stop offset="0" stop-color="#ea5000"/>
      <stop offset=".46" stop-color="#f28223"/>
      <stop offset=".81" stop-color="#f7a238"/>
      <stop offset="1" stop-color="#f9ae41"/>
    </linearGradient>
  </defs>
  <rect class="cls-10" y="1" width="1366" height="2965"/>
  <g>
    <g>
      <circle class="cls-2" cx="141.28" cy="170.19" r="70.65"/>
      <g class="cls-11">
        <g>
          <circle class="cls-25" cx="140.77" cy="170.05" r="57"/>
          <g>
            <path class="cls-23" d="M134.65,108.21c-4.63,8.92-3.11,20.64,3.62,28.1,5.18,5.74,13.04,9.08,16.7,15.89,2.68,4.99,2.61,10.95,2.34,16.61s-.62,11.55,1.61,16.76c2.23,5.21,7.97,9.4,13.42,7.84,4.66-1.34,7.36-6.22,8.58-10.91,1.21-4.69,1.48-9.7,3.65-14.03,1.61-3.23,4.18-5.86,6.58-8.55s4.74-5.6,5.75-9.06c2.04-7.02-.03-13.15-5.1-18.21-4.28-4.27-10.43-9.83-15.58-12.71,.48,3.13,2.17,5.93,2,9.29-.17,3.37-2.29,6.89-5.6,7.51-2.61,.49-5.21-.87-7.31-2.5-6.66-5.14-10.72-13.48-10.69-21.89l-19.97-4.13h0Z"/>
            <path class="cls-24" d="M124.81,120.77c1.34,4.5,1.12,9.33,1.24,14.05,.12,4.72,.67,9.66,3.28,13.51,2.88,4.25,7.78,6.48,11.56,9.9,4.02,3.63,6.98,10.58,4.79,23.07-1.58,8.99-11.87,13.23-18.95,7.83-18.47-14.06-40.22-42.23-22.68-72.13,5.21-8.88,17.21-8.15,20.77,3.77h0Z"/>
            <path class="cls-28" d="M204.92,168.83c-3.32-2.28-6.12-1.42-8.69,1.69-2.56,3.11-3.47,7.21-4.46,11.12-3.16,12.45-10.35,23.77-23.72,26.65-9.23,1.99-18.67,2.31-27.94,.35-26.79-5.67-53.06-34.81-49.79-63.27,.24-2.12,.36-5.94,1.6-7.73-9.62,13.96-13.55,24.32-9.82,40.85,1.54,6.8,4.83,13.14,9.63,18.19,33.35,35.04,70.25,28.32,80,24.14,9.75-4.19,16.48-12.47,22.36-21.31s9.88-19.75,10.81-30.69h.02Z"/>
          </g>
        </g>
      </g>
    </g>
    <path class="cls-26" d="M101.03,77.87c-1.26,5.32,2.04,10.66,7.36,11.92s10.66-2.04,11.92-7.36-2.04-10.66-7.36-11.92-10.66,2.04-11.92,7.36Z"/>
  </g>
  <path class="cls-6" d="M310.63,302.11c50.89-19.26,94.12-58.01,118.82-106.49,8.87-17.41,15.12-39.35,4.39-55.68-6.26-9.52-17.37-15.09-28.64-16.73-11.28-1.64-22.78,.22-33.83,2.98-21.25,5.29-41.55,13.82-62.57,19.99-21.01,6.17-43.36,9.96-64.8,5.46-21.43-4.5-41.82-18.6-49.06-39.27-4.1-11.68-3.94-24.85-10.08-35.6-9.06-15.84-29.39-21.79-47.61-20.88-38.67,1.93-72.85,28.1-94.32,60.32C21.46,148.44,10.58,186.37,0,223.62V0H293.55c-4.55,11.59-9.55,23.52-10.43,35.94s2.51,25.76,11.76,34.1c11.28,10.16,28.16,10.64,43.24,8.89,26.11-3.04,51.38-11.02,77.22-15.88,25.84-4.86,53.26-6.44,77.79,3.02,24.53,9.46,45.36,32.15,46.02,58.43,.72,29.06-21.76,53.04-43.91,71.85-55.48,47.11-116.56,79.94-184.6,105.78v-.02Z"/>
  <g>
    <g>
      <path class="cls-27" d="M230.17,544.23c6.7,4.53,12.94,10.65,16.74,18.9s4.83,18.89,1.34,27.36c-5.26,12.73-18.76,16.67-30,13.91-11.23-2.76-21.21-10.53-31.86-15.77-10.65-5.24-23.35-7.7-33.09-.17-7.49,5.79-11.71,16.34-14.7,26.71-3.1,10.73-5.32,21.91-9.29,32.18-3.97,10.27-10.05,19.85-18.49,24.19-8.43,4.34-19.42,2.05-24.61-7.34-4.54-8.21-3.78-19.3-6.91-28.47-5.79-16.96-23.88-25.05-26.55-43.19-1.7-11.54,4-23.22,11.74-29.85,7.73-6.63,17.18-9.2,26.38-11.4,26.43-6.3,52.88-9.11,79.55-12.91,21.33-3.04,39.58-7.81,59.76,5.84h-.01Z"/>
      <g class="cls-22">
        <g>
          <path class="cls-5" d="M153.73,482.41c.96-.21,1.13,1.64,.19,1.87-7.67,1.83-14.29,6.95-19.58,13.82,3.71-1.53,7.98-1.17,11.74-.35,6.72,1.47,13.11,4.81,18.97,9.11,12.95,9.51,23.12,23.38,34.3,35.69,10.85,11.95,23.21,22.47,38.02,23.97,6.27,.64,12.69-.54,18.32-4.18,5.78-3.73,10.18-10.1,12.81-17.48,5.86-16.47,2.58-34.95-5.91-48.98-9.35-15.44-23.53-24.41-38.13-29.64-3.57-1.28-7.19-2.35-10.81-3.38-1.98-.56-1.59-4.44,.45-3.96,14.71,3.5,29.68,10.02,41.39,22.03,11.02,11.3,19.35,27.94,19.24,46.21-.09,16.25-6.61,32.32-18.58,39.55-11.62,7.03-25.76,4.61-37.14-1.95-14.29-8.24-25.27-23.02-36.73-36.08-10.11-11.52-21.63-22.9-35.31-26.56-3.04-.81-6.35-1.55-9.45-.92-2.19,.45-4.97,1.66-6.2,4.16-1.97,4,2.73,7.31,4.81,9.26,3.25,3.06,6.51,6.11,9.77,9.14,13.17,12.22,26.52,24.27,40.7,34.6,24.97,18.18,53.33,31.61,82.61,30.63,3.41-.11,6.81-.43,10.2-.94,.91-.14,1.09,1.61,.18,1.77-28.29,4.98-56.88-4.54-82.14-20.23-14.48-8.99-28.22-19.89-41.4-31.58-6.79-6.03-13.48-12.23-20.16-18.47-2.84-2.66-6.85-5.36-7.99-9.86-.08-.31-.07-.62-.11-.93-1.76,3.63-3.24,7.46-4.39,11.39-5.19,17.66-4.87,37.06-4.02,55.57,.89,19.17,2.48,38.67-.49,57.69-2.58,16.51-8.65,33.32-19.87,43.35-10.77,9.62-26.49,12.87-37.99,3.34-1.28-1.06,.06-3.93,1.41-2.93,10.64,7.84,23.92,5.92,33.97-2.55,11.54-9.71,17.55-26.91,19.9-43.53,5.21-36.78-5.59-75.09,4.96-111.05,5.26-17.95,16.88-34.16,32.44-37.62l.02,.02Z"/>
          <path class="cls-4" d="M36.08,574.55c2.5,11.42,6.48,22.52,13.8,30.37,6.06,6.5,14.13,10.45,22.17,9.57,8.3-.9,15.51-6.86,20.66-14.85,5.4-8.39,8.38-18.6,9.73-29.16,1.58-12.45,1.06-25.11,.53-37.63-.06-1.47,1.75-1.78,1.83-.29,1.25,22.85,2.38,47.96-9.06,67.42-5.11,8.69-12.45,15.57-21.07,17.47-8.35,1.84-17.05-1.45-23.87-7.54-8.97-8.02-14.83-21.26-16.68-34.72-.19-1.39,1.64-2.05,1.95-.64h0Z"/>
        </g>
      </g>
      <path class="cls-54" d="M221.59,646.02c-3.37,5.28-9.53,7.56-14.57,5.15-5.04-2.41-8.44-9.5-7.53-16.16,1.44-10.52,10.79-14.81,18.28-12.12,8.09,2.91,8.62,15.63,3.82,23.13h0Z"/>
      <path class="cls-55" d="M243.21,622.82c-1.31,2.04-3.6,3.08-5.62,2.39-2.13-.72-3.76-3.35-3.77-6.12-.02-2.77,1.57-5.43,3.7-6.19,4.89-1.75,9.05,4.67,5.69,9.91h0Z"/>
      <path class="cls-53" d="M34.41,609.98c2.78-3.34,7.36-2.21,10.88-.24,10.78,6.04,19.31,18.1,22.78,32.23,.62,2.54,1.06,5.45-.04,7.73-1.06,2.2-3.31,3.14-5.35,2.89s-3.91-1.48-5.68-2.77c-5.84-4.29-32.96-27.38-22.59-39.83h0Z"/>
      <path class="cls-52" d="M77.26,706.9c-2.95-2.79-5.61-7.07-4.94-11.62,.45-3.02,2.33-5.47,4.52-6.86,2.19-1.39,4.67-1.86,7.11-2.19,7.59-1.01,21.51,2.05,19.11,15.63-2.58,14.62-18.76,11.7-25.8,5.04Z"/>
    </g>
    <g>
      <path class="cls-42" d="M164.1,571.38c2.77-7.04,4.94-15.26,2.49-22.44-1.75-5.12-5.58-8.79-9.56-11.59-3.99-2.8-8.31-4.96-12-8.29-4.27-3.86-7.51-9.1-11.48-13.39-2.54-2.74-6.07-5.2-9.23-3.6-2.38,1.21-3.63,4.29-4.54,7.18-3.45,10.97-4.86,22.84-4.1,34.5,.27,4.12,.97,8.6,3.6,11.27,2.03,2.06,4.81,2.63,7.39,3.47,5.92,1.92,11.41,5.67,15.79,10.78l21.64-7.9h0Z"/>
      <path class="cls-48" d="M129.22,623.75l-8.89,37.34s-1.5,29.78,27.64,29.11c29.14-.67,33.9-22.91,33.9-22.91l-12.6-43.54h-40.05Z"/>
      <path class="cls-50" d="M150.92,556.66s-14.76,5.61-31.78,14.98c0,0,5.12,45.12,5.12,48.73s-1.19,25.55-1.19,25.55c0,0,31.19,16.7,53.14,0,0,0-4.99-21.36-4.74-24.35s7.84-52.34,7.84-52.34c-7.24-6.25-28.39-12.56-28.39-12.56h0Z"/>
      <path class="cls-17" d="M165.85,597.92c-4.6,4.05-10.09,6.86-15.46,8.86-5.43,2.02-11.12,3.29-16.79,3.27-.97,0-.9,1.79,.04,1.86,5.88,.41,11.73-.28,17.36-2.5,2.77-1.09,5.46-2.49,8.02-4.21,2.62-1.76,5.02-3.89,7.41-6.09,.57-.52,0-1.71-.58-1.19h0Z"/>
      <path class="cls-17" d="M164.24,608.2c-3.18,1.99-6.75,3.21-10.24,4.03-3.52,.83-7.08,1.13-10.66,1.03-1.19-.03-1.33,2.13-.14,2.31,3.71,.57,7.53,.26,11.17-.81,3.7-1.08,7.03-3,10.34-5.31,.61-.43,.17-1.65-.47-1.25h0Z"/>
      <path class="cls-17" d="M124.22,647.29c.04,.59,.47,.91,.85,.78,.05,.04,.09,.08,.15,.11,3.21,1.25,6.47,2.29,9.76,3.1,5.84,1.44,11.79,2.18,17.75,2.22,5.72,.04,11.59-.41,17.18-2.05,.41,.4,1.14,.18,1.17-.68,.07-1.74,0-3.5,0-5.24,0-1.75,0-3.49,0-5.24,0-.14-.02-.27-.06-.38-.02-.27-.15-.51-.33-.68-.54-.47-1.25-.71-1.83-1.09-.56-.36-1.1-.76-1.62-1.21-1-.88-1.86-2.01-2.47-3.34-1.35-2.96-1.33-6.44-1.54-9.74-.04-.61-.47-.85-.83-.74-.09-.07-.2-.13-.31-.15-1.85-.28-3.7-.52-5.55-.7-3.29-.32-6.58-.42-9.88-.37-1.65,.03-3.29,.1-4.94,.22-1.44,.1-2.92,.16-4.36,.42-.29-.3-.8-.26-.95,.35,0,.03,0,.05-.02,.08-.06,.11-.09,.25-.1,.39-.78,2.97-2.06,5.72-3.8,7.97-.91,1.18-1.93,2.21-3.05,3.07-1.14,.87-2.33,1.44-3.58,2-.02,0-.03,.02-.04,.03-.36-.08-.76,.17-.75,.77,.02,1.69-.02,3.4-.17,5.08-.07,.85-.18,1.69-.3,2.53-.06,.38-.12,.75-.18,1.13-.08,.44-.2,.9-.18,1.35h0Zm1.6-.78c.08-.48,.13-.98,.19-1.42,.12-.86,.22-1.73,.29-2.61,.12-1.47,.15-2.95,.1-4.42,2.68-.81,5.22-2.98,7.11-5.43,1.78-2.31,3.16-5.15,3.83-8.25,.83-.05,1.66-.19,2.49-.27,.9-.09,1.79-.16,2.69-.22,6.46-.44,12.96-.28,19.41,.52-.04,3.48,.22,7.23,1.65,10.27,.73,1.56,1.76,2.83,2.94,3.86,.55,.49,1.14,.92,1.75,1.3,.45,.28,.92,.58,1.41,.78,0,1.64-.02,3.29-.02,4.93,0,1.49-.05,3-.02,4.49-3.09,.5-6.19,1.03-9.3,1.32-5.85,.55-11.74,.42-17.56-.41-5.74-.81-11.42-2.32-16.94-4.46l-.02,.02Z"/>
      <path class="cls-51" d="M143.66,565.86c-7.97-4.22-14.61-7.76-24.05-1.59,0,0-17.9,11.07-26.58,10.42-11.76-.87-18.66,16.53-10.71,28.01,5.42,7.83,21.3,5.19,21.3,5.19l22.84-5.23,17.21-36.8h0Z"/>
      <path class="cls-17" d="M161.73,561.24c1.83-3.47,2.65-7.83,1.3-11.56-1.03-2.85-3.18-5.04-5.53-6.68s-4.93-2.82-7.37-4.3c-6.67-4.08-12.13-10.53-15.38-18.15-.29-.67-.57-1.37-1.05-1.89s-1.22-.82-1.84-.52c-.49,.24-.79,.78-1.05,1.3-3.35,6.74-4.99,14.51-4.7,22.19,.14,3.78,.82,7.71,2.95,10.67,1.64,2.28,3.99,3.78,5.89,5.8,2.08,2.2,3.57,4.98,5.29,7.52,1.72,2.55,3.82,4.97,6.54,6.01,6.06,2.32,12.24-5.28,14.93-10.38h.02Z"/>
      <path class="cls-17" d="M160.22,566.32c1.2,.26,2.56-.09,3.65-.78,1.18-.75,2.01-1.94,2.78-3.25,.74-1.28,1.47-2.57,2.54-3.46,.95-.8,2.08-1.27,3.22-1.4,.63-.07,1.28-.03,1.91,.12,.37,.09,.84,.21,1.21,.46,.14-.17,.3-.31,.48-.4,.45-.22,1-.04,1.31,.4,0,.01,0,.03,.02,.04h0c.57,.57,.55,1.69,.13,2.37-.48,.78-1.47,.7-1.97,0-.26-.36-.41-.8-.39-1.28-.34-.11-.69-.29-1-.36-.55-.13-1.1-.15-1.65-.08-1.12,.14-2.21,.68-3.08,1.56-1.01,1.02-1.67,2.49-2.47,3.74-.78,1.22-1.71,2.19-2.88,2.77-1.27,.63-2.59,.64-3.92,.28-.37-.1-.25-.79,.12-.71v-.02Z"/>
      <g>
        <path class="cls-43" d="M174.02,565.74c6.65,1.6,10.98,4.77,14.11,15.44s15.81,35.92,10.09,46.47c-11.85,21.81-28.55,3.87-21.14-11.43l-6.5-15.8,3.44-34.67h0Z"/>
        <path class="cls-17" d="M176.57,610.71c.49-1.93,1.47-3.53,2.77-4.74,2.91-2.71,6.62-2.65,10.08-2.8,.37-.02,.38,.68,.02,.72-3.1,.3-6.35,.9-8.95,3.2-1.06,.94-1.99,2.24-2.43,3.79-.22,.75-.34,1.55-.33,2.34,0,.86,.22,1.57,.43,2.37,.25,.97-.86,1.54-1.28,.7-.8-1.58-.73-3.87-.3-5.58h-.01Z"/>
        <path class="cls-17" d="M177.46,615.13c.47-.68,1.16-1.22,1.74-1.74,.59-.54,1.21-1.05,1.83-1.53,1.21-.93,2.48-1.74,3.8-2.41,2.68-1.37,5.51-1.88,8.38-2.16,.39-.04,.39,.68,.02,.74-2.73,.43-5.4,1.67-7.91,3.07-1.24,.69-2.45,1.47-3.61,2.37-.58,.45-1.15,.92-1.7,1.42-.57,.51-1.09,1.16-1.68,1.61-.7,.53-1.38-.63-.87-1.37h0Z"/>
      </g>
      <g>
        <path class="cls-20" d="M200.14,569.64l-2.83,7.25c-.2,.51-.68,.72-1.09,.47l-5.15-3.15c-.4-.25-.57-.86-.37-1.36l2.83-7.25c.2-.51,.68-.72,1.09-.47l5.15,3.15c.4,.25,.57,.86,.37,1.36Z"/>
        <path class="cls-49" d="M205.3,562.51c-5.62,19.56,.79,38.92-6.39,58.4-3.71,10.08-13.96,10.63-18.47,.21l4.5-16.32,10.12-36.77,10.24-5.52Z"/>
        <path class="cls-17" d="M191.51,629.6c-.47-.49-1.14-.43-1.72-.56-.59-.13-1.18-.32-1.75-.55-1.15-.47-2.22-1.19-3.19-2.08-.95-.87-1.79-1.96-2.5-3.13-.35-.57-.65-1.18-.95-1.8-.33-.69-.58-1.47-.98-2.09-.54-.85-1.43,.1-1.32,.95,.1,.78,.53,1.62,.87,2.27,.36,.71,.78,1.38,1.23,2.01,.86,1.21,1.87,2.24,2.94,3.14s2.23,1.63,3.42,2.21c.59,.28,1.19,.52,1.8,.7s1.44,.52,2.02,.11c.31-.22,.43-.85,.13-1.17h0Z"/>
        <g>
          <path class="cls-45" d="M195.07,568.03l.74,8.32c12.27-.61,16.72-10.93,20.64-14.64l-11.89-10.49-9.5,16.81h0Z"/>
          <path class="cls-46" d="M210.85,555.3c-.14,.32-.24,.67-.27,1.05,0,.1-.02,.2-.02,.3-.02,1.05,.41,2.01,1.09,2.53,.26,.21,.56,.35,.87,.41l2,.4,2.82,.56c.4,.08,.8,.02,1.15-.15,.5-.23,.91-.68,1.18-1.26,.14-.32,.23-.67,.27-1.05,.13-1.38-.57-2.66-1.62-3.03h0c-.06-.02-.12-.04-.18-.05l-4.79-1.16s-.09-.02-.14-.03c-.97-.16-1.89,.46-2.34,1.47h-.02Z"/>
          <path class="cls-44" d="M221.31,539.85c-.37-1.34-1.58-2-2.62-1.41l-8.9,5.06-7.09,8.77,5.36,8.07,6.29-13.15,6.11-4.48c.79-.58,1.15-1.78,.85-2.86h0Z"/>
          <polygon class="cls-20" points="202.71 552.27 204.16 550.47 211.3 547.46 213.44 549.11 207.67 560.64 202.71 552.27"/>
          <path class="cls-47" d="M220.16,563.62c-.1,1-.63,1.89-1.43,2.28l-4.56,2.18c-1.17,.56-2.5-.15-2.98-1.6-.14-.42-.19-.85-.17-1.28,0-.08,0-.15,0-.22,0-.06,0-.13,.03-.19,.15-.99,.71-1.85,1.53-2.19l4.61-1.99c.66-.27,1.36-.16,1.91,.28,.08,.06,.16,.13,.24,.21,.28,.26,.51,.62,.65,1.05,.17,.49,.22,1,.17,1.48h-.01Z"/>
          <path class="cls-20" d="M219.11,560.88c-.17,.5-.45,.94-.85,1.26l-4.09,3.32c-1.02,.83-2.69,.85-3.46-.96,.15-.99,1.06-1.56,1.87-1.9l4.61-1.99c.66-.27,1.36-.16,1.91,.28h.01Z"/>
          <path class="cls-20" d="M216.59,559.3c-.03,.79-.33,1.56-.87,2.08l-2.71,2.5c-1,.96-2.42,.75-3.21-.46-.35-.54-.52-1.17-.52-1.81v-.19c.04-.86,.36-1.68,.96-2.22l2.79-2.35c.47-.42,1.04-.58,1.57-.5,.55,.07,1.08,.42,1.46,.99s.55,1.27,.52,1.96h0Z"/>
          <path class="cls-57" d="M210.3,561.49c0,.06,0,.13,0,.19v.23h0c0,.56,.13,1.12,.41,1.63,.71,1.29,2.12,1.64,3.18,.78l4.1-3.31c.2-.17,.37-.36,.51-.58,.27-.41,.44-.91,.49-1.42,.07-.69-.05-1.4-.4-2.01-.2-.34-.44-.61-.72-.81-.21-.15-.44-.25-.68-.31-.53-.14-1.1-.03-1.59,.34l-3.93,2.97-.25,.19c-.63,.48-1.01,1.26-1.1,2.12h-.01Z"/>
          <path class="cls-20" d="M211.68,559.13l-.25,.19c-.63,.48-1.01,1.26-1.1,2.12,0,.06,0,.13,0,.19v.23h0c.85,.69,2.01,.6,2.8-.29l1.43-1.62,3.11-3.51c.09-.1,.17-.2,.23-.31,.22-.33,.37-.71,.45-1.11h0c-.06-.02-.12-.04-.18-.05l-4.79-1.17s-.09-.02-.14-.03l-2.63,2.82c-.02,1.05,.41,2.01,1.09,2.53h0Z"/>
          <path class="cls-65" d="M208.99,551.72c-.2,.44-.3,.95-.29,1.48,.03,1.58,1.06,2.84,2.32,2.85h1.58l3.3,.03c.5,0,.96-.2,1.33-.54,.27-.23,.49-.55,.65-.91,.2-.44,.3-.95,.28-1.48-.05-1.46-.99-2.64-2.16-2.7l-1.58-.07-1.68-.08-1.62-.07c-.92-.05-1.72,.57-2.13,1.5h0Z"/>
          <path class="cls-20" d="M214.99,555.03c.06,.79-.14,1.61-.61,2.23l-2.37,2.99c-.87,1.14-2.3,1.21-3.23,.16-.41-.47-.65-1.06-.73-1.69,0-.06-.02-.13-.02-.19-.07-.86,.15-1.73,.68-2.38l2.47-2.86c.41-.5,.95-.77,1.49-.79,.56-.03,1.12,.2,1.56,.69,.45,.49,.7,1.15,.76,1.84Z"/>
          <path class="cls-58" d="M217.32,554.22c0,.79-.24,1.59-.74,2.16l-3.65,4.06c-.93,1.06-2.37,.98-3.23-.16-.38-.51-.59-1.12-.63-1.76,0-.06,0-.13,0-.19-.02-.86,.26-1.71,.83-2.31l3.74-3.93c.44-.46,1-.68,1.54-.65,.56,.02,1.1,.31,1.52,.84s.63,1.21,.64,1.91v.03Z"/>
          <g>
            <g>
              <path class="cls-20" d="M198.03,567.67l6.51-13.32,7.27-2.84-.52,5.68-2.56,2.18s.3,12.77-10.7,8.3h0Z"/>
              <path class="cls-20" d="M211.81,551.51l3.55,3.3c.77,.72,.94,2.07,.38,3.05h0c-.5,.87-1.42,1.16-2.19,.7l-2.26-1.36,.52-5.68h0Z"/>
            </g>
            <g>
              <path class="cls-56" d="M195.07,568.03l7.64-15.76,8.57-3.39-.6,6.71-3.01,2.59s.39,15.07-12.6,9.85h0Z"/>
              <path class="cls-20" d="M212.75,550.29l-1.18,4.83,1.03,.95,1.36,1.24c.07,.07,.15,.13,.22,.18,.79,.55,1.78,.4,2.44-.4,.36-.42,.56-.97,.61-1.53,.08-.74-.1-1.52-.53-2.1l-2.27-3.06-1.68-.08v-.03Z"/>
              <path class="cls-66" d="M211.28,548.88l4.2,3.87c.91,.84,1.12,2.44,.46,3.6h0c-.58,1.03-1.67,1.38-2.58,.84l-2.67-1.59,.6-6.71h-.01Z"/>
            </g>
          </g>
        </g>
        <polygon class="cls-20" points="194.73 567.87 204.11 574.09 203.17 578.44 193.03 572.93 194.73 567.87"/>
      </g>
      <path class="cls-17" d="M173.2,602.06c.35-2.09,.68-4.19,1.01-6.29,.66-4.23,1.29-8.46,1.94-12.69,.37-2.42,.75-4.85,1.05-7.28,.06-.45,.67-.35,.63,.1-.37,4.3-.7,8.61-1.2,12.9-.31,2.61-.68,5.21-1.07,7.8,.06-.05,.12-.09,.18-.14,.1-.09,.25-.22,.29-.26,.48-.46,.92-.98,1.32-1.54,.77-1.07,1.35-2.36,1.65-3.76,.18-.82,1.16-.49,1.01,.33-.29,1.63-.85,3.19-1.66,4.53-.4,.66-.85,1.27-1.37,1.78-.28,.28-.57,.54-.87,.78-.27,.21-.58,.46-.89,.58-.15,.92-.3,1.84-.45,2.76-.39,2.36-.65,4.93-1.55,7.07-.21,.5-.8,.25-.81-.27-.06-2.14,.46-4.3,.81-6.39h-.02Z"/>
      <g>
        <path class="cls-67" d="M137.99,665.88c-3.18-8.62-25.58-51.36-37.25-36.87s-5.05,42.34,12.63,59.81,36.83,10.13,24.62-22.94Z"/>
        <path class="cls-21" d="M97.31,641.95c1.4,9.09,4.9,17.39,9.06,24.95,2.19,3.98,4.61,7.75,7.11,11.42,2.41,3.53,4.85,7.07,7.41,10.44,2.56,3.37,5.42,6.32,9.08,7.53,.81,.27,.46,1.66-.32,1.52-3.4-.58-6.26-3.39-8.65-6.31-2.65-3.25-5.06-6.84-7.49-10.35-5.08-7.33-9.93-15.03-13.14-23.91-1.75-4.84-2.99-9.86-3.54-15.13-.04-.39,.42-.56,.48-.16h0Z"/>
        <path class="cls-21" d="M131.19,651.87c4.3,6.4,7.76,13.84,9.64,21.91,.53,2.28,.95,4.6,1.27,6.94,.16,1.16-1.28,1.53-1.43,.37-1.06-8.11-3.33-15.96-6.69-23.02-.96-2.01-2-3.96-3.14-5.81-.19-.3,.15-.69,.35-.4h0Z"/>
        <g>
          <path class="cls-15" d="M172.07,726.52l13.16-24.62c-2.74-1.91-5.22-2.93-5.22-2.93l-15.46,22.78c5.87,4.99,7.52,4.77,7.52,4.77h0Z"/>
          <path class="cls-69" d="M167.44,720.49c-.93,.56-1.89,.99-2.89,1.27-1.07-.91-2.45-2.17-4.15-3.69-1.58-1.42-3.43-3.1-5.55-5-2.29-2.06-4.89-4.37-7.8-6.91,.8-4.95,2.27-10.27,4.37-14.64h0c6.19,3.41,16.86,4.34,24.37,6.08,1.93,.44,3.44,.9,4.21,1.36,.63,1.58-4.16,16.5-12.56,21.52h0Z"/>
          <path class="cls-13" d="M140.03,682.92c-.86-.83-1.77-1.72-2.74-2.73,.98,1,1.88,1.91,2.74,2.73Z"/>
          <path class="cls-13" d="M131.43,674.01h0c.32,.35,.63,.68,.93,1.01-.3-.34-.61-.67-.93-1.01Z"/>
          <path class="cls-71" d="M151.41,691.53c-2.09,4.37-3.56,9.68-4.37,14.64-4.97-4.34-11.96-7.16-18.61-12.55l2.98-19.6c.32,.34,.63,.67,.93,1,.61,.66,1.21,1.28,1.77,1.89,.56,.6,1.1,1.17,1.63,1.72h0c.52,.55,1.03,1.07,1.51,1.56h0c.98,1.01,1.88,1.91,2.74,2.73,1.5,1.45,2.84,2.65,4.1,3.69,.35,.29,.71,.58,1.05,.85,.18,.13,.35,.27,.53,.4,.34,.27,.68,.51,1.02,.76,.17,.12,.34,.24,.52,.36,.33,.23,.67,.46,1.01,.68,1.02,.65,2.05,1.27,3.15,1.87h.04Z"/>
          <polygon class="cls-70" points="128.45 693.62 131.43 674.02 131.43 674.01 131.42 674.01 128.45 693.62"/>
          <g>
            <path class="cls-15" d="M160.47,718.15c-1.63-1.47-3.53-3.19-5.7-5.14,2.1-.28,5.44,1.63,5.7,5.14Z"/>
            <path class="cls-15" d="M180.01,698.97c1.26,3.97-3.54,18.45-12.56,21.52-1.01-11.46,4.67-24.34,12.56-21.52Z"/>
            <path class="cls-15" d="M153.15,684.92c-.83-.15-1.55,.5-1.92,1.51-.8,2.22,.04,5.49,.83,7.59,.78,2.1,1.87,3.88,3.2,5.23-1.22-.26-2.46-.24-3.67,.15-1.75,.56-3.59,1.79-4.75,3.75-1.05,1.77-1.35,4.94,.31,6.41,1.64,1.46,3.76-.09,5.15-1.28,1.62-1.39,3.24-3.48,4.19-5.94-.41,1.69-.68,3.46-.83,5.24-.02,.28,.26,.34,.31,.07,.3-1.96,.78-3.84,1.34-5.66,.28-.9,.58-1.78,.93-2.63,.33-.8,.82-1.59,1.05-2.46,.11-.42-.26-.9-.52-.58-.43,.52-.73,1.33-1.01,2.07,.43-4.08-.6-8.77-2.61-11.79-.53-.79-1.21-1.55-1.98-1.68h-.02Zm-.14,21.25c-1.2,1.35-2.9,2.97-4.54,2.85-.82-.06-1.49-.77-1.67-1.95-.19-1.24,.18-2.42,.74-3.3,1.06-1.66,2.65-2.69,4.18-3.21,1.49-.5,3.07-.5,4.59-.05,0,.01,0,.02-.02,.03-.97,2.1-1.88,4.05-3.28,5.62h0Zm1.8-18.47c.94,1.64,1.61,3.6,1.95,5.63,.34,2.06,.32,4.15,.09,6.19-.02-.02-.04-.05-.06-.07-1.4-1.14-2.61-2.81-3.5-4.73-.84-1.82-1.52-4.16-1.52-6.32,0-1.12,.41-2.51,1.34-2.36,.69,.11,1.27,.92,1.69,1.66h.01Z"/>
            <path class="cls-15" d="M160.9,698.59c-1.54,3.28-2.22,7.43-2.1,11.43,0,.32,.39,.34,.39,.02,.02-1.93,.22-3.85,.59-5.69,.37-1.86,.95-3.54,1.63-5.19,.06-.16,.1-.4,0-.55-.04-.06-.08-.11-.13-.14-.13-.08-.3-.03-.37,.13h0Z"/>
            <path class="cls-15" d="M164.64,699.56c-1.81,3.05-3.08,6.9-3.82,10.78-.09,.45,.38,.77,.49,.31,.44-1.87,.98-3.7,1.62-5.44,.65-1.78,1.46-3.4,2.28-5.02,.26-.52-.28-1.11-.57-.63h0Z"/>
            <path class="cls-15" d="M167.9,700.59h-.11c-.12,0-.21,.14-.26,.28-.35,.91-.77,1.75-1.11,2.67s-.65,1.86-.92,2.82c-.55,1.89-.96,3.84-1.23,5.87-.05,.39,.42,.6,.49,.21,.35-1.94,.79-3.86,1.34-5.7,.27-.89,.56-1.76,.87-2.61,.35-.93,.69-1.93,1.14-2.76,.07-.13,.08-.32,.04-.47l-.03-.12c-.04-.13-.13-.18-.22-.18h0Z"/>
          </g>
          <polygon class="cls-68" points="127.47 695.29 136.99 701.13 144.86 684.65 130.14 667.56 127.47 695.29"/>
        </g>
      </g>
      <g>
        <path class="cls-62" d="M185.8,626.53c-6.61,4.65-38.87,36-26.4,49.41s34.12,2.94,46.62-20.51,5.14-46.76-20.22-28.9h0Z"/>
        <g>
          <path class="cls-15" d="M132.1,712.8l-14.35-23.55c2.64-2.12,5.07-3.33,5.07-3.33l16.56,21.54c-5.61,5.44-7.27,5.35-7.27,5.35h0Z"/>
          <path class="cls-60" d="M150.99,676.28c2.3,4.2,4.04,9.39,5.08,14.27-2.78,2.75-5.26,5.27-7.45,7.5-2.02,2.06-3.78,3.88-5.29,5.42-1.62,1.65-2.94,3.01-3.96,4.01-1.02-.21-2-.56-2.95-1.04-8.63-4.36-14.15-18.88-13.6-20.5,.75-.52,2.23-1.09,4.14-1.68,7.4-2.32,18.01-4.07,24.02-7.96h0v-.02Z"/>
          <path class="cls-13" d="M161.92,666.8c.82-.89,1.68-1.86,2.6-2.94-.92,1.08-1.79,2.05-2.6,2.94Z"/>
          <path class="cls-13" d="M170.07,657.24h0c-.3,.37-.59,.73-.88,1.08,.28-.36,.58-.71,.87-1.08h.01Z"/>
          <path class="cls-64" d="M174.02,676.58c-6.37,5.89-13.2,9.25-17.95,13.96-1.05-4.88-2.78-10.07-5.08-14.27,1.07-.69,2.07-1.38,3.06-2.11,.33-.25,.65-.5,.97-.76,.17-.14,.34-.27,.5-.4,.33-.27,.65-.54,.98-.83,.17-.14,.34-.29,.51-.44,.33-.3,.67-.61,1.01-.93,1.21-1.14,2.48-2.44,3.91-4.01,.82-.88,1.68-1.86,2.6-2.94h0c.46-.53,.94-1.09,1.43-1.68h0c.5-.59,1.02-1.2,1.54-1.84,.53-.65,1.1-1.32,1.68-2.02,.28-.35,.58-.7,.88-1.07l3.95,19.33h.01Z"/>
          <polygon class="cls-61" points="174.02 676.58 170.07 657.25 170.07 657.24 170.07 657.24 174.02 676.58"/>
          <g>
            <path class="cls-15" d="M143.26,703.55c1.55-1.59,3.37-3.46,5.44-5.57-2.11-.12-5.35,2.04-5.44,5.57Z"/>
            <path class="cls-15" d="M122.82,685.92c-1.06,4.06,4.44,18.14,13.6,20.5,.45-11.52-5.86-23.94-13.6-20.5Z"/>
            <path class="cls-15" d="M147.03,671.65c-1.86,3.17-2.65,7.93-2.02,11.96-.31-.71-.65-1.5-1.11-1.98-.27-.29-.63,.21-.49,.62,.28,.85,.8,1.6,1.17,2.37,.39,.82,.73,1.67,1.06,2.55,.65,1.78,1.22,3.62,1.61,5.55,.05,.27,.34,.19,.3-.1-.24-1.77-.59-3.52-1.09-5.17,1.07,2.38,2.79,4.34,4.48,5.6,1.44,1.08,3.64,2.47,5.2,.88,1.58-1.6,1.12-4.74,0-6.42-1.26-1.87-3.15-2.95-4.93-3.37-1.23-.29-2.46-.22-3.67,.14,1.26-1.46,2.26-3.32,2.94-5.47,.68-2.16,1.36-5.49,.45-7.64-.42-.98-1.17-1.58-1.99-1.36-.76,.2-1.41,1.01-1.89,1.83h0Zm-.46,14.02s-.02-.02-.02-.03c1.5-.57,3.07-.7,4.59-.31,1.55,.4,3.19,1.3,4.33,2.88,.6,.84,1.04,1.98,.91,3.23-.12,1.19-.76,1.95-1.57,2.08-1.63,.25-3.41-1.23-4.67-2.49-1.47-1.46-2.48-3.34-3.55-5.36h-.02Zm2.44-14.74c.93-.23,1.4,1.13,1.46,2.25,.1,2.16-.46,4.55-1.21,6.43-.79,1.99-1.92,3.74-3.26,4.99-.02,.02-.04,.05-.06,.08-.33-2.02-.45-4.11-.21-6.19,.24-2.06,.81-4.07,1.67-5.77,.39-.77,.93-1.62,1.61-1.79Z"/>
            <path class="cls-15" d="M141.87,684.06c1.7,3.15,2.58,7.24,2.66,11.24,0,.32-.37,.37-.39,.05-.12-1.92-.41-3.83-.87-5.63-.47-1.83-1.12-3.45-1.88-5.05-.07-.15-.12-.39-.02-.55,.04-.06,.07-.12,.12-.15,.12-.09,.29-.06,.38,.1h0Z"/>
            <path class="cls-15" d="M138.18,685.32c1.96,2.9,3.42,6.65,4.35,10.46,.11,.44-.34,.8-.47,.35-.53-1.83-1.17-3.61-1.89-5.3-.74-1.73-1.62-3.28-2.52-4.83-.29-.49,.22-1.13,.53-.67h0Z"/>
            <path class="cls-15" d="M134.98,686.6s.07,0,.11-.01c.12-.01,.22,.13,.27,.26,.39,.88,.86,1.69,1.24,2.58s.74,1.8,1.06,2.74c.64,1.85,1.15,3.76,1.52,5.76,.07,.39-.39,.63-.48,.25-.45-1.91-.98-3.79-1.62-5.58-.31-.87-.64-1.71-1-2.53-.39-.91-.78-1.87-1.28-2.67-.08-.13-.1-.31-.06-.47,0-.04,.02-.08,.03-.12,.03-.13,.12-.19,.21-.2h0Z"/>
          </g>
        </g>
        <path class="cls-59" d="M169.72,654.4c-.36,.27-16.19,17.9-16.19,17.9l8.59,15.01,16.72-10.24-9.13-22.66h.01Z"/>
        <path class="cls-21" d="M153.86,672.03c1.86-2.29,3.9-4.33,6-6.28-.09-.38-.17-.76-.23-1.14-.58-3.68,.05-7.58,1.59-10.78,.14-.3,.51-.04,.37,.27-1.41,3.11-1.75,6.84-.95,10.27,.35,1.51,.9,2.95,1.64,4.23,.35,.61,.75,1.19,1.17,1.73,.46,.59,1.1,1.06,1.46,1.74,.31,.58-.21,1.42-.74,1.2-.67-.27-1.23-1.08-1.7-1.72-.49-.67-.94-1.39-1.31-2.16-.36-.75-.68-1.54-.94-2.36-1.87,1.91-3.62,4-5.32,6.13,2.12,4.2,4.43,8.25,6.88,12.15,2.23-2.3,4.97-4.08,7.81-4.77-.47-.39-.91-.84-1.29-1.35-.88-1.16-1.46-2.51-1.87-4.01-.08-.28,.29-.47,.38-.2,.47,1.3,1.27,2.43,2.16,3.3,.32,.32,.68,.59,1.04,.84,.07-.06,.15-.11,.25-.14,7.08-2.11,13.75-6.04,19.64-11.37,5.85-5.3,10.96-11.84,14.93-19.4,2.25-4.28,4.21-8.87,5.62-13.68,.11-.38,.6-.23,.49,.16-1.19,4.38-2.66,8.62-4.52,12.62-1.87,4.01-4.07,7.78-6.52,11.27-4.88,6.96-10.84,12.68-17.47,16.79-3.29,2.04-6.74,3.69-10.29,4.88,.21,.2,.32,.53,.25,.87-.09,.44-.47,.71-.82,.6-.29-.09-.58-.22-.86-.38-.04,.22-.16,.42-.4,.49-1.52,.46-2.97,1.01-4.37,1.89-1.38,.87-2.65,1.96-3.81,3.25-.23,.26-.66,.35-.88,0-2.76-4.32-5.19-8.92-7.34-13.75-.25-.3-.34-.8-.02-1.19h-.03Z"/>
      </g>
      <path class="cls-17" d="M123.43,588.14c-.12-.64,.09-1.34,.47-1.77,.3-.33,.74-.42,1.13-.3,.07,0,.14,.03,.21,.05,.99-1.17,2.47-1.83,3.7-2.23,1.73-.56,3.53-.71,5.23-1.41,2.69-1.11,4.8-3.83,5.75-7.15,.54-1.89,.76-3.95,.47-5.94-.05-.35,.37-.4,.43-.07,.69,3.56-.03,7.26-1.77,10.18-.86,1.44-1.96,2.65-3.24,3.48-1.59,1.03-3.39,1.34-5.14,1.75-.97,.22-1.94,.49-2.86,.96-.65,.33-1.18,.77-1.69,1.28,.07,.16,.12,.32,.15,.5,.11,.63-.08,1.27-.45,1.7-.34,.4-.88,.53-1.33,.38-.24-.08-.47-.21-.65-.43-.23-.27-.36-.59-.43-.97h.02Z"/>
      <path class="cls-17" d="M123.97,597.93c0-1.7-.07-3.39-.19-5.09-.12-1.65-.27-3.31-.55-4.93-.29-1.66-.65-3.29-1-4.92-.12-.57-.8-.34-.71,.23,.51,3.22,.73,6.56,.92,9.83,.07,1.19,.11,2.38,.13,3.57-.07-.28-.13-.57-.21-.85-.34-1.22-.75-2.4-1.22-3.55-.48-1.19-1.1-2.23-1.69-3.33-.21-.39-.67-.06-.51,.36,.44,1.13,.77,2.34,1.13,3.51,.36,1.16,.69,2.34,.99,3.53,.3,1.16,.57,2.33,.78,3.52,.11,.63,.21,1.26,.3,1.89,.09,.63,.15,1.24,.51,1.73,.21,.28,.61,.21,.75-.13,.02-.05,.03-.11,.05-.17,.07-.07,.13-.16,.16-.28,.41-1.58,.35-3.28,.35-4.93h.01Z"/>
      <path class="cls-17" d="M108.27,598.21c-4.23,2.24-9.13,2.7-13.49,.76-3.93-1.74-7.46-5.94-7.67-11.42-.11-2.81,.67-5.79,2.32-7.76,.28-.33-.1-.99-.42-.69-1.82,1.69-2.96,4.22-3.2,7.04-.24,2.89,.5,5.83,1.8,8.21,2.84,5.16,7.98,7.52,12.85,7.55,2.92,.02,5.77-.81,8.35-2.51,.64-.42,.09-1.52-.54-1.19h0Z"/>
      <g>
        <g>
          <path class="cls-15" d="M179.19,539.48l-11.91,5.46c-.69,.32-1.45-.13-1.7-.99l-4.81-16.43c-.25-.86,.1-1.81,.79-2.13l11.91-5.46c.69-.32,1.45,.13,1.7,.99l4.81,16.43c.25,.86-.1,1.81-.79,2.13Z"/>
          <g>
            <path class="cls-18" d="M173.42,541.55c1.66-1.03,2.44-3.46,1.8-5.65l-2.93-10c-.33-1.14-1.01-2.06-1.89-2.57s-1.87-.56-2.79-.15l-3.34,1.53c-.13,.06-.25,.13-.37,.2-1.66,1.03-2.43,3.46-1.79,5.65l2.93,10c.33,1.14,1.01,2.06,1.89,2.57s1.87,.56,2.79,.14l3.34-1.53c.13-.06,.25-.13,.37-.2h-.01Z"/>
            <path class="cls-20" d="M164.08,525.38c.11-.07,.22-.13,.33-.18l3.34-1.53c1.67-.77,3.53,.31,4.14,2.4l2.93,10c.57,1.94-.12,4.09-1.59,5.01-.11,.07-.22,.13-.33,.18l-3.34,1.53c-.81,.37-1.69,.33-2.47-.13-.78-.45-1.38-1.26-1.67-2.28l-2.93-10c-.57-1.94,.12-4.09,1.59-5.01m-.37-.93c-1.83,1.14-2.72,3.84-2,6.3l2.93,10c.77,2.63,3.1,3.99,5.21,3.02l3.34-1.53c.14-.07,.28-.14,.41-.22,1.83-1.14,2.72-3.84,2-6.3l-2.93-10c-.77-2.63-3.1-3.99-5.21-3.02l-3.34,1.53c-.14,.07-.28,.14-.41,.22h0Z"/>
          </g>
        </g>
        <g>
          <path class="cls-63" d="M160.54,542.64l-.81,7.44-.92,8.55-.4,4.49c-.44,4.96-3.89,8.63-7.87,8.38h0c-4.01-.25-7.16-4.39-7.16-9.42l-.02-26.74,17.17,7.3h0Z"/>
          <path class="cls-20" d="M159.91,548.57l-.93,8.52c-7.09,1.67-11.48-7.63-12.37-16.28,3.42-.72,12.07,6.81,13.3,7.76h0Z"/>
        </g>
        <g>
          <g>
            <g>
              <path class="cls-35" d="M162.2,512.64c-1.78-1.64-3.96-2.3-6.25-2.24-5.85,.14-12.47,4.96-15.14,10.39-3.91,7.95-2.29,17.13,2.08,23.83,1.99,3.09,4.58,5.66,7.47,7.32,5.06,2.92,11.48,3.29,15.84-1.07,3.15-3.14,4.73-8.31,4.82-13.36,.15-8.53-3.16-19.68-8.81-24.88h-.01Z"/>
              <path class="cls-20" d="M142.98,535.82c6.4-.57-1.62-12.39-1.62-12.39,0,0,14.59,2.59,10.58-9.16l-3.84-2.71s-19.44,7.81-8.22,30.13l3.31-.98-.21-4.9h0Z"/>
              <path class="cls-14" d="M164.91,527.97c.39,.95,.22,2.07-.37,2.5-.6,.43-1.4,0-1.79-.94-.39-.95-.22-2.07,.37-2.5,.6-.43,1.4,0,1.79,.94Z"/>
              <path class="cls-14" d="M155.44,533.06c.39,.95,.22,2.07-.37,2.5-.6,.43-1.4,0-1.79-.94-.39-.95-.22-2.07,.37-2.5,.6-.43,1.4,0,1.79,.94Z"/>
              <path class="cls-20" d="M163.59,533.09c-1.37-2.09-2.81-4.08-4.28-6.07-.14-.19-.4,.04-.26,.25,1.09,1.73,2.18,3.43,3.32,5.1,.56,.81,1.26,1.64,1.54,2.67,.24,.86-.06,1.69-.44,2.39-.1,.18,0,.47,.2,.43,.66-.14,1.04-1.04,1.03-1.82-.02-1.12-.56-2.11-1.1-2.94h0Z"/>
              <path class="cls-14" d="M145.81,544.9l-4.67-4.32,.36-.9c.43-1.27,.93-2.57,1.49-3.87,2.71,3.71,2.82,9.09,2.82,9.09h0Z"/>
              <path class="cls-20" d="M151.94,514.27c9.31,3.26,10.26-1.64,10.26-1.64l3.71,4.76c5.05-7.39-4.48-25.06-12.63-11.44-3.75-10.06-16.6,.41-16.08,14.22-9.18,1.06-12.92,19.18,4.07,23.92,0,0-7.68-20.5,.78-26.59,3.66-2.63,9.9-3.23,9.9-3.23h0Z"/>
              <path class="cls-19" d="M139.14,539.1c-1.47-.21-3.12,.52-3.81,2.17-.57,1.37-.37,3.06,.08,4.5,.58,1.86,1.59,3.54,2.95,4.58,1.36,1.03,3.1,1.36,4.59,.67,1.49-.7,2.67-2.48,2.77-4.47,.19-3.82-3.93-7.07-6.58-7.44h0Z"/>
              <path class="cls-14" d="M143.62,545.82c-.75-.72-1.65-1.22-2.59-1.35-.43-.06-.86-.08-1.29-.02s-.85,.23-1.28,.34c-.28,.07-.24,.66,.06,.63,.19-.02,.37-.03,.57,.02,.19,.04,.38,.11,.57,.17s.39,.13,.58,.2c.09,.03,.19,.07,.28,.11s.22,.08,.3,.15c-.02-.01-.04-.02-.06-.04,.03,.02,.06,.04,.09,.05,.08,.05,.16,.09,.24,.13,.05,.03,.1,.05,.15,.08h0c.19,.07,.38,.24,.54,.36,.35,.26,.69,.53,1.01,.85,.15,.15,.43,.17,.6,.12,.18-.06,.39-.23,.48-.43,.23-.5,.1-1.02-.25-1.36h-.01Z"/>
            </g>
            <path class="cls-14" d="M164.53,516.52c3.15,2.71-5.1,6.27-5.43,3.1-.24-2.37,4.11-4.24,5.43-3.1Z"/>
            <path class="cls-14" d="M146.6,529.03c-.67-1.99,3-4.5,4.22-4.35,3.41,.43-2.92,8.18-4.22,4.35Z"/>
          </g>
          <path class="cls-15" d="M155.59,541.08c.11-.74,5.2-1.09,5.76-.33,.36,.48-.62,3.18-2.8,3.26-1.8,.07-3.09-2.07-2.96-2.93h0Z"/>
        </g>
        <g>
          <path class="cls-15" d="M150.58,540.28l20.32-8.9c3.99-1.75,6.03-7.46,4.54-12.75h0c-1.48-5.29-5.92-8.15-9.91-6.4l-20.32,8.9c-3.99,1.75-6.02,7.46-4.54,12.75h0c1.48,5.29,5.92,8.15,9.91,6.4Z"/>
          <path class="cls-20" d="M149.85,520.26c.22-.13,1.44-.73,2.34-1.06l14.8-6.24c2.71-1.24,6.35,1.28,7.68,6.02,1.23,4.39-.08,9.09-3.06,10.94-.22,.13-.44,.25-.67,.35l-15.6,6.82c-1.63,.71-3.4,.51-5.01-.59-1.63-1.11-2.89-3-3.54-5.31-1.23-4.39,.08-9.09,3.06-10.94h0m-.37-.93c-3.3,2.05-4.85,7.29-3.47,12.21,1.48,5.29,5.78,8.21,9.6,6.54l15.6-6.82c.26-.12,.52-.25,.76-.4,3.3-2.05,4.85-7.29,3.47-12.21h0c-1.48-5.29-5.78-8.21-9.6-6.54l-15.6,6.82c-.26,.12-.52,.25-.76,.4h0Z"/>
          <path class="cls-18" d="M169.92,527.9l-6.49,2.84-2.17,.95-.92,.41-3.79,1.66-.21,.09c-.28,.12-.57,.22-.85,.28-2.43,.52-4.88-1.22-5.73-4.23-.94-3.37,.47-7.06,3.16-8.24l6.87-3,3.79-1.65,.93-.41,1.99-.87c.06-.03,.11-.04,.17-.06,.23-.1,.45-.17,.68-.21,2.43-.52,4.88,1.22,5.73,4.23,.94,3.37-.47,7.05-3.16,8.23v-.02Z"/>
          <g>
            <polygon class="cls-15" points="163.92 515.79 160.18 533.2 155.81 535.11 159.55 517.7 163.92 515.79"/>
            <path class="cls-15" d="M167.48,514.25l-3.74,17.4-2.5,1.09,3.74-17.41,2.29-1c.07-.03,.13-.05,.2-.07h.01Z"/>
          </g>
          <path class="cls-12" d="M168.31,523.37l-11.28,4.92c-.69,.3-1.44-.15-1.68-1.02h0c-.24-.86,.12-1.81,.81-2.11l11.28-4.92c.69-.3,1.44,.15,1.68,1.02h0c.24,.86-.12,1.81-.81,2.11Z"/>
        </g>
        <g>
          <path class="cls-15" d="M149.87,551.1l-11.64,6.32c-.67,.36-1.45-.02-1.74-.86l-5.56-16.05c-.29-.84,.02-1.82,.69-2.18l11.64-6.32c.67-.36,1.45,.02,1.74,.86l5.56,16.05c.29,.84-.02,1.82-.69,2.18Z"/>
          <g>
            <path class="cls-15" d="M144.01,553.71c1.74-1.08,2.49-3.67,1.72-5.9l-3.39-9.77c-.39-1.12-1.1-1.98-2.01-2.43-.9-.45-1.9-.43-2.79,.06l-3.27,1.77c-.06,.03-.12,.07-.17,.1-1.74,1.08-2.49,3.67-1.72,5.9l3.39,9.77c.39,1.12,1.1,1.98,2,2.43s1.89,.43,2.79-.06l3.27-1.77c.06-.03,.12-.07,.17-.1h0Z"/>
            <path class="cls-20" d="M134.29,538.02c.05-.03,.1-.06,.15-.09l3.27-1.77c1.63-.89,3.54,.05,4.25,2.1l3.39,9.77c.68,1.97,.02,4.27-1.52,5.23-.05,.03-.1,.06-.15,.09l-3.27,1.77c-.79,.43-1.67,.45-2.47,.05s-1.43-1.16-1.78-2.15l-3.39-9.77c-.68-1.97-.02-4.27,1.52-5.22m-.37-.93c-1.92,1.19-2.78,4.08-1.91,6.57l3.39,9.77c.89,2.57,3.28,3.75,5.34,2.64l3.27-1.77c.07-.04,.13-.07,.19-.11,1.92-1.19,2.78-4.08,1.91-6.57l-3.39-9.77c-.89-2.57-3.28-3.76-5.34-2.64l-3.27,1.77c-.07,.04-.13,.07-.19,.11h0Z"/>
          </g>
          <path class="cls-18" d="M134.81,540.97l4.43-2.41c.26-.14,.55,0,.66,.33l3.66,10.57c.11,.32,0,.69-.26,.83l-4.43,2.41c-.26,.14-.55,0-.66-.33l-3.66-10.57c-.11-.32,0-.69,.26-.83Z"/>
        </g>
      </g>
      <g>
        <g>
          <path class="cls-34" d="M137.84,540.37c1.91,13.25,2.84,20.61-5.96,25.2l-5.23-18.23,11.19-6.97h0Z"/>
          <path class="cls-37" d="M138.14,524.08l-7.31,2.22c-.67,.2-1.22,.78-1.5,1.56l-3.28,13.63c-.37,1.54-.3,3.2,.2,4.68l5.94,17.54c.28-2.41,4.48-3.45,5.38-9.59,1.38-6.48-3.87-18.35-3.87-18.35v-5.21l5.42-3.27c.59-.36,.92-1.21,.72-2.06-.21-.88-.98-1.36-1.7-1.15h0Z"/>
          <path class="cls-36" d="M133.33,534.06c3.32-1.49,5.21-1.71,5.76-1.51,.41,.15,3.27,2.19,4.7,3.23,.48,.35,.71,1.06,.55,1.73h0c-.18,.76-.79,1.22-1.41,1.05l-3.69-1.28-5.13,1.6-.78-4.83h0Z"/>
          <path class="cls-40" d="M133.92,538.61c4.15-1.07,7.61,.37,7.98,.81,.25,.3,1.54,2.43,2.35,3.78,.37,.62,.28,1.5-.21,1.97h0c-.43,.42-1.04,.39-1.45-.07l-1.59-1.78c-.24-.27-.56-.37-.88-.29l-3.45,.93-2.75-5.35Z"/>
          <path class="cls-38" d="M137.27,543.45c2.47,.49,4.54,1.54,4.84,2.05,.21,.34,1.22,2.7,1.85,4.19,.29,.68,.09,1.53-.46,1.9h0c-.48,.33-1.08,.18-1.42-.35l-1.35-2.07c-.2-.31-.51-.48-.83-.46l-3.52,.25,.88-5.52h.01Z"/>
          <path class="cls-20" d="M132.4,534.23c-.49-.03-.91,.06-1.37,.29-.46,.24-.87,.55-1.26,.95-.76,.76-1.44,1.56-2,2.55-.1,.17,.14,.39,.24,.22,.57-.88,1.26-1.7,2.06-2.24,.39-.26,.79-.49,1.18-.73,.42-.25,.81-.5,1.2-.81,.09-.07,.04-.23-.06-.24h0Z"/>
        </g>
        <path class="cls-39" d="M136.27,562.37c-7.47,11.45-34.08,44.77-45.26,35.6-.19-.16-.38-.32-.56-.49-6.18-5.8-4.25-18.08,3.12-20.97,7.86-3.08,25.99-11.25,36.15-21.43l6.54,7.3h0Z"/>
      </g>
    </g>
  </g>
  <g>
    <ellipse class="cls-3" cx="1382.16" cy="37.53" rx="70.89" ry="228.28" transform="translate(468.22 1075.06) rotate(-50.18)"/>
    <ellipse class="cls-3" cx="1382.16" cy="37.53" rx="51.19" ry="164.84" transform="translate(468.21 1075.06) rotate(-50.18)"/>
  </g>
  <path class="cls-7" d="M1200.96,493.45c78.98,20.86,169.44,10.31,248.61-29.01,28.42-14.12,58.55-36.28,63.18-66.43,2.7-17.58-4.36-34.48-15.69-46.57-11.33-12.08-26.59-19.95-42.25-26.29-30.11-12.19-62.51-19.44-93.26-30.31s-60.57-25.93-80.67-50.65c-20.11-24.72-28.98-60.63-15.8-93.18,7.45-18.39,21.38-34.89,25.48-53.92,6.05-28.06-11.27-53.61-33.31-68.66-46.75-31.9-113.61-29.2-172.07-7.56-58.46,21.63-110.63,59.89-161.74,97.54l233.33-282.47L1496.44,96.66c-17.36,10.6-35.59,21.23-49.57,36.13-13.98,14.9-23.98,34.77-21.98,53.51,2.45,22.86,21.48,38.45,40.76,49.62,33.39,19.35,70.95,31.7,105.92,48.51,34.97,16.8,68.34,39.16,86.86,72.89,18.52,33.73,18.95,80.89-7.73,114.67-29.48,37.35-80.51,47.67-125.78,51.77-113.36,10.24-218.28-2.51-323.98-30.32h.02Z"/>
  <g>
    <path class="cls-8" d="M1087.13,636h268.65c5.6,0,10.13,8.04,10.13,17.95h0c0,9.91-4.54,17.95-10.13,17.95h-268.65c-5.6,0-10.13-8.04-10.13-17.95h0c0-9.91,4.54-17.95,10.13-17.95Z"/>
    <path class="cls-41" d="M1192.94,636h162.84c5.6,0,10.13,8.04,10.13,17.95h0c0,9.91-4.54,17.95-10.13,17.95h-162.84c-5.6,0-10.13-8.04-10.13-17.95h0c0-9.91,4.54-17.95,10.13-17.95Z"/>
    <path class="cls-9" d="M1087.13,705.4h268.65c5.6,0,10.13,8.04,10.13,17.95h0c0,9.91-4.54,17.95-10.13,17.95h-268.65c-5.6,0-10.13-8.04-10.13-17.95h0c0-9.91,4.54-17.95,10.13-17.95Z"/>
    <path class="cls-33" d="M1138.89,705.4h216.89c5.6,0,10.13,8.04,10.13,17.95h0c0,9.91-4.54,17.95-10.13,17.95h-216.89c-5.6,0-10.13-8.04-10.13-17.95h0c0-9.91,4.54-17.95,10.13-17.95Z"/>
  </g>
  <g>
    <path class="cls-16" d="M234.27,121.12c-4.15,0-4.15,6.03,0,6.03s4.15-6.03,0-6.03Z"/>
    <path class="cls-16" d="M266.09,437.73c-4.15,0-4.15,6.03,0,6.03s4.15-6.03,0-6.03Z"/>
    <path class="cls-16" d="M1160.57,109.95c-4.15,0-4.15,6.03,0,6.03s4.15-6.03,0-6.03Z"/>
    <path class="cls-16" d="M1197.89,459.37c-4.15,0-4.15,6.03,0,6.03s4.15-6.03,0-6.03Z"/>
    <path class="cls-16" d="M452.9,720.97c-4.15,0-4.15,6.03,0,6.03s4.15-6.03,0-6.03Z"/>
    <path class="cls-16" d="M704.79,167.5c-4.15,0-4.15,6.03,0,6.03s4.15-6.03,0-6.03Z"/>
    <path class="cls-16" d="M1085.58,712.48c-4.15,0-4.15,6.03,0,6.03s4.15-6.03,0-6.03Z"/>
    <polygon class="cls-31" points="788.5 179.18 784.86 190.22 783.61 178.4 772.3 175.06 782.49 174.6 780.3 161.78 787.46 172.53 797.31 164.68 790.84 175.4 799.06 180.84 788.5 179.18"/>
    <polygon class="cls-32" points="555.85 252.14 544.4 256.44 553.41 248.09 549.06 237.76 555.86 244.88 565.1 235.22 560.71 247.2 573.42 249.42 560.45 251.46 561.11 260.87 555.85 252.14"/>
    <polygon class="cls-29" points="1050.02 476.47 1053.67 487.51 1054.91 475.7 1066.23 472.35 1056.03 471.89 1058.23 459.08 1051.06 469.82 1041.21 461.97 1047.69 472.69 1039.47 478.14 1050.02 476.47"/>
    <polygon class="cls-30" points="405.28 486.74 401.64 497.78 400.39 485.96 389.08 482.62 399.27 482.16 397.08 469.34 404.24 480.09 414.09 472.24 407.62 482.96 415.84 488.4 405.28 486.74"/>
  </g>
</svg>