<?xml version="1.0" encoding="UTF-8"?>
<svg id="Layer_2" data-name="Layer 2" xmlns="http://www.w3.org/2000/svg" xmlns:xlink="http://www.w3.org/1999/xlink" viewBox="0 0 332.77 457.96">
  <defs>
    <style>
      .cls-1, .cls-2 {
        fill: none;
      }

      .cls-3 {
        clip-path: url(#clippath);
      }

      .cls-4 {
        fill: #eacebe;
      }

      .cls-5 {
        fill: #e5c2b1;
      }

      .cls-6 {
        fill: #873636;
      }

      .cls-7 {
        fill: #e26a6a;
      }

      .cls-8 {
        fill: #e0c1b1;
      }

      .cls-9 {
        fill: #191919;
      }

      .cls-10 {
        fill: #2d2d2d;
      }

      .cls-11 {
        fill: #748cb7;
      }

      .cls-2 {
        stroke: #ddb6a2;
        stroke-miterlimit: 10;
        stroke-width: 4px;
      }

      .cls-12 {
        fill: #54698c;
        opacity: .5;
      }
    </style>
    <clipPath id="clippath">
      <path class="cls-1" d="M189.92,185.95c4.64,0,7.55,5.06,5.17,9.05-5.17,8.68-17.54,14.79-31.98,14.79s-26.82-6.11-31.98-14.79c-2.37-3.99,.53-9.05,5.17-9.05h53.62Z"/>
    </clipPath>
  </defs>
  <g id="Layer_1-2" data-name="Layer 1">
    <g>
      <rect class="cls-4" x="136.8" y="212.79" width="59.14" height="77.74" rx="29.29" ry="29.29"/>
      <path class="cls-8" d="M137.5,235.73l-.7,28.35s24.86-18.47,59.14-16.92l-1.08-11.43h-57.36Z"/>
    </g>
    <rect class="cls-4" x="61.6" y="133.28" width="204.22" height="30.39" rx="15.19" ry="15.19"/>
    <rect class="cls-5" x="69.58" y="139.71" width="187.05" height="17.52" rx="8.76" ry="8.76"/>
    <path class="cls-4" d="M105.75,52h115.91c13.6,0,24.64,11.04,24.64,24.64v85.72c0,45.59-37.01,82.6-82.6,82.6h0c-45.59,0-82.6-37.01-82.6-82.6V76.64c0-13.6,11.04-24.64,24.64-24.64Z"/>
    <path class="cls-9" d="M257.17,57.32c-8.54-40.45-38.03-49.47-67.7-43.17-13.81-14.99-28.9-22.81-75.13,1.06-58.35,30.13-51.78,71.02-47.44,90.78,.53,2.43,1.61,4.7,3.16,6.65,6.13,7.72,24.38,22.21,66.57,.67,31.76-16.22,27.34-22.79,37.52-38.47,.37-.57,1.21-.52,1.52,.08,4.66,9.03,16.28,18.5,49.62,30,0,0,21,2.83,21,35.68,0,0,19.67-41.64,10.87-83.29Z"/>
    <ellipse class="cls-10" cx="121.91" cy="142.42" rx="7.56" ry="10.99"/>
    <ellipse class="cls-10" cx="202.42" cy="142.42" rx="7.56" ry="10.99"/>
    <path class="cls-9" d="M211.55,117.22c0,1.97-5.28-1.08-11.1-1.08s-10,3.04-10,1.08,4.01-4.45,9.83-4.45,11.27,2.48,11.27,4.45Z"/>
    <path class="cls-9" d="M132.46,117.22c0,1.97-5.28-1.08-11.1-1.08s-10,3.04-10,1.08,4.01-4.45,9.83-4.45,11.27,2.48,11.27,4.45Z"/>
    <g class="cls-3">
      <path class="cls-6" d="M189.92,185.95c4.64,0,7.55,5.06,5.17,9.05-5.17,8.68-17.54,14.79-31.98,14.79s-26.82-6.11-31.98-14.79c-2.37-3.99,.53-9.05,5.17-9.05h53.62Z"/>
      <ellipse class="cls-7" cx="163.7" cy="214.23" rx="28.15" ry="20.67"/>
    </g>
    <path class="cls-2" d="M163.11,139.71s.53,15.62-3.37,16.32c-6.68,1.2-7.41,12.8,3.37,14.65"/>
    <path class="cls-10" d="M121.08,106.9c-19.62,0-35.52,15.9-35.52,35.52s15.9,35.52,35.52,35.52,35.52-15.9,35.52-35.52-15.9-35.52-35.52-35.52Zm0,65.95c-16.81,0-30.43-13.62-30.43-30.43s13.62-30.43,30.43-30.43,30.43,13.62,30.43,30.43-13.62,30.43-30.43,30.43Z"/>
    <path class="cls-10" d="M205.14,106.9c-19.62,0-35.52,15.9-35.52,35.52s15.9,35.52,35.52,35.52,35.52-15.9,35.52-35.52-15.9-35.52-35.52-35.52Zm0,65.95c-16.81,0-30.43-13.62-30.43-30.43s13.62-30.43,30.43-30.43,30.43,13.62,30.43,30.43-13.62,30.43-30.43,30.43Z"/>
    <rect class="cls-10" x="156.6" y="139.6" width="13.02" height="5.64"/>
    <g>
      <path class="cls-11" d="M282.86,292.43c-23.43-17.92-44.25-27.11-65.29-28.44,0,.03,0,.06,0,.09,0,15.66-22.91,28.36-51.18,28.36s-50.02-12.07-51.13-27.19c-22.09,3.1-65.7,5.65-79.63,42.3,0,0-39.49,115.25-35.33,150.41H332.77s-18.24-141.29-49.91-165.52Z"/>
      <path class="cls-4" d="M166.4,292.43c28.27,0,51.18-12.7,51.18-28.36,0-.03,0-.06,0-.09-9.49-.6-20.09-.41-33.03,.09h-59.14s-3.94,.3-10.14,1.17c1.11,15.12,23.57,27.19,51.13,27.19Z"/>
    </g>
    <path class="cls-12" d="M.31,457.96H332.77s-13.64-77.7-17.17-90.99c0,0-88.95,66.43-315.3,90.99Z"/>
  </g>
</svg>