<?xml version="1.0" encoding="UTF-8"?>
<svg id="Layer_2" data-name="Layer 2" xmlns="http://www.w3.org/2000/svg" xmlns:xlink="http://www.w3.org/1999/xlink" viewBox="0 0 332.77 457.9">
  <defs>
    <style>
      .cls-1, .cls-2 {
        fill: none;
      }

      .cls-3 {
        clip-path: url(#clippath);
      }

      .cls-4 {
        fill: #eacebe;
      }

      .cls-5 {
        fill: #e5c2b1;
      }

      .cls-6 {
        fill: #873636;
      }

      .cls-7 {
        fill: #d1ab86;
      }

      .cls-8 {
        fill: #e26a6a;
      }

      .cls-9 {
        fill: #e0c1b1;
      }

      .cls-10 {
        fill: #191919;
      }

      .cls-11 {
        fill: #3f3f3f;
      }

      .cls-12 {
        fill: #2d2d2d;
      }

      .cls-13 {
        clip-path: url(#clippath-1);
      }

      .cls-14 {
        clip-path: url(#clippath-2);
      }

      .cls-15 {
        opacity: .2;
      }

      .cls-15, .cls-16 {
        fill: #fff;
      }

      .cls-2 {
        stroke: #ddb6a2;
        stroke-miterlimit: 10;
        stroke-width: 4px;
      }

      .cls-17, .cls-18, .cls-16 {
        opacity: .5;
      }

      .cls-18 {
        fill: #89644c;
      }
    </style>
    <clipPath id="clippath">
      <path class="cls-1" d="M189.92,185.9c4.64,0,7.55,5.06,5.17,9.05-5.17,8.68-17.54,14.79-31.98,14.79s-26.82-6.11-31.98-14.79c-2.37-3.99,.53-9.05,5.17-9.05h53.62Z"/>
    </clipPath>
    <clipPath id="clippath-1">
      <circle class="cls-1" cx="112.61" cy="75.41" r="32.71"/>
    </clipPath>
    <clipPath id="clippath-2">
      <circle class="cls-1" cx="197.65" cy="75.41" r="32.71"/>
    </clipPath>
  </defs>
  <g id="Layer_3" data-name="Layer 3">
    <path class="cls-10" d="M71.24,71.08c-11.28,39.59-42.63,169.72-24.34,219.45l241.97,4.56s-17.45-202.38-26.74-224.01c-9.07-21.12-185.2-5.32-190.89,0Z"/>
    <g>
      <rect class="cls-4" x="136.8" y="212.74" width="59.14" height="77.74" rx="29.29" ry="29.29"/>
      <path class="cls-9" d="M137.5,235.67l-.7,28.35s24.86-18.47,59.14-16.92l-1.08-11.43h-57.36Z"/>
    </g>
    <rect class="cls-4" x="61.6" y="133.23" width="204.22" height="30.39" rx="15.19" ry="15.19"/>
    <rect class="cls-5" x="69.58" y="139.66" width="187.05" height="17.52" rx="8.76" ry="8.76"/>
    <path class="cls-4" d="M105.75,51.94h115.91c11.5,0,20.83,9.34,20.83,20.83v93.33c0,43.48-35.3,78.79-78.79,78.79h0c-43.48,0-78.79-35.3-78.79-78.79V72.77c0-11.5,9.34-20.83,20.83-20.83Z"/>
    <ellipse class="cls-12" cx="121.91" cy="142.36" rx="7.56" ry="10.99"/>
    <ellipse class="cls-12" cx="202.42" cy="142.36" rx="7.56" ry="10.99"/>
    <path class="cls-10" d="M211.55,117.17c0,1.97-5.28-1.08-11.1-1.08s-10,3.04-10,1.08,4.01-4.45,9.83-4.45,11.27,2.48,11.27,4.45Z"/>
    <path class="cls-10" d="M132.46,117.17c0,1.97-5.28-1.08-11.1-1.08s-10,3.04-10,1.08,4.01-4.45,9.83-4.45,11.27,2.48,11.27,4.45Z"/>
    <g class="cls-3">
      <path class="cls-6" d="M189.92,185.9c4.64,0,7.55,5.06,5.17,9.05-5.17,8.68-17.54,14.79-31.98,14.79s-26.82-6.11-31.98-14.79c-2.37-3.99,.53-9.05,5.17-9.05h53.62Z"/>
      <ellipse class="cls-8" cx="163.7" cy="214.17" rx="28.15" ry="20.67"/>
    </g>
    <path class="cls-2" d="M163.11,139.66s.53,15.62-3.37,16.32c-6.68,1.2-7.41,12.8,3.37,14.65"/>
    <g>
      <path class="cls-7" d="M282.86,292.38c-23.43-17.92-44.25-27.11-65.29-28.44,0,.03,0,.06,0,.09,0,15.66-22.91,28.36-51.18,28.36s-50.02-12.07-51.13-27.19c-22.09,3.1-65.7,5.65-79.63,42.3,0,0-39.49,115.25-35.33,150.41H332.77s-18.24-141.29-49.91-165.52Z"/>
      <path class="cls-4" d="M166.4,292.38c28.27,0,51.18-12.7,51.18-28.36,0-.03,0-.06,0-.09-9.49-.6-20.09-.41-33.03,.09h-59.14s-3.94,.3-10.14,1.17c1.11,15.12,23.57,27.19,51.13,27.19Z"/>
    </g>
    <path class="cls-18" d="M.31,457.9H332.77s-13.64-77.7-17.17-90.99c0,0-88.95,66.43-315.3,90.99Z"/>
    <path class="cls-10" d="M262.82,67.72c-14.24-42.42-35.61-51.8-72.37-55.58-2.56-4.12-12.56-4.72-19.68-8.13-18.48-8.84-41.13-1.47-57.5,6.72-15.3,7.66-27.72,19.93-35.69,35.07-14.19,26.95-10.93,44.28-10.94,63.5,0,23.92,20.99,27,20.99,27-2.02-8.44,13.5-19.63,13.5-19.63,9.7-.23,43.22-19.97,62.12-36.13,2.46-2.1,6.23-1.69,8.12,.94,10.29,14.31,32.59,30.05,62.76,35.19,0,0,9.9,10.71,6.62,19.63,0,0,35.08-29.86,22.08-68.58Z"/>
    <g>
      <g class="cls-17">
        <g class="cls-13">
          <circle class="cls-15" cx="112.61" cy="75.41" r="32.71"/>
          <rect class="cls-16" x="104.23" y="39.2" width="12" height="66.77" transform="translate(83.62 -56.68) rotate(45)"/>
          <rect class="cls-16" x="115.73" y="48.77" width="8.13" height="66.77" transform="translate(93.18 -60.65) rotate(45)"/>
        </g>
      </g>
      <g class="cls-17">
        <g class="cls-14">
          <circle class="cls-15" cx="197.65" cy="75.41" r="32.71"/>
          <rect class="cls-16" x="189.26" y="39.2" width="12" height="66.77" transform="translate(108.52 -116.81) rotate(45)"/>
          <rect class="cls-16" x="200.76" y="48.77" width="8.13" height="66.77" transform="translate(118.09 -120.77) rotate(45)"/>
        </g>
      </g>
      <path class="cls-11" d="M112.81,39.89c-19.62,0-35.52,15.9-35.52,35.52s15.9,35.52,35.52,35.52,35.52-15.9,35.52-35.52-15.9-35.52-35.52-35.52Zm0,65.95c-16.81,0-30.43-13.62-30.43-30.43s13.62-30.43,30.43-30.43,30.43,13.62,30.43,30.43-13.62,30.43-30.43,30.43Z"/>
      <path class="cls-11" d="M196.88,39.89c-19.62,0-35.52,15.9-35.52,35.52s15.9,35.52,35.52,35.52,35.52-15.9,35.52-35.52-15.9-35.52-35.52-35.52Zm0,65.95c-16.81,0-30.43-13.62-30.43-30.43s13.62-30.43,30.43-30.43,30.43,13.62,30.43,30.43-13.62,30.43-30.43,30.43Z"/>
      <rect class="cls-11" x="148.33" y="72.59" width="13.02" height="5.64"/>
    </g>
  </g>
</svg>