<?xml version="1.0" encoding="UTF-8"?>
<svg id="Layer_2" data-name="Layer 2" xmlns="http://www.w3.org/2000/svg" viewBox="0 0 462.98 452.86">
  <defs>
    <style>
      .cls-1 {
        fill: #eacebe;
      }

      .cls-2 {
        fill: #c691ab;
      }

      .cls-3 {
        fill: #191919;
      }

      .cls-4 {
        fill: #2d2d2d;
      }

      .cls-5 {
        stroke-miterlimit: 10;
      }

      .cls-5, .cls-6 {
        fill: none;
        stroke: #ddb6a2;
        stroke-width: 4px;
      }

      .cls-6 {
        stroke-linecap: round;
        stroke-linejoin: round;
      }
    </style>
  </defs>
  <g id="Layer_4" data-name="Layer 4">
    <path class="cls-1" d="M146.36,311.38s-17.24,20.13-14.37,28.39l58.04,13.87,12.64-36.58-56.31-5.68Z"/>
    <rect class="cls-1" x="409.21" y="284.79" width="42.06" height="90.58" rx="21.03" ry="21.03" transform="translate(-62.48 103.62) rotate(-12.81)"/>
    <path class="cls-1" d="M229.82,72.39s-24.03,114.43,45.24,118.14c75.01,4.02,86.85-53.43,86.85-53.43l-15.84-72.15-116.24,7.44Z"/>
    <ellipse class="cls-4" cx="247" cy="126.21" rx="5.59" ry="8.13"/>
    <path class="cls-3" d="M253.75,107.57c0,1.46-3.9-.8-8.21-.8s-7.39,2.25-7.39,.8,2.96-3.29,7.27-3.29,8.33,1.83,8.33,3.29Z"/>
    <ellipse class="cls-4" cx="294.04" cy="127.44" rx="5.59" ry="8.13"/>
    <path class="cls-3" d="M300.79,108.8c0,1.46-3.9-.8-8.21-.8s-7.39,2.25-7.39,.8,2.96-3.29,7.27-3.29,8.33,1.83,8.33,3.29Z"/>
    <ellipse class="cls-1" cx="365.82" cy="114.21" rx="22.62" ry="24.62"/>
    <path class="cls-3" d="M384.34,80.47c-.77-6.74-3.95-12.38-8.13-15.42,.97-19.74-16.4-40.23-42.38-48.19-9.35-2.87-18.68-3.76-27.28-2.95-10.63-11.77-28.02-17.01-44.95-12.02-13.78,4.06-24.14,13.98-28.9,25.97-2.94,.07-5.92,.51-8.89,1.38-17.18,5.06-27.21,22.36-22.41,38.64,4.8,16.28,22.61,25.37,39.79,20.31,5.56-1.64,10.37-4.57,14.17-8.32,8.57,3.48,18.44,4.29,28.23,1.73,6.95,6.17,15.81,11.22,26,14.34,12.39,3.8,24.76,4.13,35.42,1.62-1.55,5.56-2.67,14.35,2.41,21.74,1.5,2.18,4.88,1.36,5.18-1.26,.75-6.45,3.05-16.1,10.03-20.32,2.83,2.73,6.29,4.19,9.86,3.78,7.78-.89,13.08-10.3,11.86-21.01Z"/>
    <path class="cls-5" d="M267.24,131.38v3.23c0,.54-.35,1.01-.87,1.15-1.78,.5-5.55,2.19-3.81,7.26,1.64,4.77,6.78,2.15,6.78,2.15"/>
    <path class="cls-6" d="M250.82,158.54s22.18,14.03,49.98-.52"/>
    <path class="cls-1" d="M286.91,169.55l-1.72,51.54s34.27,12.25,60.04-7.22l-10.88-57.68-47.45,13.36Z"/>
    <path class="cls-2" d="M453.93,331.87c5.48-.14,9.66-4.97,8.97-10.4-5.78-45.94-39.33-117.26-69.63-120.85-5.27-.62-24.08-1.72-30.43-2.1-.24,22.38-33.92,42.41-61.21,42.41-30.76,0-35.93-19.59-35.93-42.12,0-.31,.02-.62,.03-.94-16.47,.97-31.46,2.36-31.46,2.36-37.78,.93-89.39,98.43-98.94,117.13-.76,1.5,.2,3.29,1.87,3.49l62.63,7.43c.89,.11,1.77-.29,2.27-1.03l14.66-21.45c-8.85,23.49-27.3,104.82-29.73,138.33-.34,4.73,3.4,8.74,8.14,8.74h225.6c5.26,0,9.14-4.9,7.95-10.02l-25.6-109.7,50.79-1.27Z"/>
    <path class="cls-1" d="M297.96,240.93c26.52,3.04,65.52-20.03,65.76-42.41-24.77-1.48-42.79-.76-63.34-1.45-10.64-.35-23.57,.12-35.12,.8,0,.31-.03,.62-.03,.94,0,22.53,2.18,38.62,32.73,42.12Z"/>
    <path class="cls-1" d="M417.38,332.55c-18.97-1.1-119.66,20.47-119.66,20.47,0,0-28.92-37.35-78.3-2.87,0,0-2.66,4.49,1.93,4.98,0,0-5.42,5.16-2.13,8.03s5.84,.9,5.84,.9c0,0-4.42,3.68-1.54,6.87,2.59,2.87,7.45,2.11,9.62-.14-1.21,1.65-2.97,5.17-.14,6.3,6.32,2.52,11.36-7.07,18.42-5.03,0,0,27.03,14.59,46.05,6.69,57.87,25.63,132.84,5.79,147.82,1.38,1.68-.5,3.05-1.73,3.71-3.35l7.52-20.7s-20.17-22.43-39.14-23.53Z"/>
    <path class="cls-1" d="M143.76,321.52c-20.45-34.48-90.76-53.54-90.76-53.54-3.58-4.21-15.35-21.63-46.23-27.05,0,0-5.46,2.31,.31,5.61,3.19,1.82,5.62,2.58,8.55,4.29-.78-.35-10.07-4.3-14.65-.26,0,0-1.48,4.07,6.27,5.05,3.16,.41,5.42,1.3,6.99,2.23,0,0-12.01-3.45-14.05,1.82,0,0-1.11,4.59,2.19,3.59,2.48-.74,7.1-1.25,9.62-.54,0,0-7.3-1.2-8.91,4.58,0,0-1.03,3.47,.99,3.92,1.44,.32,2.17-.21,2.72-.7,.83-.74,1.04-2.13,1.73-2.81,.56-.54,2.5,.05,3.54,.65,0,0,12.68,18.6,23.91,16.17,.15-.03,.32-.04,.5-.02,6.98,9.74,63.95,71.22,88.57,78.26,27.13,7.76,46.85,11.5,53.9,7.06,11.39-7.17,15.22-28.13,15.22-28.13l-50.4-20.18Z"/>
  </g>
</svg>