<?xml version="1.0" encoding="UTF-8"?>
<svg id="Layer_2" data-name="Layer 2" xmlns="http://www.w3.org/2000/svg" xmlns:xlink="http://www.w3.org/1999/xlink" viewBox="0 0 389.19 324.97">
  <defs>
    <style>
      .cls-1 {
        fill: none;
      }

      .cls-2 {
        fill: url(#linear-gradient-2);
      }

      .cls-2, .cls-3 {
        isolation: isolate;
        opacity: .78;
      }

      .cls-3 {
        fill: url(#linear-gradient-3);
      }

      .cls-4 {
        fill: url(#linear-gradient);
      }

      .cls-5 {
        clip-path: url(#clippath);
      }

      .cls-6 {
        fill: #f8ad41;
      }

      .cls-7 {
        fill: #f49343;
      }

      .cls-8 {
        fill: #014947;
      }

      .cls-9 {
        fill: #fff;
      }

      .cls-10 {
        fill: #e8510e;
      }

      .cls-11 {
        fill: #d9d9dc;
      }

      .cls-12 {
        fill: #d98c81;
      }

      .cls-13 {
        fill: #252048;
      }

      .cls-14 {
        fill: #2c519f;
      }

      .cls-15 {
        fill: url(#linear-gradient-8);
      }

      .cls-16 {
        fill: url(#linear-gradient-9);
      }

      .cls-17 {
        fill: url(#linear-gradient-4);
      }

      .cls-18 {
        fill: url(#linear-gradient-6);
      }

      .cls-19 {
        fill: url(#linear-gradient-7);
      }

      .cls-20 {
        fill: url(#linear-gradient-5);
      }

      .cls-21 {
        fill: url(#linear-gradient-40);
      }

      .cls-22 {
        fill: url(#linear-gradient-14);
      }

      .cls-23 {
        fill: url(#linear-gradient-18);
      }

      .cls-24 {
        fill: url(#linear-gradient-22);
      }

      .cls-25 {
        fill: url(#linear-gradient-20);
      }

      .cls-26 {
        fill: url(#linear-gradient-21);
      }

      .cls-27 {
        fill: url(#linear-gradient-23);
      }

      .cls-28 {
        fill: url(#linear-gradient-15);
      }

      .cls-29 {
        fill: url(#linear-gradient-19);
      }

      .cls-30 {
        fill: url(#linear-gradient-16);
      }

      .cls-31 {
        fill: url(#linear-gradient-17);
      }

      .cls-32 {
        fill: url(#linear-gradient-13);
      }

      .cls-33 {
        fill: url(#linear-gradient-12);
      }

      .cls-34 {
        fill: url(#linear-gradient-10);
      }

      .cls-35 {
        fill: url(#linear-gradient-11);
      }

      .cls-36 {
        fill: url(#linear-gradient-27);
      }

      .cls-37 {
        fill: url(#linear-gradient-24);
      }

      .cls-38 {
        fill: url(#linear-gradient-26);
      }

      .cls-39 {
        fill: url(#linear-gradient-38);
      }

      .cls-40 {
        fill: url(#linear-gradient-35);
      }

      .cls-41 {
        fill: url(#linear-gradient-37);
      }

      .cls-42 {
        fill: url(#linear-gradient-34);
      }

      .cls-43 {
        fill: url(#linear-gradient-39);
      }

      .cls-44 {
        fill: url(#linear-gradient-36);
      }

      .cls-45 {
        fill: url(#linear-gradient-25);
      }

      .cls-46 {
        fill: url(#linear-gradient-28);
      }

      .cls-47 {
        fill: url(#linear-gradient-29);
      }

      .cls-48 {
        fill: url(#linear-gradient-33);
      }

      .cls-49 {
        fill: url(#linear-gradient-30);
      }

      .cls-50 {
        fill: url(#linear-gradient-32);
      }

      .cls-51 {
        fill: url(#linear-gradient-31);
      }
    </style>
    <linearGradient id="linear-gradient" x1="-88.43" y1="-186.53" x2="526.42" y2="-248.31" gradientTransform="translate(0 -68) scale(1 -1)" gradientUnits="userSpaceOnUse">
      <stop offset="0" stop-color="#7e1ac2"/>
      <stop offset="1" stop-color="#fd31ac"/>
    </linearGradient>
    <clipPath id="clippath">
      <path class="cls-1" d="M353.15,62.36c11.94,6.53,23.07,15.34,29.84,27.23,6.77,11.88,8.61,27.21,2.39,39.41-9.38,18.34-33.44,24.01-53.48,20.04-20.02-3.98-37.81-15.17-56.8-22.72-18.99-7.55-41.63-11.09-58.99-.24-13.35,8.34-20.88,23.54-26.21,38.48-5.53,15.46-9.48,31.56-16.56,46.36-7.08,14.79-17.92,28.6-32.96,34.85-15.03,6.25-34.62,2.95-43.87-10.57-8.09-11.83-6.74-27.8-12.32-41.01-10.32-24.43-42.57-36.09-47.33-62.22-3.03-16.62,7.13-33.45,20.93-43,13.78-9.55,30.63-13.25,47.03-16.42,47.12-9.08,94.27-13.12,141.81-18.6,38.02-4.38,70.56-11.25,106.53,8.41h-.02Z"/>
    </clipPath>
    <linearGradient id="linear-gradient-2" x1="287.2" y1="-324.81" x2="101.53" y2="150.47" gradientTransform="translate(0 -68) scale(1 -1)" gradientUnits="userSpaceOnUse">
      <stop offset=".04" stop-color="#fcfbff" stop-opacity="0"/>
      <stop offset="1" stop-color="#fff"/>
    </linearGradient>
    <linearGradient id="linear-gradient-3" x1="156.37" y1="-376.18" x2="-29.28" y2="99.07" gradientTransform="translate(0 -68) scale(1 -1)" gradientUnits="userSpaceOnUse">
      <stop offset="0" stop-color="#fcfbff" stop-opacity="0"/>
      <stop offset="1" stop-color="#fff"/>
    </linearGradient>
    <linearGradient id="linear-gradient-4" x1="298.2" y1="-264.18" x2="343.32" y2="-264.18" xlink:href="#linear-gradient"/>
    <linearGradient id="linear-gradient-5" x1="359.66" y1="-238.1" x2="378.57" y2="-238.1" xlink:href="#linear-gradient"/>
    <linearGradient id="linear-gradient-6" x1="-23.64" y1="-297.19" x2="69.48" y2="-227.57" xlink:href="#linear-gradient"/>
    <linearGradient id="linear-gradient-7" x1="64.57" y1="-406.53" x2="119.94" y2="-321.03" xlink:href="#linear-gradient"/>
    <linearGradient id="linear-gradient-8" x1="-76.58" y1="-340.64" x2="367.11" y2="2.95" gradientTransform="translate(0 -68) scale(1 -1)" gradientUnits="userSpaceOnUse">
      <stop offset="0" stop-color="#ea5000"/>
      <stop offset="1" stop-color="#f9ae41"/>
    </linearGradient>
    <linearGradient id="linear-gradient-9" x1="207.58" y1="-512.97" x2="217.1" y2="-79.78" gradientTransform="translate(0 -68) scale(1 -1)" gradientUnits="userSpaceOnUse">
      <stop offset="0" stop-color="#214fb1"/>
      <stop offset="1" stop-color="aqua"/>
    </linearGradient>
    <linearGradient id="linear-gradient-10" x1="-28.49" y1="-404.99" x2="416.56" y2="-60.37" xlink:href="#linear-gradient-8"/>
    <linearGradient id="linear-gradient-11" x1="-68.83" y1="-351.22" x2="375.22" y2="-7.36" xlink:href="#linear-gradient-8"/>
    <linearGradient id="linear-gradient-12" x1="-11.89" y1="-429.24" x2="435.1" y2="-83.1" xlink:href="#linear-gradient-8"/>
    <linearGradient id="linear-gradient-13" x1="251.95" y1="-281.78" x2="338.36" y2="-119.43" gradientTransform="translate(0 -68) scale(1 -1)" gradientUnits="userSpaceOnUse">
      <stop offset="0" stop-color="#f38895"/>
      <stop offset="1" stop-color="#fdb7a2"/>
    </linearGradient>
    <linearGradient id="linear-gradient-14" x1="246.46" y1="-278.78" x2="332.84" y2="-116.48" xlink:href="#linear-gradient-13"/>
    <linearGradient id="linear-gradient-15" x1="255.33" y1="-282.93" x2="341.37" y2="-121.27" xlink:href="#linear-gradient-13"/>
    <linearGradient id="linear-gradient-16" x1="244.44" y1="-277.6" x2="330.73" y2="-115.45" xlink:href="#linear-gradient-13"/>
    <linearGradient id="linear-gradient-17" x1="259.89" y1="-285.7" x2="346.07" y2="-123.76" xlink:href="#linear-gradient-13"/>
    <linearGradient id="linear-gradient-18" x1="256.12" y1="-283.75" x2="342.35" y2="-121.72" xlink:href="#linear-gradient-13"/>
    <linearGradient id="linear-gradient-19" x1="254.66" y1="-268.26" x2="336.14" y2="-119.91" xlink:href="#linear-gradient-13"/>
    <linearGradient id="linear-gradient-20" x1="251.7" y1="-281.43" x2="337.96" y2="-119.34" xlink:href="#linear-gradient-13"/>
    <linearGradient id="linear-gradient-21" x1="240.76" y1="-275.45" x2="326.96" y2="-113.46" xlink:href="#linear-gradient-13"/>
    <linearGradient id="linear-gradient-22" x1="254.22" y1="-268.88" x2="336.12" y2="-119.71" xlink:href="#linear-gradient-13"/>
    <linearGradient id="linear-gradient-23" x1="149.31" y1="-511.72" x2="158.84" y2="-78.43" xlink:href="#linear-gradient-9"/>
    <linearGradient id="linear-gradient-24" x1="206.53" y1="-395.43" x2="250.26" y2="-334.64" xlink:href="#linear-gradient-8"/>
    <linearGradient id="linear-gradient-25" x1="171.78" y1="-340.49" x2="212.75" y2="-340.49" xlink:href="#linear-gradient-13"/>
    <linearGradient id="linear-gradient-26" x1="171.82" y1="-331.45" x2="177.13" y2="-331.45" xlink:href="#linear-gradient-13"/>
    <linearGradient id="linear-gradient-27" x1="181.78" y1="-512.43" x2="191.31" y2="-79.17" xlink:href="#linear-gradient-9"/>
    <linearGradient id="linear-gradient-28" x1="266.28" y1="-514.26" x2="275.8" y2="-81.09" xlink:href="#linear-gradient-9"/>
    <linearGradient id="linear-gradient-29" x1="208.29" y1="-378.96" x2="183.63" y2="-318.91" xlink:href="#linear-gradient-8"/>
    <linearGradient id="linear-gradient-30" x1="212" y1="-317.15" x2="253.05" y2="-317.15" xlink:href="#linear-gradient-13"/>
    <linearGradient id="linear-gradient-31" x1="246.01" y1="-307.09" x2="253.05" y2="-307.09" xlink:href="#linear-gradient-13"/>
    <linearGradient id="linear-gradient-32" x1="234.79" y1="-513.58" x2="244.31" y2="-80.37" xlink:href="#linear-gradient-9"/>
    <linearGradient id="linear-gradient-33" x1="174.39" y1="-142.41" x2="255.41" y2="-145.58" xlink:href="#linear-gradient-13"/>
    <linearGradient id="linear-gradient-34" x1="166.25" y1="-130.25" x2="260.5" y2="-101.81" gradientTransform="translate(0 -68) scale(1 -1)" gradientUnits="userSpaceOnUse">
      <stop offset="0" stop-color="#f38895"/>
      <stop offset=".24" stop-color="#f69799"/>
      <stop offset=".71" stop-color="#fbae9f"/>
      <stop offset="1" stop-color="#fdb7a2"/>
    </linearGradient>
    <linearGradient id="linear-gradient-35" x1="79.32" y1="-221.31" x2="213.45" y2="-117.57" xlink:href="#linear-gradient-13"/>
    <linearGradient id="linear-gradient-36" x1="72.37" y1="-212.42" x2="206.56" y2="-108.61" xlink:href="#linear-gradient-13"/>
    <linearGradient id="linear-gradient-37" x1="71.85" y1="-210.09" x2="205.12" y2="-107.02" xlink:href="#linear-gradient-13"/>
    <linearGradient id="linear-gradient-38" x1="75.88" y1="-215.72" x2="209.34" y2="-112.49" xlink:href="#linear-gradient-13"/>
    <linearGradient id="linear-gradient-39" x1="80.73" y1="-222.01" x2="214.17" y2="-118.8" xlink:href="#linear-gradient-13"/>
    <linearGradient id="linear-gradient-40" x1="80.4" y1="-221.81" x2="213.88" y2="-118.56" xlink:href="#linear-gradient-13"/>
  </defs>
  <g id="Layer_1-2" data-name="Layer 1">
    <g>
      <g>
        <path class="cls-4" d="M353.15,62.36c11.94,6.53,23.07,15.34,29.84,27.23,6.77,11.88,8.61,27.21,2.39,39.41-9.38,18.34-33.44,24.01-53.48,20.04-20.02-3.98-37.81-15.17-56.8-22.72-18.99-7.55-41.63-11.09-58.99-.24-13.35,8.34-20.88,23.54-26.21,38.48-5.53,15.46-9.48,31.56-16.56,46.36-7.08,14.79-17.92,28.6-32.96,34.85-15.03,6.25-34.62,2.95-43.87-10.57-8.09-11.83-6.74-27.8-12.32-41.01-10.32-24.43-42.57-36.09-47.33-62.22-3.03-16.62,7.13-33.45,20.93-43,13.78-9.55,30.63-13.25,47.03-16.42,47.12-9.08,94.27-13.12,141.81-18.6,38.02-4.38,70.56-11.25,106.53,8.41h-.02Z"/>
        <g class="cls-5">
          <g>
            <path class="cls-2" d="M216.88-26.69c1.71-.3,2.01,2.36,.34,2.69-13.67,2.64-25.47,10.01-34.91,19.91,6.61-2.2,14.23-1.69,20.93-.5,11.98,2.12,23.37,6.93,33.82,13.12,23.09,13.7,41.22,33.68,61.15,51.41,19.34,17.21,41.38,32.37,67.78,34.53,11.18,.92,22.62-.78,32.66-6.02,10.3-5.37,18.15-14.55,22.84-25.18,10.45-23.73,4.6-50.35-10.54-70.56-16.67-22.24-41.95-35.16-67.97-42.7-6.36-1.84-12.82-3.39-19.27-4.87-3.53-.81-2.83-6.4,.8-5.7,26.22,5.04,52.91,14.43,73.79,31.74,19.65,16.28,34.5,40.25,34.3,66.57-.16,23.41-11.78,46.56-33.12,56.98-20.71,10.13-45.92,6.64-66.21-2.81-25.47-11.87-45.05-33.16-65.48-51.98C249.76,23.34,229.22,6.94,204.83,1.67c-5.42-1.17-11.32-2.23-16.85-1.33-3.9,.65-8.86,2.39-11.05,5.99-3.51,5.76,4.87,10.53,8.57,13.34,5.79,4.41,11.61,8.8,17.42,13.17,23.48,17.6,47.28,34.96,72.56,49.84,44.51,26.19,95.07,45.54,147.27,44.13,6.08-.16,12.14-.62,18.18-1.35,1.62-.2,1.94,2.32,.32,2.55-50.43,7.17-101.4-6.54-146.43-29.14-25.81-12.95-50.31-28.65-73.8-45.49-12.1-8.69-24.03-17.62-35.94-26.61-5.06-3.83-12.21-7.72-14.24-14.2-.14-.45-.12-.89-.2-1.34-3.14,5.23-5.78,10.75-7.83,16.41-9.25,25.44-8.68,53.39-7.17,80.05,1.59,27.62,4.42,55.71-.87,83.11-4.6,23.78-15.42,48-35.42,62.45-19.2,13.86-47.22,18.54-67.72,4.81-2.28-1.53,.11-5.66,2.51-4.22,18.97,11.29,42.64,8.53,60.56-3.67,20.57-13.99,31.29-38.77,35.48-62.71,9.29-52.98-9.97-108.17,8.84-159.98,9.38-25.86,30.09-49.21,57.83-54.19l.04,.03Z"/>
            <path class="cls-3" d="M7.15,106.04c4.46,16.45,11.55,32.44,24.6,43.75,10.8,9.36,25.19,15.05,39.52,13.79,14.8-1.3,27.65-9.88,36.83-21.39,9.63-12.09,14.94-26.79,17.35-42.01,2.82-17.94,1.89-36.17,.94-54.21-.11-2.12,3.12-2.56,3.26-.42,2.23,32.92,4.24,69.09-16.15,97.12-9.11,12.52-22.19,22.43-37.56,25.17-14.89,2.65-30.4-2.09-42.55-10.86-15.99-11.55-26.44-30.63-29.74-50.02-.34-2,2.92-2.95,3.48-.92h.02Z"/>
          </g>
        </g>
        <path class="cls-17" d="M337.86,209c-6.01,7.61-16.99,10.89-25.97,7.42-8.98-3.47-15.05-13.69-13.42-23.28,2.57-15.15,19.24-21.34,32.59-17.46,14.42,4.19,15.37,22.52,6.81,33.32h0Z"/>
        <path class="cls-20" d="M376.4,175.58c-2.34,2.94-6.42,4.44-10.02,3.44-3.8-1.04-6.7-4.83-6.72-8.82-.04-3.99,2.8-7.82,6.6-8.92,8.72-2.52,16.13,6.73,10.14,14.28h0Z"/>
        <path class="cls-18" d="M4.17,157.08c4.96-4.81,13.12-3.18,19.4-.35,19.22,8.7,34.42,26.07,40.61,46.43,1.11,3.66,1.89,7.85-.07,11.14-1.89,3.17-5.9,4.52-9.54,4.16s-6.97-2.13-10.13-3.99c-10.41-6.18-58.76-39.44-40.27-57.38h0Z"/>
        <path class="cls-19" d="M80.56,296.7c-5.26-4.02-10-10.18-8.81-16.74,.8-4.35,4.15-7.88,8.06-9.88,3.9-2,8.33-2.68,12.67-3.15,13.53-1.46,38.35,2.95,34.07,22.52-4.6,21.06-33.44,16.85-45.99,7.26Z"/>
      </g>
      <g>
        <path class="cls-15" d="M235.37,101.47c4.94-10.14,8.81-21.98,4.44-32.33-3.12-7.38-9.95-12.66-17.04-16.7-7.11-4.03-14.81-7.15-21.39-11.94-7.61-5.56-13.39-13.11-20.47-19.29-4.53-3.95-10.82-7.49-16.45-5.19-4.24,1.74-6.47,6.18-8.09,10.34-6.15,15.8-8.66,32.9-7.31,49.7,.48,5.94,1.73,12.39,6.42,16.24,3.62,2.97,8.57,3.79,13.17,5,10.55,2.77,20.34,8.17,28.15,15.53l38.58-11.38h0Z"/>
        <path class="cls-16" d="M173.19,176.92l-15.85,53.79s-2.67,42.9,49.27,41.94c51.95-.97,60.43-33,60.43-33l-22.46-62.72h-71.4Z"/>
        <path class="cls-34" d="M211.87,80.27s-26.31,8.08-56.65,21.58c0,0,9.13,65,9.13,70.2s-2.12,36.81-2.12,36.81c0,0,55.6,24.06,94.73,0,0,0-8.9-30.77-8.45-35.08s13.98-75.4,13.98-75.4c-12.91-9-50.61-18.09-50.61-18.09h0Z"/>
        <path class="cls-10" d="M238.49,139.71c-8.2,5.83-17.99,9.88-27.56,12.76-9.68,2.91-19.82,4.74-29.93,4.71-1.73,0-1.6,2.58,.07,2.68,10.48,.59,20.91-.4,30.95-3.6,4.94-1.57,9.73-3.59,14.3-6.06,4.67-2.54,8.95-5.6,13.21-8.77,1.02-.75,.02-2.46-1.03-1.71h0Z"/>
        <path class="cls-10" d="M235.62,154.52c-5.67,2.87-12.03,4.62-18.25,5.81-6.28,1.2-12.62,1.63-19,1.48-2.12-.04-2.37,3.07-.25,3.33,6.61,.82,13.42,.37,19.91-1.17,6.6-1.56,12.53-4.32,18.43-7.65,1.09-.62,.3-2.38-.84-1.8h0Z"/>
        <path class="cls-10" d="M164.27,210.83c.07,.85,.84,1.31,1.52,1.12,.09,.06,.16,.12,.27,.16,5.72,1.8,11.53,3.3,17.4,4.47,10.41,2.07,21.02,3.14,31.64,3.2,10.2,.06,20.66-.59,30.63-2.95,.73,.58,2.03,.26,2.09-.98,.12-2.51,.02-5.04,0-7.55,0-2.52,0-5.03-.02-7.55,0-.2-.04-.39-.11-.55-.04-.39-.27-.73-.59-.98-.96-.68-2.23-1.02-3.26-1.57-1-.52-1.96-1.09-2.89-1.74-1.78-1.27-3.32-2.9-4.4-4.81-2.41-4.26-2.37-9.28-2.75-14.03-.07-.88-.84-1.22-1.48-1.07-.16-.1-.36-.19-.55-.22-3.3-.4-6.6-.75-9.89-1.01-5.87-.46-11.73-.61-17.61-.53-2.94,.04-5.87,.14-8.81,.32-2.57,.14-5.21,.23-7.77,.61-.52-.43-1.43-.37-1.69,.5,0,.04-.02,.07-.04,.12-.11,.16-.16,.36-.18,.56-1.39,4.28-3.67,8.24-6.77,11.48-1.62,1.7-3.44,3.18-5.44,4.42-2.03,1.25-4.15,2.07-6.38,2.88-.04,0-.05,.03-.07,.04-.64-.12-1.35,.24-1.34,1.11,.04,2.43-.04,4.9-.3,7.32-.12,1.22-.32,2.43-.53,3.64-.11,.55-.21,1.08-.32,1.63-.14,.63-.36,1.3-.32,1.94h-.02Zm2.85-1.12c.14-.69,.23-1.41,.34-2.05,.21-1.24,.39-2.49,.52-3.76,.21-2.12,.27-4.25,.18-6.37,4.78-1.17,9.31-4.29,12.67-7.82,3.17-3.33,5.63-7.42,6.83-11.88,1.48-.07,2.96-.27,4.44-.39,1.6-.13,3.19-.23,4.8-.32,11.52-.63,23.1-.4,34.6,.75-.07,5.01,.39,10.42,2.94,14.79,1.3,2.25,3.14,4.08,5.24,5.56,.98,.71,2.03,1.33,3.12,1.87,.8,.4,1.64,.84,2.51,1.12,0,2.36-.04,4.74-.04,7.1,0,2.15-.09,4.32-.04,6.47-5.51,.72-11.03,1.48-16.58,1.9-10.43,.79-20.93,.61-31.3-.59-10.23-1.17-20.36-3.34-30.2-6.43l-.04,.03Z"/>
        <path class="cls-35" d="M198.93,93.52c-14.21-6.08-26.05-11.18-42.87-2.29,0,0-31.91,15.95-47.38,15.01-20.96-1.25-33.27,23.81-19.09,40.35,9.66,11.28,37.97,7.48,37.97,7.48l40.72-7.53,30.68-53.01h-.02Z"/>
        <path class="cls-10" d="M231.14,86.87c3.26-5,4.72-11.28,2.32-16.65-1.84-4.11-5.67-7.26-9.86-9.62s-8.79-4.06-13.14-6.19c-11.89-5.88-21.62-15.17-27.42-26.15-.52-.97-1.02-1.97-1.87-2.72s-2.17-1.18-3.28-.75c-.87,.35-1.41,1.12-1.87,1.87-5.97,9.71-8.9,20.9-8.38,31.97,.25,5.45,1.46,11.11,5.26,15.37,2.92,3.28,7.11,5.45,10.5,8.36,3.71,3.17,6.36,7.17,9.43,10.83,3.07,3.67,6.81,7.16,11.66,8.66,10.8,3.34,21.82-7.61,26.62-14.95h.04Z"/>
        <path class="cls-10" d="M228.45,94.18c2.14,.37,4.56-.13,6.51-1.12,2.1-1.08,3.58-2.79,4.96-4.68,1.32-1.84,2.62-3.7,4.53-4.98,1.69-1.15,3.71-1.83,5.74-2.02,1.12-.1,2.28-.04,3.4,.17,.66,.13,1.5,.3,2.16,.66,.25-.24,.53-.45,.86-.58,.8-.32,1.78-.06,2.34,.58,0,.01,.02,.04,.04,.06h0c1.02,.82,.98,2.43,.23,3.41-.86,1.12-2.62,1.01-3.51,0-.46-.52-.73-1.15-.7-1.84-.61-.16-1.23-.42-1.78-.52-.98-.19-1.96-.22-2.94-.12-2,.2-3.94,.98-5.49,2.25-1.8,1.47-2.98,3.59-4.4,5.39-1.39,1.76-3.05,3.15-5.13,3.99-2.26,.91-4.62,.92-6.99,.4-.66-.14-.45-1.14,.21-1.02l-.02-.03Z"/>
        <g>
          <path class="cls-33" d="M253.05,93.35c11.85,2.3,19.57,6.87,25.15,22.24s28.18,51.75,17.99,66.94c-21.12,31.42-50.9,5.58-37.69-16.47l-11.59-22.76,6.13-49.95h0Z"/>
          <path class="cls-10" d="M257.6,158.13c.87-2.78,2.62-5.09,4.94-6.83,5.19-3.9,11.8-3.82,17.97-4.03,.66-.03,.68,.98,.04,1.04-5.53,.43-11.32,1.3-15.96,4.61-1.89,1.35-3.55,3.23-4.33,5.46-.39,1.08-.61,2.23-.59,3.37,.02,1.24,.39,2.26,.77,3.41,.45,1.4-1.53,2.22-2.28,1.01-1.43-2.28-1.3-5.58-.53-8.04h-.02Z"/>
          <path class="cls-10" d="M259.19,164.5c.84-.98,2.07-1.76,3.1-2.51,1.05-.78,2.16-1.51,3.26-2.2,2.16-1.34,4.42-2.51,6.77-3.47,4.78-1.97,9.82-2.71,14.94-3.11,.7-.06,.7,.98,.04,1.07-4.87,.62-9.63,2.41-14.1,4.42-2.21,.99-4.37,2.12-6.44,3.41-1.03,.65-2.05,1.33-3.03,2.05-1.02,.73-1.94,1.67-2.99,2.32-1.25,.76-2.46-.91-1.55-1.97h0Z"/>
        </g>
        <g>
          <path class="cls-13" d="M299.62,98.97l-5.05,10.44c-.36,.73-1.21,1.04-1.94,.68l-9.18-4.54c-.71-.36-1.02-1.24-.66-1.96l5.05-10.44c.36-.73,1.21-1.04,1.94-.68l9.18,4.54c.71,.36,1.02,1.24,.66,1.96Z"/>
          <path class="cls-32" d="M308.82,88.7c-10.02,28.18,1.41,56.07-11.39,84.13-6.61,14.52-24.89,15.31-32.93,.3l8.02-23.51,18.04-52.97,18.25-7.95Z"/>
          <path class="cls-10" d="M284.23,185.34c-.84-.71-2.03-.62-3.07-.81-1.05-.19-2.1-.46-3.12-.79-2.05-.68-3.96-1.71-5.69-3-1.69-1.25-3.19-2.82-4.46-4.51-.62-.82-1.16-1.7-1.69-2.59-.59-.99-1.03-2.12-1.75-3.01-.96-1.22-2.55,.14-2.35,1.37,.18,1.12,.94,2.33,1.55,3.27,.64,1.02,1.39,1.99,2.19,2.9,1.53,1.74,3.33,3.23,5.24,4.52s3.98,2.35,6.1,3.18c1.05,.4,2.12,.75,3.21,1.01s2.57,.75,3.6,.16c.55-.32,.77-1.22,.23-1.69h0Z"/>
          <g>
            <path class="cls-22" d="M290.58,96.65l1.32,11.99c21.87-.88,29.81-15.75,36.79-21.09l-21.2-15.11-16.94,24.22h.02Z"/>
            <path class="cls-28" d="M318.71,78.31c-.25,.46-.43,.97-.48,1.51,0,.14-.04,.29-.04,.43-.04,1.51,.73,2.9,1.94,3.64,.46,.3,1,.5,1.55,.59l3.57,.58,5.03,.81c.71,.12,1.43,.03,2.05-.22,.89-.33,1.62-.98,2.1-1.82,.25-.46,.41-.97,.48-1.51,.23-1.99-1.02-3.83-2.89-4.37h0c-.11-.03-.21-.06-.32-.07l-8.54-1.67s-.16-.03-.25-.04c-1.73-.23-3.37,.66-4.17,2.12h-.04Z"/>
            <path class="cls-30" d="M337.36,56.05c-.66-1.93-2.82-2.88-4.67-2.03l-15.87,7.29-12.64,12.63,9.56,11.63,11.21-18.94,10.89-6.45c1.41-.84,2.05-2.56,1.52-4.12h0Z"/>
            <polygon class="cls-13" points="304.2 73.94 306.78 71.35 319.51 67.02 323.33 69.39 313.04 86 304.2 73.94"/>
            <path class="cls-31" d="M335.31,90.3c-.18,1.44-1.12,2.72-2.55,3.28l-8.13,3.14c-2.09,.81-4.46-.22-5.31-2.3-.25-.61-.34-1.22-.3-1.84,0-.12,0-.22,.02-.32,0-.09,.02-.19,.05-.27,.27-1.43,1.27-2.67,2.73-3.15l8.22-2.87c1.18-.39,2.42-.23,3.4,.4,.14,.09,.29,.19,.43,.3,.5,.37,.91,.89,1.16,1.51,.3,.71,.39,1.44,.3,2.13h-.02Z"/>
            <path class="cls-13" d="M333.44,86.35c-.3,.72-.8,1.35-1.52,1.82l-7.29,4.78c-1.82,1.2-4.8,1.22-6.17-1.38,.27-1.43,1.89-2.25,3.33-2.74l8.22-2.87c1.18-.39,2.42-.23,3.4,.4h.02Z"/>
            <path class="cls-13" d="M328.94,84.07c-.05,1.14-.59,2.25-1.55,3l-4.83,3.6c-1.78,1.38-4.31,1.08-5.72-.66-.62-.78-.93-1.69-.93-2.61v-.27c.07-1.24,.64-2.42,1.71-3.2l4.97-3.39c.84-.61,1.85-.84,2.8-.72,.98,.1,1.93,.61,2.6,1.43s.98,1.83,.93,2.82h.02Z"/>
            <path class="cls-23" d="M317.73,87.23c0,.09-.02,.19-.02,.27v.33h0c0,.81,.23,1.61,.73,2.35,1.27,1.86,3.78,2.36,5.67,1.12l7.31-4.77c.36-.24,.66-.52,.91-.84,.48-.59,.78-1.31,.87-2.05,.12-.99-.09-2.02-.71-2.9-.36-.49-.78-.88-1.28-1.17-.37-.22-.78-.36-1.21-.45-.94-.2-1.96-.04-2.83,.49l-7.01,4.28-.45,.27c-1.12,.69-1.8,1.82-1.96,3.05h-.02Z"/>
            <path class="cls-13" d="M320.19,83.83l-.45,.27c-1.12,.69-1.8,1.82-1.96,3.05,0,.09-.02,.19-.02,.27v.33h0c1.52,.99,3.58,.86,4.99-.42l2.55-2.33,5.54-5.06c.16-.14,.3-.29,.41-.45,.39-.48,.66-1.02,.8-1.6h0c-.11-.03-.21-.06-.32-.07l-8.54-1.69s-.16-.03-.25-.04l-4.69,4.06c-.04,1.51,.73,2.9,1.94,3.64h-.02Z"/>
            <path class="cls-29" d="M315.39,73.15c-.36,.63-.53,1.37-.52,2.13,.05,2.28,1.89,4.09,4.14,4.11h2.82l5.88,.04c.89,0,1.71-.29,2.37-.78,.48-.33,.87-.79,1.16-1.31,.36-.63,.53-1.37,.5-2.13-.09-2.1-1.76-3.8-3.85-3.89l-2.82-.1-2.99-.12-2.89-.1c-1.64-.07-3.07,.82-3.8,2.16h0Z"/>
            <path class="cls-13" d="M326.09,77.92c.11,1.14-.25,2.32-1.09,3.21l-4.22,4.31c-1.55,1.64-4.1,1.74-5.76,.23-.73-.68-1.16-1.53-1.3-2.43-.02-.09-.04-.19-.04-.27-.12-1.24,.27-2.49,1.21-3.43l4.4-4.12c.73-.72,1.69-1.11,2.66-1.14,1-.04,2,.29,2.78,.99,.8,.71,1.25,1.66,1.35,2.65Z"/>
            <path class="cls-25" d="M330.24,76.75c.02,1.14-.43,2.29-1.32,3.11l-6.51,5.85c-1.66,1.53-4.22,1.41-5.76-.23-.68-.73-1.05-1.61-1.12-2.54-.02-.09-.02-.19-.02-.27-.04-1.24,.46-2.46,1.48-3.33l6.67-5.66c.78-.66,1.78-.98,2.75-.94,1,.03,1.96,.45,2.71,1.21s1.12,1.74,1.14,2.75l-.02,.04Z"/>
            <g>
              <g>
                <path class="cls-13" d="M295.86,96.13l11.61-19.19,12.96-4.09-.93,8.18-4.56,3.14s.53,18.4-19.07,11.96h0Z"/>
                <path class="cls-13" d="M320.42,72.85l6.33,4.75c1.37,1.04,1.68,2.98,.68,4.39h0c-.89,1.25-2.53,1.67-3.9,1.01l-4.03-1.96,.93-8.18h0Z"/>
              </g>
              <g>
                <path class="cls-26" d="M290.58,96.65l13.62-22.7,15.28-4.88-1.07,9.67-5.37,3.73s.7,21.71-22.46,14.19h0Z"/>
                <path class="cls-13" d="M322.1,71.09l-2.1,6.96,1.84,1.37,2.42,1.79c.12,.1,.27,.19,.39,.26,1.41,.79,3.17,.58,4.35-.58,.64-.61,1-1.4,1.09-2.2,.14-1.07-.18-2.19-.94-3.03l-4.05-4.41-2.99-.12v-.04Z"/>
                <path class="cls-24" d="M319.48,69.06l7.49,5.58c1.62,1.21,2,3.52,.82,5.19h0c-1.03,1.48-2.98,1.99-4.6,1.21l-4.76-2.29,1.07-9.67h-.02Z"/>
              </g>
            </g>
          </g>
          <polygon class="cls-13" points="289.97 96.42 306.69 105.38 305.02 111.64 286.94 103.71 289.97 96.42"/>
        </g>
        <path class="cls-10" d="M251.59,145.67c.62-3.01,1.21-6.04,1.8-9.06,1.18-6.09,2.3-12.19,3.46-18.28,.66-3.49,1.34-6.99,1.87-10.49,.11-.65,1.19-.5,1.12,.14-.66,6.19-1.25,12.4-2.14,18.58-.55,3.76-1.21,7.51-1.91,11.24,.11-.07,.21-.13,.32-.2,.18-.13,.45-.32,.52-.37,.86-.66,1.64-1.41,2.35-2.22,1.37-1.54,2.41-3.4,2.94-5.42,.32-1.18,2.07-.71,1.8,.48-.52,2.35-1.52,4.6-2.96,6.53-.71,.95-1.52,1.83-2.44,2.56-.5,.4-1.02,.78-1.55,1.12-.48,.3-1.03,.66-1.59,.84-.27,1.33-.53,2.65-.8,3.98-.7,3.4-1.16,7.1-2.76,10.18-.37,.72-1.43,.36-1.44-.39-.11-3.08,.82-6.19,1.44-9.21h-.04Z"/>
        <g>
          <path class="cls-27" d="M188.82,237.61c-5.67-12.42-45.6-73.99-66.41-53.11s-9,60.99,22.52,86.16c31.52,25.17,65.66,14.59,43.89-33.05Z"/>
          <path class="cls-14" d="M116.3,203.14c2.5,13.09,8.74,25.05,16.15,35.94,3.9,5.73,8.22,11.16,12.67,16.45,4.3,5.09,8.65,10.18,13.21,15.04,4.56,4.85,9.66,9.1,16.19,10.85,1.44,.39,.82,2.39-.57,2.19-6.06-.84-11.16-4.88-15.42-9.09-4.72-4.68-9.02-9.85-13.35-14.91-9.06-10.56-17.7-21.65-23.42-34.44-3.12-6.97-5.33-14.2-6.31-21.8-.07-.56,.75-.81,.86-.23h0Z"/>
          <path class="cls-14" d="M176.7,217.43c7.67,9.22,13.83,19.94,17.19,31.56,.94,3.28,1.69,6.63,2.26,10,.29,1.67-2.28,2.2-2.55,.53-1.89-11.68-5.94-22.99-11.93-33.16-1.71-2.9-3.57-5.7-5.6-8.37-.34-.43,.27-.99,.62-.58h0Z"/>
          <g>
            <path class="cls-9" d="M249.58,324.97l23.46-35.47c-4.88-2.75-9.31-4.22-9.31-4.22l-27.56,32.82c10.46,7.19,13.41,6.87,13.41,6.87h0Z"/>
            <path class="cls-37" d="M241.32,316.28c-1.66,.81-3.37,1.43-5.15,1.83-1.91-1.31-4.37-3.13-7.4-5.32-2.82-2.05-6.11-4.47-9.89-7.2-4.08-2.97-8.72-6.3-13.91-9.95,1.43-7.13,4.05-14.79,7.79-21.09h0c11.03,4.91,30.06,6.25,43.44,8.76,3.44,.63,6.13,1.3,7.51,1.96,1.12,2.28-7.42,23.77-22.39,31h0Z"/>
            <path class="cls-7" d="M192.46,262.16c-1.53-1.2-3.16-2.48-4.88-3.93,1.75,1.44,3.35,2.75,4.88,3.93Z"/>
            <path class="cls-7" d="M177.13,249.32h0c.57,.5,1.12,.98,1.66,1.46-.53-.49-1.09-.97-1.66-1.46Z"/>
            <path class="cls-45" d="M212.75,274.56c-3.73,6.3-6.35,13.94-7.79,21.09-8.86-6.25-21.32-10.31-33.18-18.08l5.31-28.24c.57,.49,1.12,.97,1.66,1.44,1.09,.95,2.16,1.84,3.16,2.72,1,.86,1.96,1.69,2.91,2.48h0c.93,.79,1.84,1.54,2.69,2.25h0c1.75,1.46,3.35,2.75,4.88,3.93,2.67,2.09,5.06,3.82,7.31,5.32,.62,.42,1.27,.84,1.87,1.22,.32,.19,.62,.39,.94,.58,.61,.39,1.21,.73,1.82,1.09,.3,.17,.61,.35,.93,.52,.59,.33,1.19,.66,1.8,.98,1.82,.94,3.65,1.83,5.62,2.69h.07Z"/>
            <polygon class="cls-38" points="171.82 277.57 177.13 249.34 177.13 249.32 177.11 249.32 171.82 277.57"/>
            <g>
              <path class="cls-9" d="M228.9,312.91c-2.91-2.12-6.29-4.6-10.16-7.4,3.74-.4,9.7,2.35,10.16,7.4Z"/>
              <path class="cls-9" d="M263.73,285.28c2.25,5.72-6.31,26.58-22.39,31-1.8-16.51,8.33-35.06,22.39-31Z"/>
              <path class="cls-9" d="M215.85,265.04c-1.48-.22-2.76,.72-3.42,2.18-1.43,3.2,.07,7.91,1.48,10.93,1.39,3.03,3.33,5.59,5.7,7.53-2.17-.37-4.39-.35-6.54,.22-3.12,.81-6.4,2.58-8.47,5.4-1.87,2.55-2.41,7.12,.55,9.23,2.92,2.1,6.7-.13,9.18-1.84,2.89-2,5.78-5.01,7.47-8.56-.73,2.43-1.21,4.98-1.48,7.55-.04,.4,.46,.49,.55,.1,.53-2.82,1.39-5.53,2.39-8.15,.5-1.3,1.03-2.56,1.66-3.79,.59-1.15,1.46-2.29,1.87-3.54,.2-.61-.46-1.3-.93-.84-.77,.75-1.3,1.92-1.8,2.98,.77-5.88-1.07-12.63-4.65-16.98-.94-1.14-2.16-2.23-3.53-2.42h-.04Zm-.25,30.61c-2.14,1.94-5.17,4.28-8.09,4.11-1.46-.09-2.66-1.11-2.98-2.81-.34-1.79,.32-3.49,1.32-4.75,1.89-2.39,4.72-3.88,7.45-4.62,2.66-.72,5.47-.72,8.18-.07,0,.01-.02,.03-.04,.04-1.73,3.03-3.35,5.83-5.85,8.1h0Zm3.21-26.61c1.68,2.36,2.87,5.19,3.48,8.11,.61,2.97,.57,5.98,.16,8.92-.04-.03-.07-.07-.11-.1-2.5-1.64-4.65-4.05-6.24-6.81-1.5-2.62-2.71-5.99-2.71-9.1,0-1.61,.73-3.62,2.39-3.4,1.23,.16,2.26,1.33,3.01,2.39h.02Z"/>
              <path class="cls-9" d="M229.66,284.73c-2.75,4.73-3.96,10.7-3.74,16.47,0,.46,.7,.49,.7,.03,.04-2.78,.39-5.55,1.05-8.2,.66-2.68,1.69-5.1,2.91-7.48,.11-.23,.18-.58,0-.79-.07-.09-.14-.16-.23-.2-.23-.12-.53-.04-.66,.19h-.02Z"/>
              <path class="cls-9" d="M236.33,286.13c-3.23,4.39-5.49,9.94-6.81,15.53-.16,.65,.68,1.11,.87,.45,.78-2.69,1.75-5.33,2.89-7.84,1.16-2.56,2.6-4.9,4.06-7.23,.46-.75-.5-1.6-1.02-.91h0Z"/>
              <path class="cls-9" d="M242.14,287.61h-.2c-.21,0-.37,.2-.46,.4-.62,1.31-1.37,2.52-1.98,3.85s-1.16,2.68-1.64,4.06c-.98,2.72-1.71,5.53-2.19,8.46-.09,.56,.75,.86,.87,.3,.62-2.79,1.41-5.56,2.39-8.21,.48-1.28,1-2.54,1.55-3.76,.62-1.34,1.23-2.78,2.03-3.98,.12-.19,.14-.46,.07-.68l-.05-.17c-.07-.19-.23-.26-.39-.26h0Z"/>
            </g>
            <polygon class="cls-36" points="170.07 279.98 187.04 288.39 201.07 264.65 174.83 240.03 170.07 279.98"/>
          </g>
        </g>
        <g>
          <path class="cls-46" d="M274.05,180.92c-11.78,6.7-69.29,51.86-47.06,71.18,22.23,19.32,60.83,4.24,83.11-29.55,22.28-33.78,9.16-67.36-36.05-41.63h0Z"/>
          <g>
            <path class="cls-9" d="M178.32,305.2l-25.58-33.93c4.71-3.05,9.04-4.8,9.04-4.8l29.52,31.03c-10,7.84-12.96,7.71-12.96,7.71h-.02Z"/>
            <path class="cls-47" d="M212,252.59c4.1,6.05,7.2,13.53,9.06,20.56-4.96,3.96-9.38,7.59-13.28,10.8-3.6,2.97-6.74,5.59-9.43,7.81-2.89,2.38-5.24,4.34-7.06,5.78-1.82-.3-3.57-.81-5.26-1.5-15.38-6.28-25.23-27.2-24.24-29.53,1.34-.75,3.98-1.57,7.38-2.42,13.19-3.34,32.11-5.86,42.82-11.47h0l.02-.03Z"/>
            <path class="cls-7" d="M231.48,238.93c1.46-1.28,2.99-2.68,4.64-4.24-1.64,1.56-3.19,2.95-4.64,4.24Z"/>
            <path class="cls-7" d="M246.01,225.16h0c-.53,.53-1.05,1.05-1.57,1.56,.5-.52,1.03-1.02,1.55-1.56h.02Z"/>
            <path class="cls-49" d="M253.05,253.02c-11.36,8.49-23.53,13.33-32,20.11-1.87-7.03-4.96-14.51-9.06-20.56,1.91-.99,3.69-1.99,5.46-3.04,.59-.36,1.16-.72,1.73-1.09,.3-.2,.61-.39,.89-.58,.59-.39,1.16-.78,1.75-1.2,.3-.2,.61-.42,.91-.63,.59-.43,1.19-.88,1.8-1.34,2.16-1.64,4.42-3.52,6.97-5.78,1.46-1.27,2.99-2.68,4.64-4.24h0c.82-.76,1.68-1.57,2.55-2.42h0c.89-.85,1.82-1.73,2.75-2.65,.94-.94,1.96-1.9,2.99-2.91,.5-.5,1.03-1.01,1.57-1.54l7.04,27.85h.02Z"/>
            <polygon class="cls-51" points="253.05 253.02 246.01 225.18 246.01 225.16 246.01 225.16 253.05 253.02"/>
            <g>
              <path class="cls-9" d="M198.22,291.88c2.76-2.29,6.01-4.98,9.7-8.02-3.76-.17-9.54,2.94-9.7,8.02Z"/>
              <path class="cls-9" d="M161.78,266.48c-1.89,5.85,7.92,26.13,24.24,29.53,.8-16.6-10.45-34.49-24.24-29.53Z"/>
              <path class="cls-9" d="M204.94,245.92c-3.32,4.57-4.72,11.42-3.6,17.23-.55-1.02-1.16-2.16-1.98-2.85-.48-.42-1.12,.3-.87,.89,.5,1.22,1.43,2.3,2.09,3.41,.7,1.18,1.3,2.41,1.89,3.67,1.16,2.56,2.17,5.21,2.87,8,.09,.39,.61,.27,.53-.14-.43-2.55-1.05-5.07-1.94-7.45,1.91,3.43,4.97,6.25,7.99,8.07,2.57,1.56,6.49,3.56,9.27,1.27,2.82-2.3,2-6.83-.02-9.25-2.25-2.69-5.62-4.25-8.79-4.85-2.19-.42-4.39-.32-6.54,.2,2.25-2.1,4.03-4.78,5.24-7.88,1.21-3.11,2.42-7.91,.8-11.01-.75-1.41-2.09-2.28-3.55-1.96-1.35,.29-2.51,1.46-3.37,2.64h-.02Zm-.82,20.2s-.04-.03-.04-.04c2.67-.82,5.47-1.01,8.18-.45,2.76,.58,5.69,1.87,7.72,4.15,1.07,1.21,1.85,2.85,1.62,4.65-.21,1.71-1.35,2.81-2.8,3-2.91,.36-6.08-1.77-8.33-3.59-2.62-2.1-4.42-4.81-6.33-7.72h-.04Zm4.35-21.23c1.66-.33,2.5,1.63,2.6,3.24,.18,3.11-.82,6.55-2.16,9.26-1.41,2.87-3.42,5.39-5.81,7.19-.04,.03-.07,.07-.11,.12-.59-2.91-.8-5.92-.37-8.92,.43-2.97,1.44-5.86,2.98-8.31,.7-1.11,1.66-2.33,2.87-2.58Z"/>
              <path class="cls-9" d="M195.74,263.8c3.03,4.54,4.6,10.43,4.74,16.19,0,.46-.66,.53-.7,.07-.21-2.77-.73-5.52-1.55-8.11-.84-2.64-2-4.97-3.35-7.27-.12-.22-.21-.56-.04-.79,.07-.09,.12-.17,.21-.22,.21-.13,.52-.09,.68,.14h0Z"/>
              <path class="cls-9" d="M189.16,265.61c3.49,4.18,6.1,9.58,7.75,15.07,.2,.63-.61,1.15-.84,.5-.94-2.64-2.09-5.2-3.37-7.64-1.32-2.49-2.89-4.73-4.49-6.96-.52-.71,.39-1.63,.94-.97h0Z"/>
              <path class="cls-9" d="M183.46,267.46s.12,0,.2-.01c.21-.01,.39,.19,.48,.37,.7,1.27,1.53,2.43,2.21,3.72s1.32,2.59,1.89,3.95c1.14,2.67,2.05,5.42,2.71,8.3,.12,.56-.7,.91-.86,.36-.8-2.75-1.75-5.46-2.89-8.04-.55-1.25-1.14-2.46-1.78-3.64-.7-1.31-1.39-2.69-2.28-3.85-.14-.19-.18-.45-.11-.68,0-.06,.04-.12,.05-.17,.05-.19,.21-.27,.37-.29h0Z"/>
            </g>
          </g>
          <path class="cls-50" d="M245.39,221.07c-.64,.39-28.86,25.79-28.86,25.79l15.31,21.62,29.81-14.75-16.28-32.64h.02Z"/>
          <path class="cls-14" d="M217.11,246.47c3.32-3.3,6.95-6.24,10.7-9.05-.16-.55-.3-1.09-.41-1.64-1.03-5.3,.09-10.92,2.83-15.53,.25-.43,.91-.06,.66,.39-2.51,4.48-3.12,9.85-1.69,14.79,.62,2.18,1.6,4.25,2.92,6.09,.62,.88,1.34,1.71,2.09,2.49,.82,.85,1.96,1.53,2.6,2.51,.55,.84-.37,2.05-1.32,1.73-1.19-.39-2.19-1.56-3.03-2.48-.87-.97-1.68-2-2.34-3.11-.64-1.08-1.21-2.22-1.68-3.4-3.33,2.75-6.45,5.76-9.48,8.83,3.78,6.05,7.9,11.88,12.26,17.5,3.98-3.31,8.86-5.88,13.92-6.87-.84-.56-1.62-1.21-2.3-1.94-1.57-1.67-2.6-3.62-3.33-5.78-.14-.4,.52-.68,.68-.29,.84,1.87,2.26,3.5,3.85,4.75,.57,.46,1.21,.85,1.85,1.21,.12-.09,.27-.16,.45-.2,12.62-3.04,24.51-8.7,35.01-16.38,10.43-7.64,19.54-17.06,26.62-27.95,4.01-6.17,7.51-12.78,10.02-19.71,.2-.55,1.07-.33,.87,.23-2.12,6.31-4.74,12.42-8.06,18.18-3.33,5.78-7.26,11.21-11.62,16.24-8.7,10.03-19.32,18.27-31.14,24.19-5.87,2.94-12.02,5.32-18.34,7.03,.37,.29,.57,.76,.45,1.25-.16,.63-.84,1.02-1.46,.86-.52-.13-1.03-.32-1.53-.55-.07,.32-.29,.61-.71,.71-2.71,.66-5.29,1.46-7.79,2.72-2.46,1.25-4.72,2.82-6.79,4.68-.41,.37-1.18,.5-1.57,0-4.92-6.22-9.25-12.85-13.09-19.81-.45-.43-.61-1.15-.04-1.71h-.05Z"/>
        </g>
        <path class="cls-10" d="M162.87,125.62c-.21-.92,.16-1.93,.84-2.55,.53-.48,1.32-.61,2.01-.43,.12,0,.25,.04,.37,.07,1.76-1.69,4.4-2.64,6.6-3.21,3.08-.81,6.29-1.02,9.32-2.03,4.8-1.6,8.56-5.52,10.25-10.3,.96-2.72,1.35-5.69,.84-8.56-.09-.5,.66-.58,.77-.1,1.23,5.13-.05,10.46-3.16,14.67-1.53,2.07-3.49,3.82-5.78,5.01-2.83,1.48-6.04,1.93-9.16,2.52-1.73,.32-3.46,.71-5.1,1.38-1.16,.48-2.1,1.11-3.01,1.84,.12,.23,.21,.46,.27,.72,.2,.91-.14,1.83-.8,2.45-.61,.58-1.57,.76-2.37,.55-.43-.12-.84-.3-1.16-.62-.41-.39-.64-.85-.77-1.4h.04Z"/>
        <path class="cls-10" d="M163.83,139.72c0-2.45-.12-4.88-.34-7.33-.21-2.38-.48-4.77-.98-7.1-.52-2.39-1.16-4.74-1.78-7.09-.21-.82-1.43-.49-1.27,.33,.91,4.64,1.3,9.45,1.64,14.16,.12,1.71,.2,3.43,.23,5.14-.12-.4-.23-.82-.37-1.22-.61-1.76-1.34-3.46-2.17-5.11-.86-1.71-1.96-3.21-3.01-4.8-.37-.56-1.19-.09-.91,.52,.78,1.63,1.37,3.37,2.01,5.06,.64,1.67,1.23,3.37,1.76,5.09,.53,1.67,1.02,3.36,1.39,5.07,.2,.91,.37,1.82,.53,2.72,.16,.91,.27,1.79,.91,2.49,.37,.4,1.09,.3,1.34-.19,.04-.07,.05-.16,.09-.24,.12-.1,.23-.23,.29-.4,.73-2.28,.62-4.73,.62-7.1h.02Z"/>
        <path class="cls-10" d="M135.84,140.12c-7.54,3.23-16.28,3.89-24.05,1.09-7.01-2.51-13.3-8.56-13.67-16.45-.2-4.05,1.19-8.34,4.14-11.18,.5-.48-.18-1.43-.75-.99-3.24,2.43-5.28,6.08-5.7,10.14-.43,4.16,.89,8.4,3.21,11.83,5.06,7.43,14.23,10.83,22.91,10.88,5.21,.03,10.29-1.17,14.89-3.62,1.14-.61,.16-2.19-.96-1.71h0Z"/>
        <g>
          <g>
            <path class="cls-9" d="M262.27,55.52l-21.23,7.87c-1.23,.46-2.58-.19-3.03-1.43l-8.57-23.67c-.45-1.24,.18-2.61,1.41-3.07l21.23-7.87c1.23-.46,2.58,.19,3.03,1.43l8.57,23.67c.45,1.24-.18,2.61-1.41,3.07Z"/>
            <g>
              <path class="cls-11" d="M251.98,58.5c2.96-1.48,4.35-4.98,3.21-8.14l-5.22-14.41c-.59-1.64-1.8-2.97-3.37-3.7s-3.33-.81-4.97-.22l-5.95,2.2c-.23,.09-.45,.19-.66,.29-2.96,1.48-4.33,4.98-3.19,8.14l5.22,14.41c.59,1.64,1.8,2.97,3.37,3.7s3.33,.81,4.97,.2l5.95-2.2c.23-.09,.45-.19,.66-.29h-.02Z"/>
              <path class="cls-13" d="M235.33,35.21c.2-.1,.39-.19,.59-.26l5.95-2.2c2.98-1.11,6.29,.45,7.38,3.46l5.22,14.41c1.02,2.79-.21,5.89-2.83,7.22-.2,.1-.39,.19-.59,.26l-5.95,2.2c-1.44,.53-3.01,.48-4.4-.19-1.39-.65-2.46-1.82-2.98-3.28l-5.22-14.41c-1.02-2.79,.21-5.89,2.83-7.22m-.66-1.34c-3.26,1.64-4.85,5.53-3.57,9.08l5.22,14.41c1.37,3.79,5.53,5.75,9.29,4.35l5.95-2.2c.25-.1,.5-.2,.73-.32,3.26-1.64,4.85-5.53,3.57-9.08l-5.22-14.41c-1.37-3.79-5.53-5.75-9.29-4.35l-5.95,2.2c-.25,.1-.5,.2-.73,.32h0Z"/>
            </g>
          </g>
          <g>
            <path class="cls-48" d="M229.02,60.07l-1.44,10.72-1.64,12.32-.71,6.47c-.78,7.15-6.93,12.43-14.03,12.07h0c-7.15-.36-12.76-6.32-12.76-13.57l-.04-38.52,30.61,10.52h.02Z"/>
            <path class="cls-13" d="M227.9,68.61l-1.66,12.27c-12.64,2.41-20.47-10.99-22.05-23.45,6.1-1.04,21.52,9.81,23.71,11.18h0Z"/>
          </g>
          <g>
            <g>
              <g>
                <path class="cls-42" d="M231.98,16.85c-3.17-2.36-7.06-3.31-11.14-3.23-10.43,.2-22.23,7.15-26.99,14.97-6.97,11.45-4.08,24.68,3.71,34.33,3.55,4.45,8.16,8.15,13.32,10.55,9.02,4.21,20.47,4.74,28.24-1.54,5.62-4.52,8.43-11.97,8.59-19.25,.27-12.29-5.63-28.35-15.71-35.84h-.02Z"/>
                <path class="cls-13" d="M197.72,50.25c11.41-.82-2.89-17.85-2.89-17.85,0,0,26.01,3.73,18.86-13.2l-6.85-3.9s-34.66,11.25-14.65,43.4l5.9-1.41-.37-7.06h0Z"/>
                <path class="cls-8" d="M236.81,38.94c.7,1.37,.39,2.98-.66,3.6-1.07,.62-2.5,0-3.19-1.35-.7-1.37-.39-2.98,.66-3.6,1.07-.62,2.5,0,3.19,1.35Z"/>
                <path class="cls-8" d="M219.93,46.27c.7,1.37,.39,2.98-.66,3.6-1.07,.62-2.5,0-3.19-1.35-.7-1.37-.39-2.98,.66-3.6,1.07-.62,2.5,0,3.19,1.35Z"/>
                <path class="cls-13" d="M234.46,46.31c-2.44-3.01-5.01-5.88-7.63-8.74-.25-.27-.71,.06-.46,.36,1.94,2.49,3.89,4.94,5.92,7.35,1,1.17,2.25,2.36,2.75,3.85,.43,1.24-.11,2.43-.78,3.44-.18,.26,0,.68,.36,.62,1.18-.2,1.85-1.5,1.84-2.62-.04-1.61-1-3.04-1.96-4.24h-.02Z"/>
                <path class="cls-8" d="M202.76,63.33l-8.33-6.22,.64-1.3c.77-1.83,1.66-3.7,2.66-5.58,4.83,5.34,5.03,13.09,5.03,13.09h0Z"/>
                <path class="cls-13" d="M213.69,19.2c16.6,4.7,18.29-2.36,18.29-2.36l6.61,6.86c9-10.65-7.99-36.1-22.52-16.48-6.69-14.49-29.59,.59-28.67,20.49-16.37,1.53-23.03,27.63,7.26,34.46,0,0-13.69-29.53,1.39-38.31,6.52-3.79,17.65-4.65,17.65-4.65h-.02Z"/>
                <path class="cls-12" d="M190.87,54.97c-2.62-.3-5.56,.75-6.79,3.13-1.02,1.97-.66,4.41,.14,6.48,1.03,2.68,2.83,5.1,5.26,6.6,2.42,1.48,5.53,1.96,8.18,.97,2.66-1.01,4.76-3.57,4.94-6.44,.34-5.5-7.01-10.18-11.73-10.72h0Z"/>
                <path class="cls-8" d="M198.86,64.65c-1.34-1.04-2.94-1.76-4.62-1.94-.77-.09-1.53-.12-2.3-.03s-1.52,.33-2.28,.49c-.5,.1-.43,.95,.11,.91,.34-.03,.66-.04,1.02,.03,.34,.06,.68,.16,1.02,.24s.7,.19,1.03,.29c.16,.04,.34,.1,.5,.16s.39,.12,.53,.22c-.04-.01-.07-.03-.11-.06,.05,.03,.11,.06,.16,.07,.14,.07,.29,.13,.43,.19,.09,.04,.18,.07,.27,.12h.02c.34,.1,.68,.35,.96,.52,.62,.37,1.23,.76,1.8,1.22,.27,.22,.77,.24,1.07,.17,.32-.09,.7-.33,.86-.62,.41-.72,.18-1.47-.45-1.96h-.02Z"/>
              </g>
              <path class="cls-8" d="M236.14,22.44c5.62,3.9-9.09,9.03-9.68,4.47-.43-3.41,7.33-6.11,9.68-4.47Z"/>
              <path class="cls-8" d="M204.17,40.47c-1.19-2.87,5.35-6.48,7.52-6.27,6.08,.62-5.21,11.78-7.52,6.27Z"/>
            </g>
            <path class="cls-9" d="M220.2,57.82c.2-1.07,9.27-1.57,10.27-.48,.64,.69-1.11,4.58-4.99,4.7-3.21,.1-5.51-2.98-5.28-4.22h0Z"/>
          </g>
          <g>
            <path class="cls-9" d="M211.27,56.67l36.22-12.82c7.11-2.52,10.75-10.75,8.09-18.37h0c-2.64-7.62-10.55-11.74-17.67-9.22l-36.22,12.82c-7.11,2.52-10.73,10.75-8.09,18.37h0c2.64,7.62,10.55,11.74,17.67,9.22Z"/>
            <path class="cls-13" d="M209.97,27.83c.39-.19,2.57-1.05,4.17-1.53l26.38-8.99c4.83-1.79,11.32,1.84,13.69,8.67,2.19,6.32-.14,13.09-5.46,15.76-.39,.19-.78,.36-1.19,.5l-27.81,9.82c-2.91,1.02-6.06,.73-8.93-.85-2.91-1.6-5.15-4.32-6.31-7.65-2.19-6.32,.14-13.09,5.46-15.76h0m-.66-1.34c-5.88,2.95-8.65,10.5-6.19,17.59,2.64,7.62,10.3,11.83,17.11,9.42l27.81-9.82c.46-.17,.93-.36,1.35-.58,5.88-2.95,8.65-10.5,6.19-17.59h0c-2.64-7.62-10.3-11.83-17.11-9.42l-27.81,9.82c-.46,.17-.93,.36-1.35,.58h0Z"/>
            <path class="cls-11" d="M245.74,38.84l-11.57,4.09-3.87,1.37-1.64,.59-6.76,2.39-.37,.13c-.5,.17-1.02,.32-1.52,.4-4.33,.75-8.7-1.76-10.21-6.09-1.68-4.85,.84-10.17,5.63-11.87l12.25-4.32,6.76-2.38,1.66-.59,3.55-1.25c.11-.04,.2-.06,.3-.09,.41-.14,.8-.24,1.21-.3,4.33-.75,8.7,1.76,10.21,6.09,1.68,4.85-.84,10.16-5.63,11.86v-.03Z"/>
            <g>
              <polygon class="cls-9" points="235.05 21.39 228.38 46.47 220.59 49.22 227.26 24.14 235.05 21.39"/>
              <path class="cls-9" d="M241.39,19.17l-6.67,25.07-4.46,1.57,6.67-25.08,4.08-1.44c.12-.04,.23-.07,.36-.1h.02Z"/>
            </g>
            <path class="cls-6" d="M242.87,32.31l-20.11,7.09c-1.23,.43-2.57-.22-2.99-1.47h0c-.43-1.24,.21-2.61,1.44-3.04l20.11-7.09c1.23-.43,2.57,.22,2.99,1.47h0c.43,1.24-.21,2.61-1.44,3.04Z"/>
          </g>
          <g>
            <path class="cls-9" d="M210,72.26l-20.75,9.1c-1.19,.52-2.58-.03-3.1-1.24l-9.91-23.12c-.52-1.21,.04-2.62,1.23-3.14l20.75-9.1c1.19-.52,2.58,.03,3.1,1.24l9.91,23.12c.52,1.21-.04,2.62-1.23,3.14Z"/>
            <g>
              <path class="cls-9" d="M199.55,76.02c3.1-1.56,4.44-5.29,3.07-8.5l-6.04-14.07c-.7-1.61-1.96-2.85-3.58-3.5-1.6-.65-3.39-.62-4.97,.09l-5.83,2.55c-.11,.04-.21,.1-.3,.14-3.1,1.56-4.44,5.29-3.07,8.5l6.04,14.07c.7,1.61,1.96,2.85,3.57,3.5s3.37,.62,4.97-.09l5.83-2.55c.11-.04,.21-.1,.3-.14h.02Z"/>
              <path class="cls-13" d="M182.23,53.42c.09-.04,.18-.09,.27-.13l5.83-2.55c2.91-1.28,6.31,.07,7.58,3.03l6.04,14.07c1.21,2.84,.04,6.15-2.71,7.53-.09,.04-.18,.09-.27,.13l-5.83,2.55c-1.41,.62-2.98,.65-4.4,.07s-2.55-1.67-3.17-3.1l-6.04-14.07c-1.21-2.84-.04-6.15,2.71-7.52m-.66-1.34c-3.42,1.71-4.96,5.88-3.4,9.46l6.04,14.07c1.59,3.7,5.85,5.4,9.52,3.8l5.83-2.55c.12-.06,.23-.1,.34-.16,3.42-1.71,4.96-5.88,3.4-9.46l-6.04-14.07c-1.59-3.7-5.85-5.42-9.52-3.8l-5.83,2.55c-.12,.06-.23,.1-.34,.16h0Z"/>
            </g>
            <path class="cls-11" d="M183.15,57.67l7.9-3.47c.46-.2,.98,0,1.18,.48l6.52,15.23c.2,.46,0,.99-.46,1.2l-7.9,3.47c-.46,.2-.98,0-1.18-.48l-6.52-15.23c-.2-.46,0-.99,.46-1.2Z"/>
          </g>
        </g>
        <g>
          <g>
            <path class="cls-40" d="M188.56,56.8c3.4,19.09,5.06,29.69-10.62,36.3l-9.32-26.26,19.95-10.04h0Z"/>
            <path class="cls-44" d="M189.09,33.33l-13.03,3.2c-1.19,.29-2.17,1.12-2.67,2.25l-5.85,19.64c-.66,2.22-.53,4.61,.36,6.74l10.59,25.27c.5-3.47,7.99-4.97,9.59-13.82,2.46-9.33-6.9-26.43-6.9-26.43v-7.51l9.66-4.71c1.05-.52,1.64-1.74,1.28-2.97-.37-1.27-1.75-1.96-3.03-1.66h0Z"/>
            <path class="cls-41" d="M180.52,47.71c5.92-2.15,9.29-2.46,10.27-2.18,.73,.22,5.83,3.15,8.38,4.65,.86,.5,1.27,1.53,.98,2.49h0c-.32,1.09-1.41,1.76-2.51,1.51l-6.58-1.84-9.15,2.3-1.39-6.96h0Z"/>
            <path class="cls-39" d="M181.57,54.27c7.4-1.54,13.57,.53,14.23,1.17,.45,.43,2.75,3.5,4.19,5.45,.66,.89,.5,2.16-.37,2.84h0c-.77,.61-1.85,.56-2.58-.1l-2.83-2.56c-.43-.39-1-.53-1.57-.42l-6.15,1.34-4.9-7.71Z"/>
            <path class="cls-43" d="M187.54,61.24c4.4,.71,8.09,2.22,8.63,2.95,.37,.49,2.17,3.89,3.3,6.04,.52,.98,.16,2.2-.82,2.74h0c-.86,.48-1.93,.26-2.53-.5l-2.41-2.98c-.36-.45-.91-.69-1.48-.66l-6.28,.36,1.57-7.95h.02Z"/>
            <path class="cls-13" d="M178.86,47.96c-.87-.04-1.62,.09-2.44,.42-.82,.35-1.55,.79-2.25,1.37-1.35,1.09-2.57,2.25-3.57,3.67-.18,.24,.25,.56,.43,.32,1.02-1.27,2.25-2.45,3.67-3.23,.7-.37,1.41-.71,2.1-1.05,.75-.36,1.44-.72,2.14-1.17,.16-.1,.07-.33-.11-.35h.02Z"/>
          </g>
          <path class="cls-21" d="M185.76,88.49c-13.32,16.49-60.75,64.49-80.68,51.28-.34-.23-.68-.46-1-.71-11.02-8.36-7.58-26.05,5.56-30.21,14.01-4.44,46.33-16.21,64.44-30.87l11.66,10.52h.02Z"/>
        </g>
      </g>
    </g>
  </g>
</svg>