<?xml version="1.0" encoding="UTF-8"?>
<svg id="Layer_2" data-name="Layer 2" xmlns="http://www.w3.org/2000/svg" viewBox="0 0 66.91 21.17">
  <defs>
    <style>
      .cls-1 {
        fill: #fac800;
      }
    </style>
  </defs>
  <g id="Layer_1-2" data-name="Layer 1">
    <g>
      <polygon class="cls-1" points="60.77 .84 55.09 0 61.22 18.76 66.91 19.6 60.77 .84"/>
      <polygon class="cls-1" points="49.75 1.16 44.07 .31 50.2 19.07 55.89 19.91 49.75 1.16"/>
      <polygon class="cls-1" points="38.74 1.47 33.05 .63 39.19 19.39 44.87 20.23 38.74 1.47"/>
      <polygon class="cls-1" points="27.72 1.79 22.03 .94 28.17 19.7 33.85 20.54 27.72 1.79"/>
      <polygon class="cls-1" points="16.7 2.1 11.02 1.26 17.15 20.02 22.84 20.86 16.7 2.1"/>
      <polygon class="cls-1" points="5.68 2.42 0 1.57 6.14 20.33 11.82 21.17 5.68 2.42"/>
    </g>
  </g>
</svg>