<?xml version="1.0" encoding="UTF-8"?>
<svg id="Layer_2" data-name="Layer 2" xmlns="http://www.w3.org/2000/svg" viewBox="0 0 335.13 158.79">
  <defs>
    <style>
      .cls-1 {
        opacity: .1;
      }

      .cls-1, .cls-2 {
        fill: #636363;
      }

      .cls-3 {
        fill: #304156;
      }

      .cls-4 {
        fill: #cecece;
      }

      .cls-5 {
        fill: #64676b;
      }

      .cls-6 {
        fill: #575e6d;
      }

      .cls-7 {
        fill: #3c4451;
      }

      .cls-2 {
        opacity: .2;
      }

      .cls-8 {
        fill: #ddd;
        opacity: .7;
      }
    </style>
  </defs>
  <g id="Layer_2-2" data-name="Layer 2">
    <path class="cls-4" d="M290.8,8.18v-.15h-.29c-10.53-5.14-22.36-8.04-34.87-8.04s-24.34,2.9-34.87,8.04H114.35C103.82,2.9,91.99,0,79.48,0,35.59,0,0,35.55,0,79.39s35.59,79.39,79.48,79.39c25.96,0,49-12.43,63.51-31.66h49.15c14.51,19.22,37.55,31.66,63.51,31.66,43.9,0,79.48-35.55,79.48-79.39,0-31.24-18.07-58.25-44.33-71.21Z"/>
    <path class="cls-1" d="M290.8,8.18v-.15h-.29c-10.53-5.14-22.36-8.04-34.87-8.04s-24.34,2.9-34.87,8.04H114.35C103.82,2.9,91.99,0,79.48,0,35.59,0,0,35.55,0,79.39c0,.39,.02,.77,.03,1.16C.65,37.24,35.98,2.32,79.48,2.32c12.51,0,24.34,2.9,34.87,8.04h.2c3.63,5.76,4.29,13.68,4.29,13.68,2.99-4.16,1.24-10.69,.19-13.68h97.62c-1.05,2.98-2.8,9.52,.19,13.68,0,0,.67-8.14,4.44-13.91,10.4-4.99,22.05-7.8,34.37-7.8s24.34,2.9,34.87,8.04h.29v.15c25.88,12.77,43.79,39.19,44.3,69.85,0-.32,.02-.64,.02-.97,0-31.24-18.07-58.25-44.33-71.21Z"/>
    <path class="cls-2" d="M335.05,75.91c-1.63,42.46-36.54,76.39-79.41,76.39-25.51,0-48.21-12.03-62.75-30.72-3.57-5.75-4.22-13.56-4.22-13.56-2.66,3.71-1.56,9.3-.55,12.58h-41.13c1.02-3.29,2.12-8.88-.55-12.58,0,0-.65,7.81-4.22,13.56-14.54,18.69-37.24,30.72-62.75,30.72C36.67,152.31,1.78,118.46,.08,76.06c-.04,1.08-.08,2.15-.08,3.24,0,43.9,35.59,79.48,79.48,79.48,25.96,0,49-12.45,63.51-31.69h49.15c14.51,19.25,37.55,31.69,63.51,31.69,43.9,0,79.48-35.59,79.48-79.48,0-1.14-.03-2.27-.08-3.39Z"/>
    <circle class="cls-8" cx="264.35" cy="73.56" r="52.59"/>
    <circle class="cls-8" cx="70.49" cy="73.32" r="52.59"/>
    <g>
      <circle class="cls-6" cx="42.16" cy="72.34" r="12.18"/>
      <circle class="cls-6" cx="98.82" cy="74.29" r="12.18"/>
      <path class="cls-7" d="M109.04,67.69c-.96-1.48-2.2-2.68-3.59-3.58,3.64,5.64,2.03,13.16-3.6,16.82-4.16,2.7-9.35,2.53-13.26,0,0,.01,.01,.02,.02,.03,3.67,5.64,11.21,7.24,16.85,3.58,5.64-3.67,7.24-11.21,3.58-16.85Z"/>
      <circle class="cls-6" cx="71.47" cy="44.98" r="12.18"/>
      <circle class="cls-6" cx="69.51" cy="101.65" r="12.18"/>
      <path class="cls-7" d="M79.73,95.01c-.96-1.48-2.2-2.68-3.59-3.58,3.64,5.64,2.03,13.16-3.6,16.82-4.16,2.7-9.35,2.53-13.26,0,0,.01,.01,.02,.02,.03,3.67,5.64,11.21,7.24,16.85,3.58,5.64-3.67,7.24-11.21,3.58-16.85Z"/>
      <path class="cls-7" d="M52.37,65.7c-.96-1.48-2.2-2.68-3.59-3.58,3.64,5.64,2.03,13.16-3.6,16.82-4.16,2.7-9.35,2.53-13.26,0,0,.01,.01,.02,.02,.03,3.67,5.64,11.21,7.24,16.85,3.58,5.64-3.67,7.24-11.21,3.58-16.85Z"/>
      <path class="cls-7" d="M81.68,38.35c-.96-1.48-2.2-2.68-3.59-3.58,3.64,5.64,2.03,13.16-3.6,16.82-4.16,2.7-9.35,2.53-13.26,0,0,.01,.01,.02,.02,.03,3.67,5.64,11.21,7.24,16.85,3.58,5.64-3.67,7.24-11.21,3.58-16.85Z"/>
    </g>
    <g>
      <rect class="cls-6" x="252.64" y="34.59" width="23.41" height="77.94" rx="10.39" ry="10.39"/>
      <rect class="cls-6" x="252.64" y="34.59" width="23.41" height="77.94" rx="10.39" ry="10.39" transform="translate(337.91 -190.79) rotate(90)"/>
      <path class="cls-3" d="M263.81,42.39l-6.21,7.58c-.38,.46-.05,1.15,.54,1.15h12.43c.59,0,.92-.69,.54-1.15l-6.21-7.58c-.28-.34-.8-.34-1.08,0Z"/>
      <path class="cls-3" d="M264.89,106.62l6.21-7.58c.38-.46,.05-1.15-.54-1.15h-12.43c-.59,0-.92,.69-.54,1.15l6.21,7.58c.28,.34,.8,.34,1.08,0Z"/>
      <path class="cls-3" d="M297.78,73.51l-7.58-6.21c-.46-.38-1.15-.05-1.15,.54v12.43c0,.59,.69,.92,1.15,.54l7.58-6.21c.34-.28,.34-.8,0-1.08Z"/>
      <path class="cls-3" d="M230.92,74.1l7.58,6.21c.46,.38,1.15,.05,1.15-.54v-12.43c0-.59-.69-.92-1.15-.54l-7.58,6.21c-.34,.28-.34,.8,0,1.08Z"/>
    </g>
    <rect class="cls-5" x="141.17" y="69.49" width="18.19" height="5.7" rx="2.16" ry="2.16"/>
    <rect class="cls-5" x="176.46" y="69.49" width="18.19" height="5.7" rx="2.16" ry="2.16"/>
  </g>
</svg>