<?xml version="1.0" encoding="UTF-8"?>
<svg id="Layer_2" data-name="Layer 2" xmlns="http://www.w3.org/2000/svg" xmlns:xlink="http://www.w3.org/1999/xlink" viewBox="0 0 187.86 226.07">
  <defs>
    <style>
      .cls-1, .cls-2 {
        fill: none;
      }

      .cls-3 {
        fill: url(#linear-gradient);
      }

      .cls-4 {
        clip-path: url(#clippath);
      }

      .cls-5 {
        fill: url(#Degradado_sin_nombre_37);
      }

      .cls-6 {
        fill: url(#Degradado_sin_nombre_36);
      }

      .cls-7 {
        fill: url(#Degradado_sin_nombre_35);
      }

      .cls-2 {
        stroke: #fff;
        stroke-miterlimit: 10;
      }

      .cls-8 {
        fill: url(#Degradado_sin_nombre_35-2);
      }
    </style>
    <clipPath id="clippath">
      <circle class="cls-1" cx="93.24" cy="131.98" r="75.36" transform="translate(-44.71 47.83) rotate(-23.38)"/>
    </clipPath>
    <linearGradient id="Degradado_sin_nombre_37" data-name="Degradado sin nombre 37" x1="1003.04" y1="194.34" x2="1144.51" y2="342.03" gradientTransform="translate(1082.03 563.5) rotate(-143.34) scale(1 -1)" gradientUnits="userSpaceOnUse">
      <stop offset="0" stop-color="#02c6f3"/>
      <stop offset=".16" stop-color="#01bbec"/>
      <stop offset=".44" stop-color="#019edb"/>
      <stop offset=".8" stop-color="#0070c0"/>
      <stop offset=".85" stop-color="#0069bc"/>
    </linearGradient>
    <linearGradient id="Degradado_sin_nombre_35" data-name="Degradado sin nombre 35" x1="118.27" y1="22.21" x2="144.71" y2="257.68" gradientUnits="userSpaceOnUse">
      <stop offset=".04" stop-color="#0066b8"/>
      <stop offset=".34" stop-color="#007dc4"/>
      <stop offset=".72" stop-color="#00a1d7"/>
    </linearGradient>
    <linearGradient id="Degradado_sin_nombre_35-2" data-name="Degradado sin nombre 35" x1="44.75" y1="50.92" x2="127.61" y2="278.44" xlink:href="#Degradado_sin_nombre_35"/>
    <linearGradient id="Degradado_sin_nombre_36" data-name="Degradado sin nombre 36" x1="-35.44" y1="126.49" x2="388.9" y2="212.11" gradientUnits="userSpaceOnUse">
      <stop offset=".15" stop-color="#0066b8"/>
      <stop offset=".4" stop-color="#007dc4"/>
      <stop offset=".72" stop-color="#00a1d7"/>
    </linearGradient>
    <linearGradient id="linear-gradient" x1="33.91" y1="6.83" x2="70.43" y2="18.53" gradientUnits="userSpaceOnUse">
      <stop offset="0" stop-color="#ea5000"/>
      <stop offset="1" stop-color="#f9ae41"/>
    </linearGradient>
  </defs>
  <g id="Layer_1-2" data-name="Layer 1">
    <g>
      <g>
        <circle class="cls-2" cx="93.93" cy="132.14" r="93.41"/>
        <g class="cls-4">
          <circle class="cls-5" cx="93.24" cy="131.98" r="75.36" transform="translate(-44.71 47.83) rotate(-23.38)"/>
          <g>
            <path class="cls-7" d="M85.16,50.21c-6.12,11.79-4.12,27.29,4.79,37.15,6.85,7.58,17.23,12.01,22.08,21.01,3.55,6.59,3.45,14.48,3.09,21.96-.35,7.48-.82,15.27,2.13,22.16,2.95,6.88,10.54,12.43,17.74,10.36,6.16-1.77,9.74-8.23,11.34-14.43,1.61-6.2,1.96-12.82,4.82-18.55,2.13-4.27,5.52-7.75,8.7-11.3s6.27-7.4,7.6-11.98c2.7-9.29-.04-17.38-6.74-24.08-5.66-5.65-13.79-12.99-20.6-16.81,.63,4.13,2.87,7.84,2.64,12.28-.22,4.45-3.03,9.11-7.41,9.93-3.45,.65-6.88-1.16-9.66-3.3-8.8-6.8-14.18-17.82-14.13-28.94l-26.4-5.46Z"/>
            <path class="cls-8" d="M72.15,66.8c1.78,5.95,1.48,12.33,1.63,18.57,.15,6.24,.88,12.77,4.34,17.86,3.81,5.61,10.29,8.56,15.29,13.08,5.32,4.8,9.23,13.98,6.33,30.51-2.08,11.88-15.69,17.49-25.06,10.35-24.42-18.6-53.18-55.84-29.99-95.36,6.89-11.74,22.75-10.77,27.46,4.98Z"/>
            <path class="cls-6" d="M178.07,130.34c-4.39-3.02-8.1-1.87-11.48,2.24-3.39,4.11-4.59,9.54-5.9,14.7-4.17,16.45-13.69,31.43-31.36,35.24-12.2,2.63-24.68,3.06-36.94,.47-35.42-7.49-70.15-46.03-65.83-83.65,.32-2.81,.48-7.85,2.12-10.22-12.72,18.46-17.92,32.15-12.98,54.01,2.03,9,6.38,17.37,12.74,24.05,44.09,46.33,92.88,37.44,105.77,31.91,12.9-5.53,21.8-16.49,29.57-28.18,7.77-11.68,13.07-26.11,14.29-40.57Z"/>
          </g>
        </g>
      </g>
      <path class="cls-3" d="M40.72,10.09c-1.66,7.04,2.7,14.09,9.74,15.75,7.04,1.66,14.09-2.7,15.75-9.74S63.51,2.02,56.48,.35c-7.04-1.66-14.09,2.7-15.75,9.74Z"/>
    </g>
  </g>
</svg>