<?xml version="1.0" encoding="UTF-8"?>
<svg id="Layer_2" data-name="Layer 2" xmlns="http://www.w3.org/2000/svg" viewBox="0 0 167.73 167.59">
  <defs>
    <style>
      .cls-1 {
        fill: #ff2585;
      }

      .cls-2 {
        fill: #fff;
      }

      .cls-3 {
        fill: #b30957;
      }

      .cls-4 {
        opacity: .5;
      }
    </style>
  </defs>
  <g id="OBJECTS">
    <g class="cls-4">
      <circle class="cls-1" cx="82.5" cy="84.49" r="82.11" transform="translate(-31.38 53.25) rotate(-30.34)"/>
      <path class="cls-2" d="M6.54,116.15C-21.5,47.48,45.53-20.84,114.82,5.96c43.4,16.86,64.76,68.15,46.19,110.84-29.76,68.07-125.44,67.59-154.47-.65h0Zm.33-.14c12.17,30.08,43.38,50.78,75.81,50.35,58.12-.14,97.73-59.71,75.28-113.33C135.67-.67,65.48-14.46,24.47,26.72,1.34,49.45-5.93,86.19,6.87,116.01h0Z"/>
      <g>
        <ellipse class="cls-3" cx="144.84" cy="67.64" rx="6.23" ry="9.08" transform="translate(-12.31 38.37) rotate(-14.48)"/>
        <path class="cls-3" d="M116.44,62.5c3.07-1.55,7.4,.82,9.66,5.29,2.26,4.48,1.6,9.36-1.47,10.91-3.07,1.55-7.4-.82-9.66-5.29-2.26-4.48-1.6-9.36,1.47-10.91Z"/>
        <path class="cls-3" d="M115.44,34.37c6.97-4.06,17.44,4.26,18.55,11.61,1.7,8.88-7.28,14.98-14.92,9.96-6.35-3.87-10.05-16.65-3.63-21.57h0Zm.26,.4c-5.81,4.83-.45,14.83,5.21,17.46,4.85,2.52,9.4-.52,8.93-5.97-.27-6.23-7.46-15.01-14.14-11.5h0Z"/>
        <path class="cls-3" d="M50.81,50.85c4.96,.54,8.45,5.83,7.79,11.8s-5.21,10.38-10.17,9.83c-4.96-.54-8.45-5.83-7.79-11.8,.66-5.97,5.21-10.38,10.17-9.83Z"/>
        <path class="cls-3" d="M88.35,85.65c10.8,1.08,16.08,16.03,8.27,24.4-5.93,6.79-17.31,5.53-21.62-2.39-5.79-9.85,2.58-23.29,13.35-22.01h0Zm-.05,.47c-9.93-.94-15.49,11.56-9.91,19.16,3.37,5.12,11.02,5.96,15.42,1.69,7.1-6.21,4.39-19.61-5.51-20.86h0Z"/>
        <path class="cls-3" d="M36.78,36.08c5.13,3.2,3.98,13.29-.5,17.01-5.63,5.01-14.12,.66-13.19-6.93,.49-5.76,8.19-12.49,13.69-10.07h0Zm-.22,.42c-5.13-1.96-9.56,5.01-9.33,9.54,.05,3.97,3.48,5.77,6.78,3.56,3.87-2.42,7.07-9.93,2.55-13.1h0Z"/>
        <path class="cls-3" d="M28.26,112.89c5.7-1.05,11.49,6.69,10.65,12.28-.82,7.19-9.74,9.57-14.01,3.61-3.42-4.48-2.13-14.05,3.36-15.89h0Zm.12,.46c-4.86,1.9-3.61,9.49-.52,12.53,2.52,2.68,6.13,1.75,7.04-1.82,1.23-4.15-1.35-11.4-6.52-10.71h0Z"/>
        <path class="cls-3" d="M15.86,90.68c2.79-.72,5.89,1.99,6.94,6.04,1.05,4.06-.36,7.93-3.15,8.65-2.79,.72-5.89-1.99-6.94-6.04-1.05-4.06,.36-7.93,3.15-8.65Z"/>
        <path class="cls-3" d="M121.69,130.41c2.04,2.03,1.3,6.08-1.66,9.05s-7,3.74-9.04,1.71c-2.04-2.03-1.3-6.08,1.66-9.05,2.95-2.97,7-3.74,9.04-1.71Z"/>
        <path class="cls-3" d="M91.26,155.68c2.87,.22,5.09,1.71,4.97,3.35-.12,1.63-2.55,2.78-5.42,2.56s-5.09-1.71-4.97-3.35c.12-1.63,2.55-2.78,5.42-2.56Z"/>
        <path class="cls-3" d="M137.06,122.88c1.63,.83,1.98,3.43,.77,5.81-1.21,2.38-3.51,3.64-5.15,2.81-1.63-.83-1.98-3.43-.77-5.81,1.21-2.38,3.51-3.64,5.15-2.81Z"/>
        <path class="cls-3" d="M95.64,9.23c-.33,1.32,2.33,3.12,5.93,4.02,3.6,.9,6.79,.56,7.12-.76,.33-1.32-2.33-3.12-5.93-4.02-3.6-.9-6.79-.56-7.12,.76Z"/>
        <path class="cls-3" d="M55.79,19.12c.69,2.72,5.94,3.72,11.72,2.25,5.78-1.47,9.9-4.87,9.21-7.58-.69-2.72-5.94-3.72-11.72-2.25-5.78,1.47-9.9,4.87-9.21,7.58Z"/>
        <path class="cls-3" d="M50.07,118.65c3.52-2.23,9.01,.12,12.26,5.24,3.25,5.13,3.03,11.09-.49,13.32-3.52,2.23-9.01-.12-12.26-5.24-3.25-5.13-3.03-11.09,.49-13.32Z"/>
      </g>
    </g>
  </g>
</svg>